<?xml version="1.0" encoding="utf-8"?>
<!-- Generator: Adobe Illustrator 25.4.1, SVG Export Plug-In . SVG Version: 6.00 Build 0)  -->
<!DOCTYPE svg PUBLIC "-//W3C//DTD SVG 1.1//EN" "http://www.w3.org/Graphics/SVG/1.1/DTD/svg11.dtd" [
	<!ENTITY ns_extend "http://ns.adobe.com/Extensibility/1.0/">
	<!ENTITY ns_ai "http://ns.adobe.com/AdobeIllustrator/10.0/">
	<!ENTITY ns_graphs "http://ns.adobe.com/Graphs/1.0/">
	<!ENTITY ns_vars "http://ns.adobe.com/Variables/1.0/">
	<!ENTITY ns_imrep "http://ns.adobe.com/ImageReplacement/1.0/">
	<!ENTITY ns_sfw "http://ns.adobe.com/SaveForWeb/1.0/">
	<!ENTITY ns_custom "http://ns.adobe.com/GenericCustomNamespace/1.0/">
	<!ENTITY ns_adobe_xpath "http://ns.adobe.com/XPath/1.0/">
]>
<svg version="1.1" id="Capa_1" xmlns:x="&ns_extend;" xmlns:i="&ns_ai;" xmlns:graph="&ns_graphs;"
	 xmlns="http://www.w3.org/2000/svg" xmlns:xlink="http://www.w3.org/1999/xlink" x="0px" y="0px" viewBox="0 0 1242 2208"
	 style="enable-background:new 0 0 1242 2208;" xml:space="preserve">
<style type="text/css">
	.st0{display:none;}
	.st1{fill:#775F3B;}
	.st2{fill:#62391B;}
	.st3{fill:#D96F6F;stroke:#D96F6F;stroke-miterlimit:10;}
	.st4{fill:none;}
	.st5{fill:#62381A;}
</style>
<metadata>
	<sfw  xmlns="&ns_sfw;">
		<slices></slices>
		<sliceSourceBounds  bottomLeftOrigin="true" height="1688.6" width="1178" x="-136.5" y="38.2"></sliceSourceBounds>
	</sfw>
</metadata>
<g id="Fondo" class="st0">
</g>
<g id="mapa">
</g>
<g id="sello_onda">
</g>
<g id="sello_ciculo">
</g>
<g id="mapa_1_">
</g>
<g id="brujula">
</g>
<g id="onda_sola_grande">
	<g id="_x35_">
		<g>
			<path class="st1" d="M-20.7,1949.9c0.6,0.7,1.4,1.1,2.3,1.6c8.8-3.5,17.4-7.4,25.9-11.7c0.2-0.6,0.3-1.1,0.3-1.6l-2.5-2.1
				c1.9,0.4,2.5,1.1,2.5,2.1l1.1,0.9c0.6-0.3,1.2-0.6,1.7-0.9c1.6-3,2.5-5.1,7.5-7.6c0.2,1.5,0.9,2.3,2,2.6
				c69.5-37.5,134.4-91.4,216.3-67.5c8.4-4.4-0.7-3.5,9.5-6.4c-107-26.1-180.3,53.3-266.4,88.2c0.4,0.2,0.8,0.7,1.4,1.4
				L-20.7,1949.9z"/>
			<path class="st1" d="M-135.9,1957.6c-2.8,2,5.1,1.7,9.3,2.2c2.4,0.7,4.8,1.3,7.2,1.8c0-0.2,0.1-0.4,0.1-0.6
				C-124.8,1960.2-130.3,1959.1-135.9,1957.6z"/>
			<path class="st1" d="M-69.6,1964.1c0.1,0.2,0.1,0.4,0.2,0.6c16.4-1.7,32.3-6,47.7-11.8c-0.7-0.3-1.5-0.6-2.3-0.8
				c1.3-0.8,1.6-2.8,2.1-3.9c-6.5,2.6-13,4.9-19.6,6.9c0.2,1.2-1.1,1-2.5,0.7c-5.6,1.6-11.3,3-17,4.1l2.1,2.9l-4.3-2.4
				c-1.2,0.2-2.4,0.4-3.6,0.6c0.6,0.7,1.2,1.4,1.7,2C-66,1963.5-68.3,1963.5-69.6,1964.1z"/>
			<path class="st1" d="M-69.6,1964.1c-0.4-0.9-0.9-1.7-1.6-2.5c-6.8,0.9-13.7,1.4-20.8,1.5c-0.2,0.2-0.5,0.4-0.7,0.6l2.9,1.8
				c6.6,0.2,13,0,19.4-0.7C-70.3,1964.4-70,1964.2-69.6,1964.1z"/>
			<path class="st1" d="M-125.4,2009.2c2.3,0.6,4.7,1.1,7,1.6C-113.6,2007.7-116.4,2007.6-125.4,2009.2z"/>
			<path class="st1" d="M117.5,1934.4c41.4-19.5,85.6-31.4,137.6-18.8c-5.3-1.5,3.4-3.7-6.6-3.7c-41.7-12.5-79.3-4.1-115.8,12.3
				l0.4,1.1l-2.5,1.5l0.2-1.8c-5.2,2.4-10.3,4.9-15.5,7.5C116.5,1932.9,117.3,1933.3,117.5,1934.4z"/>
			<path class="st1" d="M49.9,1971.5c4.2-2.4,8.4-4.9,12.6-7.3c-0.3-0.5-0.6-0.9-0.9-1.3c-4.3,2.5-8.5,4.9-12.8,7.4
				C49.2,1970.5,49.6,1970.9,49.9,1971.5z"/>
			<path class="st1" d="M114.6,1935.7c-0.6-0.3-0.9-1.2-1-2.3c-16.1,8.3-32.1,17.8-48.2,27.2c-0.2,0.8-0.3,1.5-0.5,2.1
				C81.3,1953.3,97.8,1943.9,114.6,1935.7z"/>
			<path class="st1" d="M-18.7,2004.6c1.2-0.8,3.3-2.4,5.4-3.1c-0.2-0.3-0.3-0.5-0.5-0.8c-3.6,1.3-7.2,2.6-10.8,3.8
				c1.3,0.4,2.5,1.4,3.6,2.2c1.3-0.5,2.7-1,4-1.5C-17.2,2004.9-17.7,2004.7-18.7,2004.6z"/>
			<path class="st1" d="M-118.4,2010.8c-1.1,0.7-2.6,1.6-4.5,2.6c16.4,4.3,32,5.7,47.1,5c1.4-1.4,2.7-2.9,3.8-4.5
				C-86.8,2014.9-102.3,2014.1-118.4,2010.8z"/>
			<path class="st1" d="M37.5,1976.6c0,0.4,0.3,0.8,1.2,1.3c1.8-1,3.7-2.1,5.5-3.1c-0.4-0.4-0.8-0.8-1.2-1.2
				C41.1,1974.6,39.3,1975.6,37.5,1976.6z"/>
			<path class="st1" d="M-70.6,2013.8c-0.4,1.3-0.8,2.5-1.5,3.4c0.6,0.3,1.2,0.6,1.7,0.9c3.1-0.3,6.2-0.6,9.3-1
				c0.8-1.3,1.4-2.9,2-4.5C-62.9,2013.1-66.7,2013.5-70.6,2013.8z"/>
			<path class="st1" d="M-8.5,1998.7c-0.9,0.3-1.7,0.7-2.6,1c0.2,0.5,0.5,1.1,0.8,1.6c0.5,0.1,0.9,0.3,1.3,0.6
				c0.7-0.3,1.4-0.6,2-0.9C-7.2,2000.2-7.7,1999.3-8.5,1998.7z"/>
			<path class="st1" d="M-27.5,2005.4c-0.8,0.3-1.6,0.5-2.4,0.8c-0.3,1.2-0.5,2.4-0.7,3.6c0.1,0.1,0.3,0.1,0.4,0.1
				c1.6-0.5,3.1-1,4.7-1.5c0.4-0.3,0.7-0.7,0.9-1.2L-27.5,2005.4z"/>
			<path class="st1" d="M-2.4,1997.1c-1.8,0.7-2.5,1.9-2.6,3.2c1-0.4,2-0.9,3-1.3c0.4-0.5,0.7-1,1-1.6
				C-1.4,1997.2-1.9,1997.1-2.4,1997.1z"/>
			<path class="st1" d="M108.9,1997.1l0.8,0.3c15.6-8.8,31.1-16.9,47-23.2c0-0.1-0.1-0.2-0.1-0.2c0.1,0.1,0.2,0.1,0.2,0.2
				c29-11.5,59-16.9,91.9-9.7c-0.1-0.9,0.4-2.1,2-3.5c0.3,0.9,0.3,4.1,2.3,4.1c0.9-1.5,0.2-3.3-0.2-4.9
				c-37.6-7.4-71.2-0.1-103.4,13.4c-0.8,1.5-2,2.4-4.3,1.8c-0.2,0.1-0.5,0.2-0.7,0.3c0,0.1,0.1,0.2,0.1,0.3l-0.1-0.3
				c-12.1,5.3-23.9,11.5-35.7,18.1c0.1,0,0.1,0,0.2,0C109.4,1995.7,109.4,1995.7,108.9,1997.1z"/>
			<path class="st1" d="M67.4,2022c0-0.2-0.1-0.4-0.1-0.6c-0.2-1.1-0.4-2.3-0.6-3.5c-15.2,8.7-30.5,17.2-46.2,24.5l2.3,3.3
				C38.1,2038.7,52.9,2030.5,67.4,2022z"/>
			<path class="st1" d="M-10.8,2054.9c-2.1,0.7-4.1,1.3-6.2,1.9c0.8,0.5,1,1.2-0.5,2.7c-4.7-1-7.7,1.1-9.8,3.7
				c7.3-1.7,14.5-3.7,21.6-6.1c-1.5,0.4-3.3,0.3-5.8-0.2C-11.2,2056.3-11,2055.6-10.8,2054.9z"/>
			<path class="st1" d="M76,2017c-0.3-1.2-0.5-2.4,0.9-3.2c0,0.9,0.2,1.7,0.3,2.5c10.2-6,20.4-12.1,30.5-17.8l-2.4-0.2
				c0.5-1.3,0.8-2.4,1.2-3.2c-12.2,6.8-24.3,14-36.6,21.1c0.8,1.1,1.7,2.2,2.7,2.9C73.7,2018.3,74.9,2017.7,76,2017z"/>
			<path class="st1" d="M3.1,2054.1c3.8-1.4,7.5-3,11.3-4.6c-1.3-0.2-2.3-1-2.6-3.1c-3.7,1.6-7.4,3.1-11.1,4.5
				c-0.1,0.2-0.3,0.4-0.4,0.7L3.1,2054.1z"/>
			<path class="st1" d="M18.1,2043.6c-0.6,0.3-1.2,0.5-1.8,0.8C17,2044.4,17.7,2044.2,18.1,2043.6z"/>
			<path class="st1" d="M-4.5,2056.8c1.5-0.5,3-1,4.5-1.6c0.2-1.1,0.4-2.3,0-3.4C-1.4,2054.1-2.5,2055.9-4.5,2056.8z"/>
			<path class="st1" d="M254,1962.3l-0.9,3.3c2.4,0.6,4.9,1.3,7.4,2c3.5-1.8-1.8-2.4,3.8-4.8c-1.9-0.5-3.8-1-5.7-1.4
				c-0.1,0.5-0.2,1-0.4,1.5C256.8,1964.8,256.3,1963.1,254,1962.3z"/>
			<path class="st1" d="M2.5,2109.3c-0.5-0.9-0.9-1.8-1.4-2.7c-3.8,1.2-7.7,2.2-11.5,3.2l-2,3.8C-7.3,2112.4-2.4,2110.9,2.5,2109.3z
				"/>
			<path class="st1" d="M155.6,2030.6c36.9-16.5,76.7-25.9,123.5-16.4c-1.1-0.4-1.6-1,0.2-2c-44-12.7-82.9-3.4-120.3,13.9
				C158.2,2027.5,156.9,2029,155.6,2030.6z"/>
			<path class="st1" d="M6.9,2107.8c51-18,96-53.2,146-76c-0.3-0.8-0.6-1.6-0.9-2.5c-41.2,20.1-80.8,48.7-123.9,67.3
				c-0.9,0.9-2,1.3-3.2,1.4c-5.3,2.2-10.7,4.3-16.2,6.2c0,0.1,0,0.3,0,0.4C7.6,2105.1,7.1,2106.4,6.9,2107.8z"/>
			<path class="st1" d="M-32,2117.5c0.5-0.1,1-0.2,1.5-0.2c2.5-1.7,5.8-2.7,8-4.9c-4.6,0.8-9.3,1.4-14.1,1.9
				C-35.2,2115.7-33.6,2116.8-32,2117.5z"/>
			<path class="st1" d="M281.1,2014.6c0.7,0.1,1.3,0.3,2,0.4C283.3,2014.8,282.3,2014.8,281.1,2014.6z"/>
			<path class="st1" d="M279,2014.2c0.6,0.2,1.4,0.3,2.1,0.4C280.4,2014.4,279.7,2014.3,279,2014.2z"/>
			<path class="st1" d="M285.5,2064.7c1.3,0.6,7.1,1.7,14.5,1.2c-8.8-2-17.3-3.3-25.7-4.1C278,2062.6,281.7,2063.5,285.5,2064.7z"/>
			<path class="st1" d="M-58.1,2167.1c0.6-1.2,1.2-2,2-2.4c-1.6-0.2-3.2-0.4-4.8-0.7C-60.3,2165.7-59.6,2167.2-58.1,2167.1z"/>
			<path class="st1" d="M200.6,2065.8c-29.6,8.9-58.2,25.1-87,41.9c-0.8,1.9-2.9,3.8-2.6,5.2c28.2-16.3,56.7-32.4,87.5-42.2
				C199.6,2069.3,200.8,2067.7,200.6,2065.8z"/>
			<path class="st1" d="M200.7,2065.8l1.2,3.8c22.6-6.8,46.5-10.3,72.4-7.9C248.8,2056.1,224.5,2058.6,200.7,2065.8z"/>
			<path class="st1" d="M-80,2160.8c-4.7,1.9,3,0.6-2.1,4.3c1.4,0.3,2.7,0.6,4.1,0.9C-78.4,2163.7-79,2161.7-80,2160.8z"/>
			<path class="st1" d="M-20.4,2164.9c1.6,1.1,7.1-2,8.7,2.2c44.1-7.8,83.1-31.2,122.6-54.1l-2.4-2.3
				C67,2135,25.1,2159.7-20.4,2164.9z"/>
			<path class="st1" d="M-44.2,2166.8c2.2-0.6,4.4-1.8,3.7,2.4c0.2,0.3,0.5,0.4,0.7,0.6c0.7,0,1.3,0,2,0c0.7-0.8,1.1-2.4,1.5-3.9
				c-3.7,0-7.4-0.1-11.1-0.3C-46.9,2167.2-45.6,2167.1-44.2,2166.8z"/>
			<path class="st1" d="M-69.1,2164.8c-1.8-2.1-2.7,0-3.5,2.2c1.6,0.3,3.2,0.6,4.8,0.8C-68.1,2166.6-68.5,2165.6-69.1,2164.8z"/>
		</g>
	</g>
</g>
<g>
	<g>
		<g>
			<path class="st2" d="M626.1,692.3c-3.4,0-6.5-1.9-8.2-4.9l-54.7-105.8c-9.9-21.7-8.4-46.8,3.9-67.1c12.1-19.9,32.2-32,55.1-33.2
				l0,0c2.5-0.1,5.1-0.1,7.7,0c22.9,1.2,43,13.2,55.1,33.2c12.4,20.4,13.9,45.4,4,66.9l-54.8,106
				C632.6,690.4,629.5,692.3,626.1,692.3L626.1,692.3z M622.6,488.6c-20.5,1-38.4,11.9-49.2,29.7c-11.1,18.3-12.5,40.8-3.6,60.2
				L624.4,684c0.5,0.9,1.4,1,1.7,1c0.4,0,1.3-0.1,1.8-1.1l54.6-105.7c8.8-19.2,7.4-41.7-3.7-60c-10.8-17.8-28.8-28.6-49.2-29.7
				C627.3,488.4,624.9,488.4,622.6,488.6L622.6,488.6z"/>
		</g>
		<path class="st3" d="M645.5,530c-7-1.6-14.6,1.5-19.4,7.9c-4.8-6.4-12.4-9.6-19.4-7.9c-7.7,1.8-12.8,8.5-13,17.1
			c-0.4,24.2,31.7,44,32,44.1c0.1,0,0.2,0.1,0.4,0.1c0.1,0,0.2,0,0.4-0.1c0.3-0.1,32.4-20,32-44.1
			C658.3,538.5,653.2,531.8,645.5,530z"/>
	</g>
</g>
<g>
	<path class="st2" d="M461.9,828.2c0.4-1.1,0.7-1.9,1-2.5c1.9-3.2,5-7,9.4-11.3c12.8-13.2,27.9-23.3,45.4-30.1
		c11.1-4.2,21.7-6.3,31.7-6.3c19,0,34.9,4.8,47.8,14.3c11,8.2,17.3,19.7,18.9,34.7c0.2,1.6,0.3,3.9,0.3,7c0,8.4-1.4,17.8-4.3,27.9
		c-3.9,13.6-10.5,28.1-19.5,43.5c-7.6,12.8-17.3,26.2-29,40c-4,4.9-10.6,11.8-19.5,20.8c-8,7.9-16.4,15.2-25.2,21.9
		c-14.7,11.4-29.2,20.1-43.6,26.3c-9.4,3.9-17.8,6.2-25.3,7c-2.6,0.3-5.1,0.4-7.6,0.4c-5.4,0-10-0.8-13.9-2.3
		c-12.4-5.1-18.6-15-18.6-29.4c0-5,0.7-9.5,2.2-13.6c1-2.6,1.8-4.3,2.3-5.1c0.9-1.6,2-2.3,3.3-2.3c0.6,0,1.1,0.1,1.8,0.4
		c2.1,0.7,3.5,2.4,4.1,5c0.9,4,1.6,7.1,1.9,9.1c0.3,1.5,0.6,3.4,1,5.9l0.8,5.8c0.1,0.9,0.3,2,0.6,3.4c0.3,1.3,0.6,2.4,0.8,3.1
		l0.3,1.4c-0.5,0.3-0.8,0.4-1.1,0.4c-0.3,0-0.6-0.1-0.8-0.4c-1.5-1.7-2.4-3.9-2.9-6.9c-0.6-2.7-1.4-7.5-2.6-14.6
		c-0.4-1.7-0.9-3.7-1.5-6.1c-0.1-0.3-0.2-0.5-0.3-0.7c-0.1-0.2-0.2-0.4-0.3-0.6c-0.7,0.1-1.2,0.4-1.4,0.9c-0.2,0.5-0.3,0.8-0.3,0.9
		c-1.9,5.2-2.9,10.4-2.9,15.4c0,4.8,0.9,9.2,2.8,13.2c2.8,6.8,7.5,10.9,14,12.2c2.6,0.6,5.5,1,8.7,1c1.1,0,2.7-0.1,4.7-0.3
		c6.8-0.6,13.9-2.4,21.5-5.4c10.5-4.1,21.2-9.8,32.1-16.9c10.9-7.2,21.2-15.1,31-23.9c3.4-3,8.3-7.8,14.9-14.3
		c6.3-6.1,13.3-13.9,20.8-23.3c8.4-10.5,16.1-21.6,23.1-33.3c5.2-8.7,9.8-17.7,13.6-26.8c6.3-15.5,9.5-29.9,9.5-43.1
		c0-6.4-0.8-12.2-2.5-17.2c-2.4-7.9-7.1-14.3-14-19.3c-6.8-4.8-14.9-8.3-24.2-10.5c-6.7-1.6-13.3-2.3-19.7-2.3
		c-5.8,0-11.5,0.6-17.1,1.8c-7.3,1.6-15.1,4.2-23.3,7.8c-7.8,3.7-15,7.9-21.6,12.7c-8.4,5.8-16.3,12.8-23.5,21.1c-1,1.2-2,2.5-3,3.9
		L461.9,828.2z M445.5,950.2c2.8-13.4,5.3-24.3,7.6-32.8c2.4-9.2,5.7-20.2,9.9-33c4.3-12.9,9-25.3,14.2-37.2
		c2.3-5.3,4.3-9.7,5.9-13.3c1.7-3.5,3.4-7,5.4-10.4c1.3-2.1,3.3-5.3,6.1-9.5c0.6-1,1.3-1.7,1.9-2.1c0.4-0.4,1-0.4,1.8-0.1
		c0.5,0.2,0.7,0.5,0.7,0.8s0,0.5-0.1,0.7c-0.2,0.5-0.4,1-0.8,1.7c-0.3,0.7-0.8,1.5-1.3,2.4c-3,5.7-6,12-8.8,18.9l-4.3,10.5
		c-3.4,8.3-5.5,13.5-6.2,15.6c-3.2,8.4-6.3,17.2-9.2,26.3c-3.3,9.8-6.6,21.2-9.9,34.3c-4.1,15.3-7.2,31.3-9.4,47.9
		c-0.2,1.3-0.3,2.3-0.3,3c0,0.9,0.1,1.8,0.4,2.6c0.3,0.9,0.1,2.2-0.4,3.7c-0.2,0.7-0.7,1.3-1.7,1.7l-1.1,0.3c-0.8,0-1.6-0.3-2.2-0.8
		s-1.1-1.1-1.2-1.9c-0.2-0.9-0.3-1.6-0.3-2.1l0.1-1.4c0.1-0.9,0.2-2.5,0.3-4.7c0.1-2.2,0.3-4.2,0.6-6.1
		C443.7,962.7,444.4,957.7,445.5,950.2z"/>
	<path class="st2" d="M647.3,932.1c0.9,0,1.7,0.4,2.3,1.1c0,0.6,0,0.9-0.1,1c-1.7,1.7-4.3,3.7-7.7,5.9c-3.1,2-5.4,3.7-6.9,5.1
		c-1.4,1.2-5.3,5-11.8,11.3l-5.9,5.6c-2.5,2.4-5.8,5.1-10,8.1c-2.8,1.7-5.6,2.6-8.3,2.6c-2.3,0-4.4-0.7-6.4-2.1
		c-2-1.4-3.2-3.2-3.6-5.4c-0.7-2.9-1.1-5.6-1.1-8c0-2.9,0.3-5.7,0.8-8.3c0.6-2.6,1.4-6.3,2.6-11.1l0.7-2.1c0.2-0.5,0.3-1.2,0.4-2.3
		c0.1-1.1,0.3-1.9,0.5-2.5s0.7-1.1,1.4-1.4l1.8-3.2l1.7-3.2c0.6-1.3,1.8-3.2,3.4-5.8c1.7-2.3,3.1-4.1,4.4-5.4
		c1.1-1.1,2.4-2.2,3.9-3.4s2.6-2.1,3.2-2.6c0.6-0.5,1.6-1,2.9-1.5c1.3-0.4,2.3-0.6,3-0.6c2.3,0,4.2,0.8,5.8,2.3s2.4,3.5,2.4,6
		c0,1.7-0.3,3.2-0.8,4.4c-3.2,8.3-8,14.6-14.4,19.1c-3.7,2.7-6.9,4-9.8,4c-1,0-2-0.1-2.9-0.4h-0.4l-1.4,0.1
		c-1.9,6.1-2.9,12.2-2.9,18.3c0,2.1,0,3.7,0.1,4.7c0.2,1.8,0.6,3.3,1.1,4.3c0.7,1.7,1.6,2.5,2.6,2.5c0.3,0,0.8-0.2,1.5-0.6
		c2.9-1.5,5.1-2.8,6.5-4l8.7-7.4c2.3-2.1,4.6-4.1,6.9-6.1c6.1-5.2,12.1-10.4,17.9-15.4c1.4-1,3.3-2.1,5.8-3.3
		C646.1,932.2,646.8,932.1,647.3,932.1z M598.4,935.4c0,0.4,0.2,0.8,0.7,1.2c3.9-0.3,7.5-2,10.6-5.1c4.4-4.3,8.3-9.4,11.6-15.4
		c0.8-1.4,1.4-2.8,1.7-4.3c0.1-0.6,0.1-1.2,0.1-1.7s-0.1-1-0.1-1.4c-0.8-0.3-1.6-0.4-2.3-0.4c-1,0-1.9,0.3-2.6,0.8
		c-3.4,2.2-5.5,3.6-6.2,4.3c-2.9,2.5-5.4,5.4-7.4,8.9c-2,3.4-3.9,7.5-5.7,12.2C598.5,934.8,598.4,935.1,598.4,935.4z"/>
	<path class="st2" d="M701.9,936.3c-0.8,0.2-1.3,0.2-1.4,0.1c-1.1-0.6-2.2-0.8-3.3-0.8c-1,0-2,0.1-2.9,0.4
		c-5.7,1.5-9.8,2.8-12.4,4.1c-2.6,1.2-4.2,2.6-5,4s-1.4,3.5-2,6.3c-0.6,3-1.4,5.8-2.1,8.2c-0.8,2.4-2.2,5.3-4.2,8.6
		c-6.8,11-14,20.4-21.7,28.1c-3.6,3.6-6.9,6.3-10,8.1c-1.3,0.7-3.3,1.7-6.1,2.8c-0.6,0.3-1.3,0.4-1.9,0.4c-0.6,0-1.5-0.2-2.6-0.6
		c-1.8-0.6-3.1-1.4-3.9-2.2c-0.7-0.8-1.1-2-1.1-3.6c0-3.3,0.9-6.8,2.6-10.6c3.4-7.2,8.1-13.9,14-20.4c7.2-7.9,16.8-15.2,28.8-22
		l3.2-1.8c0-1.3,0-2.2-0.1-2.8c-0.3-1.9-1.3-3.2-3-3.7c-3.2-1.1-6.2-1.7-9.1-1.8l-6.6-0.3c-2.8-0.2-5-1.2-6.7-3.2
		c-0.7-0.9-1.1-1.7-1.1-2.3c0-0.7,0.3-1.5,1-2.2c1.3-1.7,2.5-2.9,3.7-3.9c6.2-5,11.9-8.7,17.1-11.3c0.3-0.1,1-0.5,2.2-1.1
		s2.4-1,3.7-1c1.6,0,2.6,0.6,3,1.8c-7.5,4.7-13,8.3-16.3,10.9c-3.4,2.6-5.9,5.1-7.8,7.6c0.2,0.6,0.7,0.8,1.7,0.8s3.8,0.2,8.4,0.7
		c3.7,0.4,6.3,0.8,8,1.3s3.5,1.8,5.5,3.8l1,0.7l2.5-1c3.1-1.4,6.7-2.8,10.9-4.1c1.6-0.6,3.9-1.1,7-1.7c1.1-0.2,2.1-0.1,3.1,0.3
		c1,0.4,2.1,1,3.4,1.8C701.2,934.9,701.5,935.4,701.9,936.3z M667.1,955.6c0.6-1.2,1-2.6,1.2-4.1c-2.5,1-6.4,3.5-11.7,7.4
		s-9.3,7.2-11.8,9.8c-5,5-9,9.9-12.2,14.9c-2.1,3.3-4,7.6-5.6,12.9c-0.2,0.7-0.3,1.6-0.3,2.6s0,1.7,0,1.9s0.1,0.6,0.4,1.1
		c0.3,0.5,0.5,0.9,0.7,1.2c0.6-0.4,1.2-0.7,2-1.1c0.8-0.4,1.4-0.7,1.9-1c1.3-0.9,3.1-2.4,5.5-4.4c3.3-2.8,7.2-7.2,11.8-12.9
		c3.9-4.9,7.2-9.4,10-13.5s5.2-8.4,7.2-12.8C666.2,957.5,666.5,956.8,667.1,955.6z"/>
	<path class="st2" d="M796.3,859c0.5,0.6,0.9,1.7,1.2,3.3c-1.1,0-1.9,0-2.3-0.1c-9.5-1.9-18.7-2.9-27.5-3
		c-14.1-0.2-24.7-0.3-31.8-0.3l-5.2,0.1c-0.2,0.5-0.4,0.9-0.7,1.3c-0.3,0.4-0.5,0.8-0.7,1.3c-2.4,5.7-5.8,14.3-10.2,25.9l-1,2.6
		c-6.2,16.2-11.1,30.5-14.6,42.8c-3.9,13.4-6.7,23.5-8.4,30.3c-1.6,5.9-3.1,12.2-4.5,19.1c-0.2,0.8-0.4,2.1-0.5,3.7
		c-0.1,0.5-0.1,1.2-0.1,2.2c0,1.5,0.3,2.6,1,3.4c-0.6,1-1.5,1.5-2.5,1.5c-0.5,0-1.2-0.2-2.3-0.6c-1.4-0.5-2.2-1.5-2.3-3.2l-0.1-1.5
		c0-0.6,0.1-1.3,0.3-2.2c0.3-1.3,0.7-3.7,1.4-7.3c0.7-3.9,1.4-7,1.9-9.2l1.2-5.2c2.9-11.5,5.4-20.6,7.3-27.5
		c4.9-16.8,9.9-31.6,15.1-44.4l4.4-11c2.3-6.1,4.8-12.3,7.4-18.6c0.2-0.5,0.5-1.5,1-3c-0.6-0.4-1.6-0.6-2.9-0.6
		c-3.6,0-8.9,0.1-16.1,0.3c-7.3,0.2-12.8,0.3-16.4,0.3c-0.6,0-1.6-0.1-2.9-0.3c-1-0.1-1.7-0.8-2.1-2.2c1.7-0.6,3.9-1.1,6.7-1.4
		c2.8-0.3,7.7-0.6,14.4-0.9l21.3-0.8c0.8-0.6,1.5-1.5,1.9-2.6c0.5-1.1,0.7-1.8,0.8-2.1c2.8-6.8,6.5-13.9,11.1-21.5
		c0.9-1.5,1.7-2.5,2.2-3c0.3-0.3,0.7-0.4,1.2-0.4c1,0,1.3,0.6,1,1.8l-0.7,1.9l-5.4,12.7l-3.3,7.4l-1.8,4.7c0.3,0.7,0.8,1.1,1.5,1.1
		c3.2,0,5.6,0,7.3-0.1c1.2,0,2.7,0,4.5-0.1c1.8,0,3.9,0,6.3,0.1l6.7,0.1c9.9,0.2,17.3,0.6,22.2,1.2c3.6,0.5,7.7,1.3,12.2,2.6
		C795,858,795.8,858.4,796.3,859z"/>
	<path class="st2" d="M725.2,924.7c0.2,0.3,0.3,0.8,0.1,1.6c-0.3,1.6-1,4.3-2.2,8.1c-1.4,4.6-2.6,9.2-3.6,14
		c-1.1,4.7-2.3,10.5-3.6,17.4c-0.1,0.5-0.1,1.2-0.1,2.2l0.1,4.7c-0.6,0.4-1.3,0.6-1.9,0.6c-0.7,0-1.4-0.3-2.1-0.8
		c-1.4-1.1-2-2.2-1.9-3.4c0.4-3.6,0.7-6.4,1-8.4c2.1-13.6,5.2-24.9,9.2-33.9c0.1-0.3,0.3-0.8,0.6-1.6s0.9-1.4,1.7-1.9
		c0.2,0.1,0.4,0.1,0.6,0.1c0.2,0,0.5,0.1,0.9,0.3C724.5,924,725,924.4,725.2,924.7z M730.8,912c0,0.7-0.3,1.3-0.8,1.7
		s-1.1,0.5-1.7,0.3c-1.4-0.6-2.3-1.5-2.9-2.9c-0.3-0.6-0.4-1.1-0.4-1.5c0-0.7,0.4-1.6,1.1-2.5c1.2,0.2,2.3,0.8,3.4,1.9
		C730.4,909.9,730.8,910.9,730.8,912z"/>
	<path class="st2" d="M773.3,975.8c1.3,0,2.2,0.4,2.8,1.2c-1,1.5-2.5,2.1-4.4,1.8c-5-0.8-8.2-3.1-9.5-6.7c-0.5-1.4-1-3.5-1.5-6.5
		c-0.5-2.9-0.7-5.5-0.7-7.7c0-3.9,0.5-8.2,1.4-12.9c0.6-3.6,1.8-8.9,3.4-16.1c0.6-1.8,0.9-3.4,1.1-4.8c0.1-0.6,0.1-1.2,0.1-1.7
		s-0.1-0.9-0.1-1.2c-0.9,0-1.6,0-1.9,0.1c-3.7,1.8-6.9,4.3-9.8,7.4c-5,5.9-9.5,12.3-13.2,19.3c-3.2,6.1-5.9,12.6-8,19.5
		c-0.4,1.5-1.1,2.2-2.2,2.2c-0.6,0-1.1-0.2-1.8-0.6c-1.3-0.6-1.9-1.4-1.9-2.2c0-0.6,0.1-1.2,0.3-1.7c0.4-1.4,0.9-3,1.5-4.8
		s1.1-3.2,1.4-4l1.9-5.6c2.8-8,5-14.3,6.9-19c0.4-1,0.7-1.9,1.1-2.6c0.4-0.7,0.7-1.4,1-1.9c1.3-2.5,2.2-4.7,2.8-6.7
		c0.3-1.1,0.9-1.7,1.9-1.7c0.2,0.6,0.3,1,0.3,1.2c0,0.6-0.2,1.4-0.6,2.5c-0.9,3.1-1.7,5.5-2.2,7l-0.4,3.3c0.3-0.4,0.7-0.8,1.2-1.3
		s0.8-0.9,1-1.3c2.5-3.7,6-7.2,10.6-10.7c1.2-0.9,2.8-1.9,4.7-2.9c0.8-0.4,1.7-0.6,2.8-0.6c1.5,0,3,0.6,4.5,1.7
		c2.8,2.2,4.1,5,3.7,8.3c-0.4,3.5-0.7,6.1-1.1,8c-1.7,7.2-2.8,13.2-3.3,17.8c-0.3,2.3-0.4,4.6-0.4,7c0,3.7,0.3,7.1,1,10.2
		c0.3,1.6,0.7,3,1.2,4.3c0.3,0.8,0.7,1.5,1.4,1.9c0.6,0.5,1.4,0.6,2.3,0.6L773.3,975.8L773.3,975.8z"/>
	<path class="st2" d="M842.6,935c0,0.2-0.1,0.4-0.2,0.5c-0.2,0.2-0.6,0.3-1.2,0.3c-0.3,0-0.5-0.1-0.7-0.3l-1-0.8
		c-2.4-2.4-5.2-3.7-8.5-4c-0.9-0.1-2.6-0.2-5.1-0.4s-4.8-0.3-6.9-0.3c0.1,0.3,0.1,0.6,0.1,1.1s0,0.8,0.1,1.1c1.2,3,1.8,6.1,1.8,9.2
		c0,4.8-1.5,10-4.5,15.6c-3.4,6.1-7.1,10.7-11,13.6c-2.4,1.7-4.5,3.1-6.5,4c-2.2,1-4.3,1.5-6.2,1.5c-3.3,0-6.2-1.1-8.7-3.3
		s-4.1-5.1-4.7-8.7c-0.2-0.8-0.3-2.2-0.3-4c0-5.9,1.6-12.5,4.7-20c1.9-4.6,3.7-8.4,5.4-11.4s3.6-5.7,5.9-8.2c2-2.2,3.8-3.8,5.4-4.7
		c0.7-0.5,1.3-0.7,1.8-0.7c0.6,0,1.1,0.3,1.5,1c0.6,0.8,1.3,1.5,2.3,2s1.6,0.9,2,1.2c0.7,0.5,3,2.1,6.9,5l10.6,1
		c2.5,0.2,4.5,0.5,6.2,1c5.2,1.6,8.9,4.3,10.9,8.1C842.6,934.6,842.6,934.8,842.6,935z M815.3,938.3c0-1.4-0.1-2.8-0.4-4.1
		c0-0.2-0.1-0.8-0.3-1.7c-0.2-1-0.6-1.9-1.4-2.7c-2.4,0-4.2,0-5.4-0.1c-2.4-0.2-4.4-0.6-6.1-1.1c-1.7-0.6-3.2-1.6-4.6-3
		c-1,1.2-1.6,1.9-1.7,2.1c-2.2,3.7-4.1,7.5-5.8,11.6c-2.4,5.7-4,11.7-4.8,18.2c-0.2,1.8-0.3,3.3-0.3,4.3c0,2.1,0.3,4.1,1,6.1
		c0.9,2.8,2.4,4.3,4.4,4.3c0.7,0,1.7-0.2,2.9-0.7c0.9-0.4,1.6-0.7,1.9-1c0.6-0.5,1.6-1.1,3-2.1c1.3-0.9,2.5-1.8,3.4-2.6
		c4.4-4.1,8-9,10.9-14.7C814.2,946.6,815.3,942.4,815.3,938.3z M806.9,924.1L806.9,924.1h-0.2H806.9z"/>
</g>
<g id="texto2">
</g>
<g>
	<g>
		<g>
			<path class="st2" d="M325.6,1530.5c3.8-21.6,26.6-32.1,45.2-34.3c1.7-0.3,3.5-0.4,5.5-0.4c10.6-12.9,24.7-17.2,31.1-18.2
				c16.4-2.5,25.1,6.9,16.1,13.3c-6.4,4.5-26.5,5-41.7,5.9c-8.4,10.5-11.9,21.4-10.5,28.6c2,9.7,8.4,12.3,24.5,5.9
				c12.3-4.9,24.1-22.4,28.2-29.4c0.6-1.3,1-2,1-2c1.8-1.1,3.4,0.4,2.8,6.3c0,0-9.7,26.2-19.9,47.8c5.3,0.8,10.6,1.8,19.1,2.5
				c16.8,1.4,25.5-1.3,35.4-5c-9.8,4.5-20.3,9.2-53.1,3.6c-0.6-0.1-1.3-0.3-2-0.4c-4.3,9.2-9,17.5-12.9,22.6
				c-9.1,11.3-20.3,14.1-28.7,13.4c-14.4-1.1-14.8-14-10.6-21c6.2-10.6,22.3-16.5,37-16.9c4.1-0.1,7.6,0,10.6,0.4
				c1.5-3.5,2.8-7.1,4.3-10.9c5.2-13.4,9.8-24,12.9-31c-5.9,9.1-15.5,18.9-27.3,22.8c-27.5,9.1-30-15.5-21-31.2
				c1.1-2,2.4-3.8,3.8-5.6C348.9,1499.2,331.9,1511.1,325.6,1530.5z M364.4,1562.1c-14.1,9.1-13.2,25.9,0.6,27.3
				c17.8,1.7,27.7-13.6,37-35.3C385,1552.6,373.4,1556.5,364.4,1562.1z M387.1,1490.8c-1.5,1.4-2.8,2.9-4.2,4.5
				c13-0.8,28.9-1.4,34.9-3.4c13.9-4.3,6.3-12.9-2-13.2C404.2,1478.2,394.4,1483.7,387.1,1490.8z"/>
			<path class="st2" d="M438,1516.7c4.5-0.1,8.3,2.7,8.3,9.9c0,2.1-0.4,5.2-1.3,8c1.4-0.6,2.9-1.5,4.5-2.8c6-4.9,7.6-9.9,10.6-9.5
				c-3.4,2.5-6.2,8.5-12,12c-1.1,0.7-2.4,1.1-3.6,1.7c-2.2,6.7-6.6,13.7-11.6,13.4c-7.1-0.3-7.7-9.7-4.3-16.2
				c0.4-0.8,0.8-1.7,1.1-2.4C425.6,1523,432.4,1516.9,438,1516.7z M433.2,1534.7c-1.1,1.8-1.8,3.6-2.4,5.5c-1.3,5,1.1,10.5,5.6,6.6
				c2.1-2,4.5-5.9,6.3-10.5C439.5,1537.1,436,1536.6,433.2,1534.7z M436.4,1522.5c2.8-0.4,3.1,2.2,2.8,3.8c0,0.1-2.9,3.2-5.3,7.4
				c2.4,1.8,5.7,2.5,9.4,1.7c2.1-6,2.8-12.9-0.8-15.7c-4.8-4.1-10.6,0.6-11.5,4.1c-0.4,2-0.4,3.8,0,5.5
				C433.5,1524.9,435.6,1522.5,436.4,1522.5z"/>
			<path class="st2" d="M460.2,1516.7c4.5-0.1,8.3,2.7,8.3,9.9c0,2.1-0.4,5.2-1.3,8c1.4-0.6,2.9-1.5,4.5-2.8c6-4.9,7.6-9.9,10.6-9.5
				c-3.4,2.5-6.2,8.5-12,12c-1.1,0.7-2.4,1.1-3.6,1.7c-2.2,6.7-6.6,13.7-11.6,13.4c-7.1-0.3-7.7-9.7-4.3-16.2
				c0.4-0.8,0.8-1.7,1.1-2.4C447.9,1523,454.6,1516.9,460.2,1516.7z M455.5,1534.7c-1.1,1.8-1.8,3.6-2.4,5.5
				c-1.3,5,1.1,10.5,5.6,6.6c2.1-2,4.5-5.9,6.3-10.5C461.6,1537.1,458.1,1536.6,455.5,1534.7z M458.7,1522.5
				c2.8-0.4,3.1,2.2,2.8,3.8c0,0.1-2.9,3.2-5.3,7.4c2.4,1.8,5.7,2.5,9.4,1.7c2.1-6,2.8-12.9-0.8-15.7c-4.8-4.1-10.6,0.6-11.5,4.1
				c-0.4,2-0.4,3.8,0,5.5C455.8,1524.9,457.9,1522.5,458.7,1522.5z"/>
			<path class="st2" d="M483.9,1540.7c3.9-1.1,7.1-1,9.5,0.3c9.8-6.2,15.4-10.5,19.9-18.6c-1,6.6-8.8,13-18.6,19.3
				c4.3,2.9,5.3,9.5,4.3,14.7c-2,9.7-7.7,17.8-18.2,24.5c-8,5-18.6,6.2-22.8,3.4c-10.6-7.4,4.5-23.8,16-31.1
				c7-4.5,12.9-8.3,17.7-11.2c-1.8-0.7-3.9-1-6.9-0.4c-4.8,1.1-8.1,2.5-8.1,2.5S479.6,1541.8,483.9,1540.7z M474.8,1554.3
				c-24.5,16.2-24.1,36.1-4.1,27c22.7-10.6,25.8-26.5,24.8-33.3c-0.4-1.8-1.1-3.8-2.8-5C487.1,1546.6,480.8,1550.2,474.8,1554.3z
				 M493.7,1520.9c0.4,0.4,1.1,0.8,1.4,1.7c1.8,5.2-4.3,13.2-11.6,17.1c-6.6,3.6-11.1,2.1-12-3.5c-1.7-9.1,9.1-16.2,13.9-17.5
				c2.1-0.6,3.8-0.7,5.2-0.7C493.7,1518.4,494.6,1520.1,493.7,1520.9z M479.7,1527.5c-5.2,5.6-6.4,12.5-2.2,12.2
				c4.3-0.4,9-3.5,13-8.5c3.2-4.1,3.1-8.3,2.1-9.9C490.8,1521.2,485,1522.3,479.7,1527.5z"/>
			<path class="st2" d="M507.3,1550.9c-0.4,2.9,0.1,5.2,2.8,1.5c8-11.2,17.7-26.5,25.9-30c-5.6,5.2-12.9,13.4-18.6,22
				c-8,11.8-9.1,12.5-11.3,11.3c-4.2-2.1-2.1-14.3,0.4-22.6c3.1-9.9,11.2-29.7,20.2-42.9c4.3-6.3,8.3-11.3,12.2-13.9
				c3.1-2.1,6.9-2.9,9.1,0.1c4.5,6.7-20.7,35.6-28.3,42.4c-1.4,1.3-2.4,2.2-3.2,2.8C509.6,1536.9,507.9,1545.5,507.3,1550.9z
				 M520.5,1512.1c-1.1,2.5-2.4,5-3.4,7.3c3.9-4.1,11.3-11.9,15.5-17.4c9.9-12.6,12.9-18.9,13.6-21.7c1.8-7.1-5.5,0.4-7.6,2.5
				C535.5,1486.6,528.9,1494.9,520.5,1512.1z"/>
			<path class="st2" d="M531,1532.7c-1.7,8,2.7,10.9,7.1,9.1c7.6-2.9,14.7-19.5,20-19.3c-5.2,4.8-5.6,6.3-9.2,10.9
				c-4.6,5.9-9.7,11.3-15.4,10.6c-7.7-0.8-8.5-10.5-6.6-14.8c2-4.6,6-9.9,12.6-10.5c5.2-0.4,7.4,4.6,2.2,9.1
				c-3.1,2.5-7.6,3.8-10.6,4.3C531.1,1532,531,1532.4,531,1532.7z M535.3,1529.6c8.3-2.8,9.8-9.1,5.3-8c0,0-6.7,0.8-9.2,9.1
				C532.5,1530.5,533.9,1530.2,535.3,1529.6z"/>
			<path class="st2" d="M597.7,1526.8c0.1,2.1-2.4,7-2.8,8c0.4,0,1.1-1.4,3.4-4.2c2.8-3.5,5.9-5.9,8.1-5.6c3.2,1.1,3.5,3.8,2.1,6.9
				c-1.3,3.1-2.8,9.1,0.4,5.2c2.4-2.9,12.9-16.7,17.1-18.6c3.5-1.7,7.6,1,5.2,7.6c-0.7,2.5-3.1,6.7-7,12.9
				c-5.9,8.8-5.9,17.7,0.4,12.5c9.9-8,14-29.3,23.4-28.9c-7.7,3.5-10.6,13.4-14,19.1c-6.3,10.9-11.6,14.4-15.4,11.8
				c-3.8-2.7-4.8-7.3-0.3-14.7c6.3-10.2,11.5-22.6,6.7-18.6c-6.6,5.6-14.1,16.5-16.2,18.6c-1.8,1.8-3.6,1.8-5,0.4
				c-1.1-1.1-1.8-3.8,0.7-9.9c2.2-5.5-0.7-2.8-3.1-0.7c-4.3,3.9-10.1,15.3-11.5,17.4c-2.2,3.5-5.3-1-4.1-4.5
				c0.3-0.6,7.6-16.7,6.6-18.5C593.9,1521.9,597.5,1521.8,597.7,1526.8z"/>
			<path class="st2" d="M660,1546.6c5.9-8.5,13-23.3,17.9-24.4c-5.2,5.9-6.4,8.5-9.4,13.2c-5.6,9.1-8.7,15.3-12,14.7
				c-3.6-0.6-7-5.3-3.2-15.7c0.1-0.4,0.4-0.8,0.4-1.1c-4.2,5.2-8.3,9.9-12.2,5.6c-3.9-4.5-0.1-12.6,3.5-16c2.7-2.5,7.7-4.5,13-3.2
				c5.9,1.5,1.4,1.5,1.4,1.5s-7.6-1.7-13,7c-3.9,6.4-1.8,12.3,1.4,9.2c1.8-1.7,5.5-6.4,8.5-10.2c1.5-2.5,3.1-5.3,4.6-5.3
				c1.5-0.1,5.2,0.4,2,4.6C653.8,1538.6,653.7,1555.7,660,1546.6z"/>
			<path class="st2" d="M635.8,1586.8c-1-13.4,23.8-35.6,27.9-39.2c1.5-1.4,2.8-2.5,3.8-3.1c1.8-5.9,2.9-10.2,3.5-11.5
				c3.2-9.5,5.2-10.8,6.6-10.4c1.8,0.8,1.7,2.8,0.6,5.9c3.2-3.9,7.6-8,13.3-8c7-0.3,9.1,6.6,6.7,14.6c5.3-1.8,10.6-4.9,15.4-12.3
				c-2.5,8.1-9,11.2-15.8,13.4c-0.8,2.4-2.1,5-3.8,7.4c-7.6,10.6-17.1,9.2-18.2,5.9c-1-2.9,1-5.6,4.1-7.7c4.3-2.8,9-3.8,13.4-5.2
				c2.4-6.3,2.9-13.9-1.5-14.3c-5.9-0.6-11.1,4.6-14.7,9.5c-1.7,4.2-4.1,9.8-5.9,16.2c-3.5,12-8.5,26.5-14.7,36
				C648.1,1596.5,636.5,1596.2,635.8,1586.8z M660.7,1552.5c-8.5,8-14.3,14.6-19.3,23.1c-5.5,9.2-4.5,16.9,0.4,16.4
				c10.6-1,20-28.4,25.2-45.7C665.6,1547.6,663.6,1549.5,660.7,1552.5z M680.6,1542.2c-3.6,2.4-4.5,5.3-3.6,6.7
				c2.1,3.5,8.7-0.7,13-7c1-1.1,1.8-2.7,2.4-4.3C688.4,1539,684.2,1540.1,680.6,1542.2z"/>
			<path class="st2" d="M715.6,1523.3c-0.4,1.4-0.4,3.5,1,5.9c1.8,3.1,3.8,5.9,4.5,8.3c10.2-5,12.7-8,17.8-14.7
				c-2.2,6.9-9.4,12-17.7,15.8c1.5,4.8,1.3,8.7-1.8,13.4c-5.2,8.3-16.2,10.9-19.9,6.6c-4.9-6,2.8-12.9,14.1-17.8
				c1.7-0.7,2.9-1.4,4.3-2c-0.4-2-1.1-3.8-2.4-5.9c-4.9-7.7-4.1-8.5-3.9-10.4c0.3-3.2,4.1-6.6,4.1-6.6c2.2-1.7,2.8,1.7,2.4,3.5
				C717.2,1520.2,716,1521.8,715.6,1523.3z M717,1540c-9.5,4.1-17.8,9.5-17.1,14.7c0.4,3.5,3.5,4.6,7.4,2.5
				c3.8-2.1,12.2-9,11.3-17.8C718,1539.9,717.4,1539.9,717,1540z"/>
			<path class="st2" d="M769.3,1550.9c-0.4,2.9,0.1,5.2,2.8,1.5c8-11.2,17.7-26.5,25.9-30c-5.6,5.2-12.9,13.4-18.6,22
				c-8,11.8-9.1,12.5-11.3,11.3c-4.2-2.1-2.1-14.3,0.4-22.6c3.1-9.9,11.2-29.7,20.2-42.9c4.3-6.3,8.3-11.3,12.2-13.9
				c3.1-2.1,6.9-2.9,9.1,0.1c4.5,6.7-20.7,35.6-28.3,42.4c-1.4,1.3-2.4,2.2-3.2,2.8C771.8,1536.9,770,1545.5,769.3,1550.9z
				 M782.7,1512.1c-1.1,2.5-2.4,5-3.4,7.3c3.9-4.1,11.3-11.9,15.5-17.4c9.9-12.6,12.9-18.9,13.6-21.7c1.8-7.1-5.5,0.4-7.6,2.5
				C797.6,1486.6,791.1,1494.9,782.7,1512.1z"/>
			<path class="st2" d="M804.8,1534.4c-4.6,6.2-8.4,10.1-12.3,9c-6.3-2-1-17.8,3.5-20.9c2-1,3.1,0.1,2.8,1.7
				c-0.4,2.5-3.1,6.3-4.3,10.8c-0.8,3.4-1.8,7.3,0.7,6.9c3.1-0.4,9.1-9.2,13-14.3c3.4-4.2,4.3-5.3,6.6-5.3
				C811.6,1524,809,1528.8,804.8,1534.4z M799.8,1518.3c-1.1-0.4-1.3-1.1-0.4-2.8c1-2,0.4-2.4,2-3.2c1.1-0.6,4.8-0.3,3.5,2.4
				C803.7,1517.2,801.2,1518.6,799.8,1518.3z"/>
			<path class="st2" d="M818.1,1525.7c0.1,3.4-1,5-2.8,9c4.3-6,14.1-16,21-17.8c3.8-1,5.6,2.5,5.2,5.2c-0.4,3.9-11.9,19.5-13.3,25.2
				c-2,8.5,3.2,5.7,4.9,4.5c4.9-3.6,14.1-20.2,18.2-25.1c5.2-5.9,7-3.9,7-3.9c-8.1,2-17.8,28-26.9,31.5c-2.7,1.1-6.7,0.4-8-3.8
				c-2.4-8.5,13.2-28.4,13.7-31.4c0.4-3.4-9.4,2.7-16.2,10.6c-4.6,5.3-7.1,9.5-9.2,12.7c-0.4,0.7-2.8,0.7-3.8-1
				c-0.4-0.7-1.7-2.4,2.1-10.1c4.2-8.5,2.4-8.3,2.4-8.3C813.5,1521.6,818.1,1522.5,818.1,1525.7z"/>
			<path class="st2" d="M895.6,1479.2c-1,12.2-27.3,37.1-36,44c-2.1,3.8-2.4,5.9-3.9,10.1c1.5-2.8,10.9-14.3,18.5-12.9
				c7,1.4,4.3,9.2-1.1,12.3c-3.8,2.1-10.8,4.6-11.1,5.5c7.7,3.4,1.8,12.6,5.2,16.2c5.9,3.8,15.4-25.6,27.3-32.1
				c-1.3,1.1-2.4,3.1-4.2,5.2c-8.5,9.5-12.9,21.4-17.8,26.5c-2.4,2.4-5.2,2.1-6.4,1.3c-8-4.5-0.6-15.1-5.9-16.2
				c-1.1-0.3-2.1-2.1-0.8-3.5c2-2.1,8.8-4.1,13.4-7.6c7.7-5.5,1.7-9.2-5.9-3.9c-9.7,6.7-11.3,12.9-14.6,22.6c-4.3,0-4.2-3.6-3.5-7.6
				c0.3-1,9.9-30.5,19.3-44.5c9.1-14.7,17.2-18.9,19.1-19.6C892.1,1473.3,895.9,1475.7,895.6,1479.2z M888.9,1478.6
				c-12.3,8-23.4,29.1-28.7,42.2c13.2-10.9,32.5-32.9,33.6-40.2C894.5,1477.4,892,1476.7,888.9,1478.6z"/>
		</g>
	</g>
</g>
<g>
	<g>
		<g>
			<path class="st2" d="M586.1,1849.6v0.8c-2.2-1.1-4.1-2.4-5.5-3.9c-2.1-2.1-3.8-4.6-4.9-7.6s-1.7-5.9-1.7-9
				c0-4.5,1.1-8.7,3.4-12.5c2.2-3.8,5.2-6.4,8.7-8v1c-1.8,1-3.2,2.4-4.3,4.1s-2.1,3.9-2.5,6.6c-0.6,2.7-0.8,5.3-0.8,8.3
				c0,3.2,0.3,6,0.7,8.5c0.4,2.1,0.8,3.6,1.4,4.9c0.4,1.3,1.3,2.4,2.2,3.5C583.4,1847.5,584.7,1848.6,586.1,1849.6z"/>
			<path class="st2" d="M606.1,1833.2c-0.4,2.7-1.5,4.8-3.2,6c-1.5,1.4-3.2,2.2-5.2,2.2c-2.4,0-4.2-1-6-2.9c-1.7-2-2.5-4.5-2.5-7.8
				c0-3.2,1-5.7,2.8-7.7s4.2-2.9,6.9-2.9c2,0,3.6,0.4,4.9,1.5c1.3,1.1,2,2.2,2,3.2c0,0.6-0.1,1-0.4,1.4c-0.4,0.4-0.8,0.4-1.4,0.4
				c-0.8,0-1.4-0.3-2-0.8c-0.3-0.4-0.4-0.8-0.4-1.7c-0.1-0.8-0.4-1.5-0.8-2s-1.3-0.6-2.1-0.6c-1.4,0-2.7,0.4-3.5,1.5
				c-1.3,1.4-1.8,3.2-1.8,5.7c0,2.4,0.6,4.5,1.7,6.3c1.3,1.8,2.8,2.8,4.8,2.8c1.4,0,2.7-0.4,3.9-1.4c0.8-0.7,1.5-2,2.4-3.6
				L606.1,1833.2z"/>
			<path class="st2" d="M616.5,1809.7v26.6c0,1.3,0.1,2.1,0.3,2.5c0.1,0.4,0.4,0.7,0.8,1c0.4,0.3,1.1,0.4,2.1,0.4v0.7h-9.8v-0.7
				c1,0,1.5-0.1,2-0.3c0.4-0.3,0.6-0.4,0.7-1c0.1-0.6,0.3-1.4,0.3-2.5v-18.2c0-2.4,0-3.6-0.1-4.1c-0.1-0.4-0.3-0.8-0.4-1.1
				c-0.3-0.3-0.4-0.3-0.8-0.3c-0.4,0-0.8,0.1-1.4,0.4l-0.4-0.7l6-2.4h1.1L616.5,1809.7L616.5,1809.7z"/>
			<path class="st2" d="M629.5,1820.2v16.2c0,1.3,0.1,2.1,0.3,2.5c0.1,0.4,0.4,0.7,0.8,1s1,0.4,2,0.4v0.7h-9.8v-0.7
				c1,0,1.5-0.1,2-0.3c0.4-0.3,0.6-0.4,0.7-1c0.3-0.4,0.3-1.4,0.3-2.5v-7.8c0-2.2-0.1-3.5-0.3-4.2c-0.1-0.4-0.3-0.8-0.4-1
				c-0.3-0.1-0.4-0.3-0.8-0.3s-0.8,0.1-1.4,0.4l-0.4-0.7l6-2.4h1.1L629.5,1820.2L629.5,1820.2z M627.7,1809.7c0.6,0,1.1,0.3,1.5,0.6
				c0.4,0.4,0.6,1,0.6,1.5c0,0.6-0.3,1.1-0.6,1.5c-0.4,0.4-1,0.6-1.5,0.6c-0.6,0-1.1-0.3-1.5-0.6c-0.4-0.4-0.6-1-0.6-1.5
				c0-0.6,0.3-1.1,0.6-1.5C626.4,1809.9,627.1,1809.7,627.7,1809.7z"/>
			<path class="st2" d="M652.6,1833.2c-0.4,2.7-1.5,4.8-3.2,6c-1.5,1.4-3.2,2.2-5.2,2.2c-2.4,0-4.2-1-6-2.9c-1.7-2-2.5-4.5-2.5-7.8
				c0-3.2,1-5.7,2.8-7.7s4.2-2.9,6.9-2.9c2,0,3.6,0.4,4.9,1.5c1.3,1.1,2,2.2,2,3.2c0,0.6-0.1,1-0.4,1.4c-0.4,0.4-0.8,0.4-1.4,0.4
				c-0.8,0-1.4-0.3-2-0.8c-0.3-0.4-0.4-0.8-0.4-1.7c-0.1-0.8-0.4-1.5-0.8-2s-1.3-0.6-2.1-0.6c-1.4,0-2.7,0.4-3.5,1.5
				c-1.3,1.4-1.8,3.2-1.8,5.7c0,2.4,0.6,4.5,1.7,6.3c1.3,1.8,2.8,2.8,4.8,2.8c1.4,0,2.7-0.4,3.9-1.4c0.8-0.7,1.5-2,2.4-3.6
				L652.6,1833.2z"/>
			<path class="st2" d="M654.7,1810.5v-1c2.2,1.1,4.1,2.4,5.6,3.9c2.1,2.1,3.6,4.6,4.9,7.6c1.1,2.9,1.7,5.9,1.7,9
				c0,4.5-1.1,8.7-3.2,12.5c-2.2,3.8-5.2,6.4-8.7,8v-0.8c1.8-1,3.2-2.4,4.3-4.1c1.3-1.7,2.1-3.9,2.5-6.6c0.6-2.7,0.8-5.5,0.8-8.3
				c0-3.2-0.3-6-0.7-8.5c-0.4-2.1-0.8-3.6-1.4-4.9c-0.4-1.3-1.3-2.4-2.2-3.5C657.3,1812.7,656.2,1811.6,654.7,1810.5z"/>
		</g>
	</g>
	<a xlink:href="https://goo.gl/maps/5HJENCnUHTQBiwh86"  pointer-events="all" target="_blank">
		<rect x="521.7" y="1610.2" class="st4" width="203" height="252.1"/>
		<path class="st2" d="M708.5,1652.2c-12.7-28.9-51.3-36.1-73.7-14c-1,0.8-1.8,1.3-3.1,1.3c-22.4,0-44.8,0-67.2,0
			c-12.2,0-21.6,9.4-21.6,21.6c0,37.5,0,74.8,0,112.3c0,1.4,0.1,3.1,0.4,4.5c2.4,10.5,10.6,17.1,21.4,17.1c18.6,0,37.1,0,55.8,0
			s37.1,0,55.8,0c2.4,0,5-0.4,7.3-1.1c9.1-3.1,14.7-10.9,14.7-20.6c0-21.6,0-43.1,0-64.6c0-1,0.4-2,0.8-2.8
			c2.2-3.5,4.5-6.9,6.6-10.6C713.6,1681.2,715.1,1666.9,708.5,1652.2z M638,1707.1c10.5,14.3,19.5,29.7,23.7,47.6
			c-12-12-24-24-35.7-35.6C629.9,1715.1,633.9,1711.2,638,1707.1z M554.2,1779.3c-0.4,0.4-0.7,0.8-1.4,1.3c-0.1-0.8-0.1-1.1-0.1-1.7
			c0-40.5,0-81,0-121.7c0-5,3.2-8.3,8.1-8.3c22,0,44.3,0,66.3,0c0.4,0,0.7,0,0.8,0c-1,3.9-2.2,7.7-2.8,11.6c-2.1,12,0.6,23.5,6.3,34
			c0.6,1,0.8,2.1,1.7,2.8c1.3,1.5,0.7,2.5-0.6,3.9C606.2,1727.3,580.3,1753.3,554.2,1779.3z M559.8,1786.4
			c20-20,40.2-40.2,60.4-60.2c19.8,19.8,39.9,39.9,60.2,60.2C640,1786.4,599.6,1786.4,559.8,1786.4z M689.1,1775.6
			c0,1.7-0.6,3.4-1,4.9c-8.3-8.3-16.2-16.2-24.2-24.2c0.8-0.1,1.7-0.1,2.7-0.3c6.2-1.1,9.2-5.2,10.5-10.9
			c2.2-9.8,5.7-19.2,10.4-28.2c0.3-0.7,0.7-1.4,1.3-2.2c0.1,0.8,0.3,1.3,0.3,1.7C689.3,1736,689.3,1755.7,689.1,1775.6z
			 M696.8,1685.3c-3.1,5.6-6.6,10.8-10.1,16.1c-7.7,11.2-14.3,23-19.3,35.6c-0.1,0.4-0.4,0.7-0.6,1.3c-1.7-3.8-3.2-7.3-4.8-10.8
			c-5.2-11.3-12-21.6-19.1-31.8c-3.8-5.5-7.1-11.2-9.1-17.7c-5.7-19.1,7-39.9,26.8-43.3c18.2-3.2,34.9,7.4,39.6,25.4
			C702.4,1668.7,701.2,1677.3,696.8,1685.3z"/>
		<path class="st2" d="M600.3,1666.6c-1.7,1.7-3.2,3.2-5,4.9c-7.4-4.9-13.2-5.2-18.5-1c-4.9,3.8-6.7,10.1-4.6,16
			c2,5.6,7.6,9.4,13.4,9.2c4.9-0.1,10.5-3.2,11.5-7c-3.9,0-7.7,0-11.6,0c0-2.4,0-4.6,0-7c7,0,13.9,0,20.9,0
			c1.8,5.9-4.8,16.1-12.5,19.3c-9.9,4.3-21.7,0.4-27-9.1s-2.5-21.4,6.4-27.7C582.5,1658.1,594.3,1660.3,600.3,1666.6z"/>
		<path class="st2" d="M656.2,1671c0-5.9,4.8-10.6,10.6-10.5c5.9,0,10.5,4.8,10.5,10.6s-4.8,10.6-10.6,10.6
			C660.8,1681.8,656.1,1677,656.2,1671z"/>
	</a>
</g>
<g>
	<path class="st5" d="M271.1,1111.1l-7.4,24.8h8.2c3.7,0,6.4-0.6,8.2-1.7c1.8-1.1,3.7-3.6,5.7-7.3h1.7l-6.5,22.7h-1.8
		c0.5-1.8,0.7-3.3,0.7-4.5c0-1.9-0.6-3.3-1.9-4.3s-3.6-1.5-7-1.5h-8.3l-5.4,18.8c-1,3.4-1.5,5.6-1.5,6.7c0,1.1,0.4,2,1.3,2.6
		c0.9,0.6,2.9,1,6.2,1.2l-0.6,1.7h-24.6l0.6-1.7c2.4,0,4-0.2,4.8-0.6c1.2-0.5,2.1-1.2,2.7-2.1c0.8-1.3,1.8-3.8,3-7.8l11-37.6
		c0.9-3,1.4-5.4,1.4-7.1c0-0.8-0.2-1.5-0.6-2c-0.4-0.6-1-1-1.8-1.3c-0.8-0.3-2.3-0.4-4.7-0.4l0.5-1.7h48.4l-4.6,15.8h-1.8
		c0.3-1.9,0.5-3.5,0.5-4.7c0-2-0.6-3.6-1.7-4.8c-1.1-1.2-2.6-2-4.3-2.5c-1.2-0.3-4-0.5-8.2-0.5H271.1z"/>
	<path class="st5" d="M319.7,1128.6l-9.1,32.3c-0.6,2.2-0.9,3.5-0.9,3.9c0,0.5,0.1,0.9,0.4,1.2c0.3,0.3,0.6,0.5,1,0.5
		c0.5,0,1-0.2,1.7-0.7c1.8-1.4,3.5-3.3,5.3-5.9l1.6,1.1c-2.1,3.2-4.6,5.9-7.4,8.1c-2.1,1.6-4,2.4-5.9,2.4c-1.3,0-2.3-0.4-3.1-1.1
		c-0.8-0.7-1.2-1.7-1.2-2.8s0.4-3,1.1-5.7l6-20.6c1-3.4,1.4-5.5,1.4-6.3c0-0.6-0.2-1.2-0.7-1.6c-0.5-0.4-1.1-0.7-1.9-0.7
		c-0.7,0-2.1,0.2-4.2,0.5v-1.8L319.7,1128.6z M319.1,1110.3c1.3,0,2.4,0.4,3.3,1.3c0.9,0.9,1.3,2,1.3,3.2c0,1.3-0.4,2.3-1.3,3.3
		c-0.9,0.9-2,1.4-3.2,1.4s-2.3-0.5-3.3-1.4c-0.9-0.9-1.4-2-1.4-3.3c0-1.3,0.4-2.3,1.3-3.2C316.7,1110.8,317.8,1110.3,319.1,1110.3z"
		/>
	<path class="st5" d="M345,1128.6l-6.1,21c5.7-8.6,10.1-14.2,13.2-16.9c3.1-2.7,6-4.1,8.8-4.1c1.5,0,2.8,0.5,3.8,1.5
		c1,1,1.5,2.3,1.5,3.9c0,1.9-0.4,4.3-1.3,7.4l-5.6,19.4c-0.6,2.2-1,3.6-1,4.1c0,0.4,0.1,0.8,0.4,1.1c0.2,0.3,0.5,0.4,0.8,0.4
		c0.3,0,0.8-0.2,1.3-0.6c1.6-1.3,3.4-3.3,5.4-5.9l1.4,0.9c-2.9,4.1-5.6,7-8.1,8.7c-1.8,1.2-3.4,1.8-4.8,1.8c-1.1,0-2-0.3-2.7-1
		c-0.7-0.7-1-1.6-1-2.7c0-1.5,0.5-4,1.5-7.6l5.4-18.5c0.6-2.3,1-4.1,1-5.4c0-0.6-0.2-1.1-0.6-1.5c-0.4-0.4-0.9-0.6-1.5-0.6
		c-0.8,0-1.9,0.4-3.1,1.1c-2.2,1.4-4.6,3.6-7.1,6.8c-2.5,3.2-5.1,7.2-7.8,12.1c-1.4,2.6-2.6,5.5-3.6,8.6l-2.3,7.6H326l8.4-28.8
		c1-3.5,1.5-5.5,1.5-6.2c0-0.7-0.3-1.3-0.8-1.8c-0.6-0.5-1.2-0.8-2-0.8c-0.4,0-1,0.1-1.9,0.2l-1.8,0.2l-0.3-1.7L345,1128.6z"/>
	<path class="st5" d="M407.7,1160.3c-3.2,3.8-6.4,6.6-9.7,8.4c-3.3,1.8-6.7,2.7-10.3,2.7c-4.3,0-7.7-1.2-10.2-3.7
		c-2.4-2.4-3.7-5.7-3.7-9.9c0-4.7,1.3-9.3,3.9-13.9c2.6-4.6,6.2-8.3,10.6-11.1c4.4-2.8,8.8-4.3,13-4.3c3.4,0,5.9,0.7,7.5,2.1
		c1.7,1.4,2.5,3.1,2.5,5.1c0,1.9-0.6,3.5-1.8,4.9c-0.8,1.1-1.9,1.6-3.1,1.6c-1,0-1.7-0.3-2.4-0.9c-0.6-0.6-0.9-1.4-0.9-2.3
		c0-0.6,0.1-1.1,0.3-1.6c0.2-0.5,0.7-1.1,1.4-1.8c0.7-0.7,1.2-1.2,1.3-1.5c0.2-0.3,0.2-0.6,0.2-1c0-0.6-0.3-1.2-0.9-1.6
		c-0.9-0.6-2.2-0.9-3.8-0.9c-3,0-6,1.1-8.9,3.2c-3,2.1-5.5,5.1-7.6,9c-2.5,4.7-3.8,9.5-3.8,14.2c0,3.1,0.9,5.6,2.7,7.4
		c1.8,1.8,4.2,2.7,7.3,2.7c2.4,0,4.7-0.6,7-1.8c2.3-1.2,4.9-3.3,7.8-6.4L407.7,1160.3z"/>
	<path class="st5" d="M457.4,1128.6l-9,31.2l-1,4.2c-0.1,0.4-0.1,0.7-0.1,1c0,0.5,0.2,0.9,0.5,1.3c0.2,0.3,0.5,0.4,0.9,0.4
		c0.4,0,0.9-0.2,1.5-0.7c1.2-0.9,2.8-2.7,4.8-5.5l1.5,1.1c-2.1,3.2-4.3,5.6-6.5,7.3c-2.2,1.7-4.3,2.5-6.2,2.5c-1.3,0-2.3-0.3-2.9-1
		c-0.7-0.6-1-1.6-1-2.9c0-1.5,0.3-3.5,1-5.9l1-3.5c-4,5.3-7.7,8.9-11.1,11c-2.4,1.5-4.8,2.2-7.1,2.2c-2.2,0-4.2-0.9-5.8-2.8
		c-1.6-1.8-2.4-4.4-2.4-7.6c0-4.9,1.5-10,4.4-15.5c2.9-5.4,6.6-9.8,11.2-13c3.5-2.6,6.8-3.9,9.9-3.9c1.9,0,3.5,0.5,4.7,1.5
		c1.2,1,2.2,2.6,2.8,4.9l1.7-5.3L457.4,1128.6z M441,1131c-1.9,0-4,0.9-6.2,2.8c-3.2,2.6-6,6.5-8.4,11.6c-2.4,5.1-3.7,9.8-3.7,13.9
		c0,2.1,0.5,3.7,1.6,4.9c1,1.2,2.3,1.8,3.6,1.8c3.3,0,6.9-2.5,10.9-7.4c5.3-6.6,7.9-13.3,7.9-20.2c0-2.6-0.5-4.5-1.5-5.7
		C444.1,1131.6,442.8,1131,441,1131z"/>
	<path class="st5" d="M513.7,1107.8l5.8,50.3l36.2-50.3h15.2v1.7c-3.3,0.2-5.3,0.4-5.8,0.6c-1,0.4-2,1.2-2.8,2.4
		c-0.8,1.2-1.8,3.5-2.7,6.9l-11.5,39.6c-0.7,2.3-1,4.1-1,5.4c0,1.2,0.4,2.1,1.3,2.7c1.2,0.9,3,1.3,5.5,1.3h1.1l-0.4,1.7h-26.3
		l0.5-1.7h1.3c2.3,0,4.1-0.3,5.3-1c1-0.5,1.8-1.4,2.6-2.8c0.8-1.4,1.8-4.4,3.1-9.1l10.3-36.2l-36.4,50.8H513l-5.9-50.8l-11.1,38.6
		c-1,3.3-1.4,5.5-1.4,6.6c0,1.1,0.4,2,1.2,2.6c0.8,0.6,2.8,1,6,1.2l-0.5,1.7h-20.6l0.5-1.7h1.3c3,0,5.2-0.8,6.6-2.3
		c1-1.1,2-3.5,3.1-7.2l13.6-46.5c-1-1.1-2-1.8-2.9-2.1c-0.9-0.4-2.6-0.7-5.1-0.9l0.5-1.7H513.7z"/>
	<path class="st5" d="M605.9,1143c0,4.6-1.2,9.2-3.7,13.7c-2.4,4.5-5.8,8.1-10.2,10.7c-4.3,2.6-8.6,3.9-12.7,3.9
		c-4.2,0-7.6-1.3-10.3-4c-2.7-2.7-4-6.1-4-10.4c0-4.5,1.3-9.1,3.9-13.6c2.6-4.5,6.1-8.1,10.4-10.8c4.3-2.6,8.5-4,12.6-4
		c4.1,0,7.4,1.3,10,4C604.6,1135.3,605.9,1138.8,605.9,1143z M598.3,1139.8c0-2.9-0.7-5.1-2.1-6.6c-1.4-1.5-3.2-2.3-5.4-2.3
		c-4.5,0-8.6,3.2-12.4,9.7c-3.8,6.5-5.7,12.9-5.7,19.3c0,2.9,0.7,5.1,2.2,6.7c1.5,1.6,3.3,2.4,5.5,2.4c4.3,0,8.4-3.2,12.2-9.6
		C596.4,1153,598.3,1146.5,598.3,1139.8z"/>
	<path class="st5" d="M630.3,1128.6l-6.1,21c5.7-8.6,10.1-14.2,13.2-16.9c3.1-2.7,6-4.1,8.8-4.1c1.5,0,2.8,0.5,3.8,1.5
		c1,1,1.5,2.3,1.5,3.9c0,1.9-0.4,4.3-1.3,7.4l-5.6,19.4c-0.6,2.2-1,3.6-1,4.1c0,0.4,0.1,0.8,0.4,1.1c0.2,0.3,0.5,0.4,0.8,0.4
		c0.3,0,0.8-0.2,1.3-0.6c1.6-1.3,3.4-3.3,5.4-5.9l1.4,0.9c-2.9,4.1-5.6,7-8.1,8.7c-1.8,1.2-3.4,1.8-4.8,1.8c-1.1,0-2-0.3-2.7-1
		c-0.7-0.7-1-1.6-1-2.7c0-1.5,0.5-4,1.5-7.6l5.4-18.5c0.6-2.3,1-4.1,1-5.4c0-0.6-0.2-1.1-0.6-1.5c-0.4-0.4-0.9-0.6-1.5-0.6
		c-0.8,0-1.9,0.4-3.1,1.1c-2.2,1.4-4.6,3.6-7.1,6.8c-2.5,3.2-5.1,7.2-7.8,12.1c-1.4,2.6-2.6,5.5-3.6,8.6l-2.3,7.6h-6.9l8.4-28.8
		c1-3.5,1.5-5.5,1.5-6.2c0-0.7-0.3-1.3-0.8-1.8c-0.6-0.5-1.2-0.8-2-0.8c-0.4,0-1,0.1-1.9,0.2l-1.8,0.2l-0.3-1.7L630.3,1128.6z"/>
	<path class="st5" d="M681,1117.2l-3.6,12.5h7.3l-0.8,2.9h-7.1l-7.9,27.1c-0.8,2.9-1.3,4.8-1.3,5.7c0,0.5,0.1,0.9,0.3,1.2
		c0.2,0.3,0.5,0.4,0.9,0.4c0.8,0,1.8-0.6,3-1.7c0.8-0.6,2.4-2.5,5-5.7l1.5,1.2c-2.8,4.1-5.5,7-8,8.7c-1.7,1.1-3.5,1.7-5.2,1.7
		c-1.3,0-2.4-0.4-3.3-1.3c-0.9-0.8-1.3-1.9-1.3-3.3c0-1.6,0.5-4.2,1.4-7.5l7.7-26.6h-7l0.5-1.8c3.4-0.9,6.2-2.3,8.4-4.1
		s4.7-5,7.5-9.5H681z"/>
	<path class="st5" d="M694,1152.9c-0.2,1.5-0.3,2.8-0.3,3.8c0,2.7,1,5.1,2.9,7c1.9,1.9,4.3,2.9,7.1,2.9c2.2,0,4.3-0.5,6.4-1.4
		c2-0.9,5.1-2.9,9.1-6l1,1.3c-7.3,7.2-14.2,10.8-20.8,10.8c-4.5,0-7.8-1.4-10.1-4.2c-2.3-2.8-3.4-5.9-3.4-9.3c0-4.6,1.4-9.3,4.2-14
		c2.8-4.8,6.4-8.5,10.6-11.2c4.3-2.7,8.6-4,13.2-4c3.2,0,5.6,0.7,7.2,2c1.6,1.3,2.3,2.9,2.3,4.7c0,2.6-1,5-3,7.3
		c-2.7,3.1-6.6,5.5-11.8,7.4C705,1151.2,700.2,1152.2,694,1152.9z M694.3,1150.7c4.5-0.5,8.2-1.4,11.1-2.7c3.8-1.7,6.6-3.7,8.5-6
		c1.9-2.3,2.8-4.6,2.8-6.7c0-1.3-0.4-2.3-1.2-3.1c-0.8-0.8-2-1.2-3.5-1.2c-3.1,0-6.4,1.7-9.9,5
		C698.6,1139.2,696,1144.1,694.3,1150.7z"/>
	<path class="st5" d="M758.8,1128.6l-2.8,14.2h-1.7c-0.2-4.1-1-7.1-2.6-9c-1.6-1.9-3.6-2.8-5.9-2.8c-1.9,0-3.4,0.5-4.5,1.5
		c-1.1,1-1.7,2.3-1.7,3.8c0,1,0.2,2,0.7,2.9c0.4,0.9,1.4,2.2,2.9,3.9c4,4.4,6.5,7.7,7.7,9.9c1.2,2.2,1.7,4.3,1.7,6.3
		c0,3.2-1.3,6-4,8.5c-2.6,2.5-6,3.7-10,3.7c-2.2,0-4.8-0.5-7.7-1.5c-1-0.4-1.8-0.6-2.3-0.6c-1.4,0-2.4,0.7-3.1,2.1h-1.7l2.8-14.9
		h1.7c0.2,4.7,1.1,8,2.9,9.9c1.8,1.9,4.2,2.9,7.2,2.9c2.3,0,4.2-0.6,5.5-1.9c1.4-1.3,2.1-2.9,2.1-4.8c0-1.2-0.2-2.4-0.7-3.4
		c-0.9-1.8-2.7-4.4-5.4-7.6c-2.7-3.3-4.5-5.7-5.3-7.3c-0.8-1.6-1.2-3.2-1.2-4.9c0-3,1.1-5.5,3.3-7.5c2.2-2.1,5-3.1,8.3-3.1
		c1,0,1.9,0.1,2.7,0.2c0.4,0.1,1.4,0.5,3,1.1c1.6,0.6,2.6,0.9,3.2,0.9c1.3,0,2.4-0.7,3.3-2.2H758.8z"/>
	<path class="st5" d="M806,1128.6l-15.1,52c-0.6,2.4-1,3.9-1,4.6s0.2,1.3,0.5,1.8c0.3,0.5,0.8,0.9,1.4,1.1c1,0.4,2.2,0.6,3.8,0.6
		l-0.5,1.7h-22l0.5-1.7c3-0.3,4.9-0.5,5.6-0.8c1.2-0.5,2.1-1.2,2.9-2.3c0.7-1,1.6-3.2,2.5-6.5l6.3-22.7c-4,5.9-7.8,10.1-11.3,12.5
		c-2.5,1.7-4.8,2.5-6.9,2.5c-3.1,0-5.4-1.2-7-3.7c-1.6-2.5-2.3-5.2-2.3-8.1c0-4.6,1.4-9.5,4.3-14.6c2.9-5.1,6.6-9.3,11.3-12.5
		c3.6-2.6,6.9-3.8,9.9-3.8c2.2,0,4,0.5,5.4,1.6c1.4,1.1,2.5,2.8,3.1,5.1l1.4-5.1L806,1128.6z M795.5,1137.6c0-1.9-0.6-3.5-1.8-4.8
		c-1.2-1.3-2.7-1.9-4.4-1.9c-3.7,0-7.7,3.2-11.8,9.7c-4.1,6.4-6.2,12.5-6.2,18.2c0,2.3,0.5,4,1.5,5.2c1,1.2,2.3,1.8,3.7,1.8
		c1.9,0,4-1,6.4-3.1c3.6-3.2,6.6-7.2,9-12.2C794.3,1145.5,795.5,1141.2,795.5,1137.6z"/>
	<path class="st5" d="M852.8,1129.7l-8,27.4c-1.2,4.1-1.8,6.7-1.8,7.7c0,0.5,0.1,0.9,0.3,1.2c0.2,0.3,0.5,0.4,0.8,0.4
		c0.5,0,1.1-0.2,1.7-0.7c0.6-0.5,2.2-2.4,4.7-5.7l1.4,1.1c-2.4,3.8-4.9,6.6-7.5,8.5c-1.7,1.1-3.3,1.7-4.9,1.7c-1.2,0-2.2-0.3-2.8-1
		c-0.7-0.7-1-1.5-1-2.6c0-1.1,0.2-2.5,0.6-4.2c0.5-2.2,1.9-7.2,4.2-14.8c-5.2,8.6-9.6,14.5-13.1,17.7c-3.5,3.2-6.8,4.9-9.8,4.9
		c-1.4,0-2.6-0.5-3.6-1.5c-1-1-1.5-2.2-1.5-3.7c0-2.3,0.7-5.8,2-10.6l4.1-14.2c1-3.4,1.4-5.5,1.4-6.3c0-0.3-0.1-0.6-0.4-0.9
		c-0.2-0.3-0.5-0.4-0.8-0.4c-0.6,0-1.3,0.2-1.9,0.7c-0.6,0.5-2.1,2.2-4.4,5.1l-1.4-1c2.3-3.6,4.8-6.2,7.3-7.9c2-1.3,3.8-2,5.4-2
		c1.1,0,2.1,0.4,2.8,1.1c0.7,0.7,1.1,1.7,1.1,2.8c0,1.7-0.6,4.6-1.8,8.9l-4.3,14.9c-1.2,4.1-1.8,6.7-1.8,7.7c0,0.6,0.2,1,0.6,1.4
		c0.4,0.4,0.9,0.5,1.5,0.5c1,0,2.3-0.5,3.9-1.5c1.6-1,3.8-3.3,6.5-6.7c2.7-3.5,4.9-6.8,6.7-9.8c1.8-3,3.6-7.9,5.6-14.6l1-3.5H852.8z
		"/>
	<path class="st5" d="M866.7,1152.9c-0.2,1.5-0.3,2.8-0.3,3.8c0,2.7,1,5.1,2.9,7c1.9,1.9,4.3,2.9,7.1,2.9c2.2,0,4.3-0.5,6.4-1.4
		c2-0.9,5.1-2.9,9.1-6l1,1.3c-7.3,7.2-14.2,10.8-20.8,10.8c-4.5,0-7.8-1.4-10.1-4.2c-2.3-2.8-3.4-5.9-3.4-9.3c0-4.6,1.4-9.3,4.2-14
		c2.8-4.8,6.4-8.5,10.6-11.2c4.3-2.7,8.6-4,13.2-4c3.2,0,5.6,0.7,7.2,2c1.6,1.3,2.3,2.9,2.3,4.7c0,2.6-1,5-3,7.3
		c-2.7,3.1-6.6,5.5-11.8,7.4C877.8,1151.2,873,1152.2,866.7,1152.9z M867.1,1150.7c4.5-0.5,8.2-1.4,11.1-2.7c3.8-1.7,6.6-3.7,8.5-6
		c1.9-2.3,2.8-4.6,2.8-6.7c0-1.3-0.4-2.3-1.2-3.1c-0.8-0.8-2-1.2-3.5-1.2c-3.1,0-6.4,1.7-9.9,5
		C871.4,1139.2,868.8,1144.1,867.1,1150.7z"/>
	<path class="st5" d="M919.1,1128.6l-9.1,32.3c-0.6,2.2-0.9,3.5-0.9,3.9c0,0.5,0.1,0.9,0.4,1.2c0.3,0.3,0.6,0.5,1,0.5
		c0.5,0,1-0.2,1.7-0.7c1.8-1.4,3.5-3.3,5.3-5.9l1.6,1.1c-2.1,3.2-4.6,5.9-7.4,8.1c-2.1,1.6-4,2.4-5.9,2.4c-1.3,0-2.3-0.4-3.1-1.1
		c-0.8-0.7-1.2-1.7-1.2-2.8s0.4-3,1.1-5.7l6-20.6c1-3.4,1.4-5.5,1.4-6.3c0-0.6-0.2-1.2-0.7-1.6c-0.5-0.4-1.1-0.7-1.9-0.7
		c-0.7,0-2.1,0.2-4.2,0.5v-1.8L919.1,1128.6z M918.5,1110.3c1.3,0,2.4,0.4,3.3,1.3c0.9,0.9,1.3,2,1.3,3.2c0,1.3-0.4,2.3-1.3,3.3
		c-0.9,0.9-2,1.4-3.2,1.4s-2.3-0.5-3.3-1.4c-0.9-0.9-1.4-2-1.4-3.3c0-1.3,0.4-2.3,1.3-3.2C916.1,1110.8,917.2,1110.3,918.5,1110.3z"
		/>
	<path class="st5" d="M928.5,1131.2l15.9-2.6l-6.6,22.4c5.4-9.2,10.3-15.6,14.6-19.3c2.5-2.1,4.5-3.1,6.1-3.1c1,0,1.8,0.3,2.4,0.9
		c0.6,0.6,0.9,1.5,0.9,2.6c0,2-0.5,3.9-1.5,5.8c-0.7,1.4-1.8,2.1-3.2,2.1c-0.7,0-1.3-0.2-1.8-0.7c-0.5-0.5-0.8-1.2-0.9-2.1
		c0-0.6-0.2-1-0.4-1.1c-0.3-0.2-0.6-0.3-0.9-0.3c-0.5,0-1,0.1-1.5,0.3c-0.8,0.4-2,1.6-3.7,3.6c-2.6,3-5.3,6.9-8.3,11.7
		c-1.3,2-2.4,4.3-3.3,6.9c-1.3,3.5-2,5.6-2.2,6.3l-1.5,5.8h-7l8.5-28.6c1-3.3,1.4-5.7,1.4-7.1c0-0.5-0.2-1-0.7-1.4
		c-0.6-0.5-1.4-0.7-2.4-0.7c-0.6,0-1.8,0.1-3.5,0.4L928.5,1131.2z"/>
	<path class="st5" d="M1003.8,1143c0,4.6-1.2,9.2-3.7,13.7c-2.4,4.5-5.8,8.1-10.2,10.7c-4.3,2.6-8.6,3.9-12.7,3.9
		c-4.2,0-7.6-1.3-10.3-4c-2.7-2.7-4-6.1-4-10.4c0-4.5,1.3-9.1,3.9-13.6c2.6-4.5,6.1-8.1,10.4-10.8c4.3-2.6,8.5-4,12.6-4
		c4.1,0,7.4,1.3,10,4C1002.5,1135.3,1003.8,1138.8,1003.8,1143z M996.2,1139.8c0-2.9-0.7-5.1-2.1-6.6c-1.4-1.5-3.2-2.3-5.4-2.3
		c-4.5,0-8.6,3.2-12.4,9.7c-3.8,6.5-5.7,12.9-5.7,19.3c0,2.9,0.7,5.1,2.2,6.7c1.5,1.6,3.3,2.4,5.5,2.4c4.3,0,8.4-3.2,12.2-9.6
		C994.3,1153,996.2,1146.5,996.2,1139.8z"/>
</g>
<g>
	<path class="st2" d="M203.2,1264.8c2.7-0.5,6.5-0.9,10.2-0.9c5.7,0,9.3,1,11.9,3.4c2.1,1.8,3.2,4.6,3.2,7.8c0,5.4-3.4,9-7.7,10.5
		v0.2c3.2,1.1,5.1,4,6,8.3c1.3,5.7,2.3,9.7,3.2,11.3h-5.5c-0.7-1.2-1.6-4.7-2.7-9.8c-1.2-5.7-3.4-7.8-8.2-8h-5v17.8h-5.3V1264.8z
		 M208.5,1283.6h5.4c5.7,0,9.3-3.1,9.3-7.8c0-5.3-3.8-7.6-9.5-7.7c-2.6,0-4.4,0.2-5.2,0.5V1283.6z"/>
	<path class="st2" d="M260.5,1297.4c0,3.1,0.1,5.7,0.2,8.1H256l-0.3-4.8h-0.1c-1.4,2.4-4.5,5.5-9.8,5.5c-4.6,0-10.2-2.6-10.2-12.9
		v-17.3h5.4v16.3c0,5.6,1.7,9.4,6.6,9.4c3.6,0,6.1-2.5,7.1-4.9c0.3-0.8,0.5-1.8,0.5-2.7v-18.1h5.4V1297.4z M256.8,1263.1l-7.4,8.7
		h-3.8l5.4-8.7H256.8z"/>
	<path class="st2" d="M285.8,1305.4l-0.4-3.7h-0.2c-1.6,2.3-4.8,4.4-9,4.4c-6,0-9-4.2-9-8.5c0-7.1,6.3-11,17.8-11v-0.6
		c0-2.4-0.7-6.8-6.7-6.8c-2.7,0-5.6,0.9-7.7,2.2l-1.2-3.5c2.4-1.6,6-2.6,9.7-2.6c9,0,11.2,6.2,11.2,12.1v11c0,2.6,0.1,5.1,0.5,7.1
		H285.8z M285,1290.3c-5.9-0.1-12.5,0.9-12.5,6.6c0,3.5,2.3,5.1,5.1,5.1c3.8,0,6.3-2.4,7.1-4.9c0.2-0.5,0.3-1.2,0.3-1.7V1290.3z"/>
	<path class="st2" d="M337.2,1262.1v35.7c0,2.6,0.1,5.6,0.2,7.6h-4.8l-0.2-5.1h-0.1c-1.6,3.3-5.2,5.8-10.1,5.8
		c-7.1,0-12.6-6-12.6-15c-0.1-9.8,6-15.9,13.2-15.9c4.5,0,7.6,2.1,8.9,4.5h0.1v-17.6H337.2z M331.9,1287.9c0-0.7-0.1-1.6-0.2-2.3
		c-0.8-3.4-3.7-6.2-7.7-6.2c-5.6,0-8.8,4.9-8.8,11.4c0,6,2.9,10.9,8.7,10.9c3.6,0,6.9-2.4,7.9-6.4c0.2-0.7,0.2-1.5,0.2-2.3V1287.9z"
		/>
	<path class="st2" d="M372.9,1290.4c0,10.9-7.6,15.7-14.7,15.7c-8,0-14.2-5.9-14.2-15.2c0-9.9,6.5-15.7,14.6-15.7
		C367.1,1275.2,372.9,1281.4,372.9,1290.4z M349.4,1290.7c0,6.5,3.7,11.3,9,11.3c5.1,0,9-4.8,9-11.5c0-5-2.5-11.3-8.8-11.3
		C352.2,1279.2,349.4,1285.1,349.4,1290.7z"/>
	<path class="st2" d="M378.9,1299.9c1.6,1,4.4,2.1,7.1,2.1c3.9,0,5.7-2,5.7-4.4c0-2.6-1.5-4-5.5-5.4c-5.3-1.9-7.8-4.8-7.8-8.4
		c0-4.8,3.8-8.7,10.2-8.7c3,0,5.6,0.9,7.3,1.8l-1.3,3.9c-1.2-0.7-3.3-1.7-6-1.7c-3.2,0-4.9,1.8-4.9,4c0,2.4,1.8,3.5,5.6,5
		c5.1,2,7.7,4.5,7.7,8.9c0,5.2-4,8.8-11,8.8c-3.2,0-6.2-0.8-8.3-2L378.9,1299.9z"/>
	<path class="st2" d="M439.4,1305.4l-5.2-9.1c-2.1-3.5-3.5-5.7-4.8-8.1h-0.1c-1.2,2.4-2.3,4.6-4.5,8.2l-4.9,9h-6.1l12.6-20.8
		l-12.1-20.3h6.2l5.4,9.6c1.5,2.7,2.7,4.8,3.8,7h0.2c1.2-2.4,2.2-4.3,3.7-7l5.6-9.6h6.1l-12.5,20l12.8,21.1H439.4z"/>
	<path class="st2" d="M467.5,1305.4l-0.4-3.7h-0.2c-1.6,2.3-4.8,4.4-9,4.4c-6,0-9-4.2-9-8.5c0-7.1,6.3-11,17.8-11v-0.6
		c0-2.4-0.7-6.8-6.7-6.8c-2.7,0-5.6,0.9-7.7,2.2l-1.2-3.5c2.4-1.6,6-2.6,9.7-2.6c9,0,11.2,6.2,11.2,12.1v11c0,2.6,0.1,5.1,0.5,7.1
		H467.5z M466.7,1290.3c-5.9-0.1-12.5,0.9-12.5,6.6c0,3.5,2.3,5.1,5.1,5.1c3.8,0,6.3-2.4,7.1-4.9c0.2-0.5,0.3-1.2,0.3-1.7V1290.3z"
		/>
	<path class="st2" d="M480.6,1285.1c0-3.5-0.1-6.5-0.2-9.2h4.7l0.2,5.8h0.2c1.3-4,4.6-6.5,8.2-6.5c0.6,0,1,0.1,1.5,0.2v5.1
		c-0.5-0.1-1.1-0.2-1.8-0.2c-3.8,0-6.5,2.9-7.2,6.9c-0.1,0.7-0.2,1.6-0.2,2.5v15.7h-5.3V1285.1z"/>
	<path class="st2" d="M525.4,1262.1v35.7c0,2.6,0.1,5.6,0.2,7.6h-4.8l-0.2-5.1h-0.1c-1.6,3.3-5.2,5.8-10.1,5.8
		c-7.1,0-12.6-6-12.6-15c-0.1-9.8,6-15.9,13.2-15.9c4.5,0,7.6,2.1,8.9,4.5h0.1v-17.6H525.4z M520.1,1287.9c0-0.7-0.1-1.6-0.2-2.3
		c-0.8-3.4-3.7-6.2-7.7-6.2c-5.6,0-8.8,4.9-8.8,11.4c0,6,2.9,10.9,8.7,10.9c3.6,0,6.9-2.4,7.9-6.4c0.2-0.7,0.2-1.5,0.2-2.3V1287.9z"
		/>
	<path class="st2" d="M545.2,1263.1l-7.4,8.7H534l5.4-8.7H545.2z M534.3,1305.4v-29.5h5.4v29.5H534.3z"/>
	<path class="st2" d="M548.6,1283.9c0-3.1-0.1-5.6-0.2-8h4.8l0.3,4.9h0.1c1.5-2.8,4.9-5.6,9.8-5.6c4.1,0,10.4,2.4,10.4,12.6v17.6
		h-5.4v-17c0-4.8-1.8-8.7-6.8-8.7c-3.5,0-6.3,2.5-7.2,5.5c-0.2,0.7-0.4,1.6-0.4,2.5v17.8h-5.4V1283.9z"/>
	<path class="st2" d="M581.7,1299.9c1.6,1,4.4,2.1,7.1,2.1c3.9,0,5.7-2,5.7-4.4c0-2.6-1.5-4-5.5-5.4c-5.3-1.9-7.8-4.8-7.8-8.4
		c0-4.8,3.8-8.7,10.2-8.7c3,0,5.6,0.9,7.3,1.8l-1.3,3.9c-1.2-0.7-3.3-1.7-6-1.7c-3.2,0-4.9,1.8-4.9,4c0,2.4,1.8,3.5,5.6,5
		c5.1,2,7.7,4.5,7.7,8.9c0,5.2-4,8.8-11,8.8c-3.2,0-6.2-0.8-8.3-2L581.7,1299.9z"/>
	<path class="st2" d="M602.5,1312.9c1.3-3.6,3-10.1,3.7-14.6l6-0.6c-1.4,5.2-4.1,12-5.8,14.8L602.5,1312.9z"/>
	<path class="st2" d="M629.8,1305.4v-3.3l4.2-4.1c10.1-9.6,14.7-14.8,14.8-20.7c0-4-2-7.7-7.9-7.7c-3.6,0-6.6,1.8-8.4,3.4l-1.7-3.8
		c2.7-2.3,6.6-4,11.2-4c8.5,0,12.1,5.9,12.1,11.5c0,7.3-5.3,13.2-13.7,21.3l-3.2,2.9v0.1h17.8v4.5H629.8z"/>
	<path class="st2" d="M659.3,1312.9c1.3-3.6,3-10.1,3.7-14.6l6-0.6c-1.4,5.2-4.1,12-5.8,14.8L659.3,1312.9z"/>
	<path class="st2" d="M698.3,1270.8h-0.1l-6.9,3.7l-1-4.1l8.7-4.6h4.6v39.7h-5.2V1270.8z"/>
	<path class="st2" d="M741.6,1270.3h-15.1l-1.5,10.2c0.9-0.1,1.8-0.2,3.2-0.2c3.1,0,6.1,0.7,8.5,2.1c3.1,1.8,5.7,5.2,5.7,10.2
		c0,7.7-6.2,13.5-14.8,13.5c-4.3,0-8-1.2-9.9-2.4l1.3-4.1c1.6,1,4.9,2.2,8.5,2.2c5.1,0,9.4-3.3,9.4-8.6c-0.1-5.1-3.5-8.8-11.4-8.8
		c-2.3,0-4,0.2-5.5,0.4l2.6-19h19V1270.3z"/>
	<path class="st2" d="M760.9,1270.8h-0.1l-6.9,3.7l-1-4.1l8.7-4.6h4.6v39.7h-5.2V1270.8z"/>
	<path class="st2" d="M806.3,1265.8v3.5l-17.3,36.1h-5.6l17.2-35.1v-0.1h-19.4v-4.5H806.3z"/>
	<path class="st2" d="M811.8,1305.4v-3.3l4.2-4.1c10.1-9.6,14.7-14.8,14.8-20.7c0-4-2-7.7-7.9-7.7c-3.6,0-6.6,1.8-8.4,3.4l-1.7-3.8
		c2.7-2.3,6.6-4,11.2-4c8.5,0,12.1,5.9,12.1,11.5c0,7.3-5.3,13.2-13.7,21.3l-3.2,2.9v0.1h17.8v4.5H811.8z"/>
	<path class="st2" d="M893.1,1284.4c0,14.2-8.6,21.7-19.1,21.7c-10.9,0-18.5-8.4-18.5-20.9c0-13.1,8.1-21.6,19.1-21.6
		C885.8,1263.6,893.1,1272.2,893.1,1284.4z M861.2,1285.1c0,8.8,4.8,16.7,13.1,16.7c8.4,0,13.2-7.7,13.2-17.1
		c0-8.2-4.3-16.7-13.1-16.7C865.5,1268,861.2,1276.1,861.2,1285.1z"/>
	<path class="st2" d="M899.8,1262.1h5.4v43.3h-5.4V1262.1z"/>
	<path class="st2" d="M917.1,1291.6c0.1,7.3,4.8,10.2,10.1,10.2c3.8,0,6.2-0.7,8.2-1.5l0.9,3.8c-1.9,0.9-5.1,1.8-9.8,1.8
		c-9.1,0-14.5-6-14.5-14.9c0-8.9,5.2-15.9,13.8-15.9c9.6,0,12.2,8.5,12.2,13.9c0,1.1-0.1,2-0.2,2.5H917.1z M932.9,1287.8
		c0.1-3.4-1.4-8.7-7.4-8.7c-5.4,0-7.8,5-8.2,8.7H932.9z"/>
	<path class="st2" d="M950.7,1267.6c0.1,1.8-1.3,3.3-3.4,3.3c-1.9,0-3.2-1.5-3.2-3.3c0-1.9,1.4-3.4,3.4-3.4
		C949.4,1264.2,950.7,1265.7,950.7,1267.6z M944.7,1305.4v-29.5h5.4v29.5H944.7z"/>
	<path class="st2" d="M959,1285.1c0-3.5-0.1-6.5-0.2-9.2h4.7l0.2,5.8h0.2c1.3-4,4.6-6.5,8.2-6.5c0.6,0,1,0.1,1.5,0.2v5.1
		c-0.5-0.1-1.1-0.2-1.8-0.2c-3.8,0-6.5,2.9-7.2,6.9c-0.1,0.7-0.2,1.6-0.2,2.5v15.7H959V1285.1z"/>
	<path class="st2" d="M1005.1,1290.4c0,10.9-7.6,15.7-14.7,15.7c-8,0-14.2-5.9-14.2-15.2c0-9.9,6.5-15.7,14.6-15.7
		C999.3,1275.2,1005.1,1281.4,1005.1,1290.4z M981.6,1290.7c0,6.5,3.7,11.3,9,11.3c5.1,0,9-4.8,9-11.5c0-5-2.5-11.3-8.8-11.3
		C984.4,1279.2,981.6,1285.1,981.6,1290.7z"/>
	<path class="st2" d="M1011.1,1299.9c1.6,1,4.4,2.1,7.1,2.1c3.9,0,5.7-2,5.7-4.4c0-2.6-1.5-4-5.5-5.4c-5.3-1.9-7.8-4.8-7.8-8.4
		c0-4.8,3.8-8.7,10.2-8.7c3,0,5.6,0.9,7.3,1.8l-1.3,3.9c-1.2-0.7-3.3-1.7-6-1.7c-3.2,0-4.9,1.8-4.9,4c0,2.4,1.8,3.5,5.6,5
		c5.1,2,7.7,4.5,7.7,8.9c0,5.2-4,8.8-11,8.8c-3.2,0-6.2-0.8-8.3-2L1011.1,1299.9z"/>
	<path class="st2" d="M1031.8,1312.9c1.3-3.6,3-10.1,3.7-14.6l6-0.6c-1.4,5.2-4.1,12-5.8,14.8L1031.8,1312.9z"/>
	<path class="st2" d="M411.1,1382.5l-4.3,12.9h-5.5l14-41.1h6.4l14,41.1h-5.7l-4.4-12.9H411.1z M424.6,1378.3l-4-11.8
		c-0.9-2.7-1.5-5.1-2.1-7.5h-0.1c-0.6,2.4-1.3,4.9-2.1,7.4l-4,11.9H424.6z"/>
	<path class="st2" d="M483.4,1394.1c-2,1-5.9,2-10.9,2c-11.6,0-20.3-7.3-20.3-20.8c0-12.9,8.7-21.6,21.5-21.6c5.1,0,8.4,1.1,9.8,1.8
		l-1.3,4.3c-2-1-4.9-1.7-8.3-1.7c-9.6,0-16,6.2-16,17c0,10.1,5.8,16.5,15.8,16.5c3.2,0,6.5-0.7,8.7-1.7L483.4,1394.1z"/>
	<path class="st2" d="M516,1380.4c0,10.9-7.6,15.7-14.7,15.7c-8,0-14.2-5.9-14.2-15.2c0-9.9,6.5-15.7,14.6-15.7
		C510.2,1365.2,516,1371.4,516,1380.4z M492.5,1380.7c0,6.5,3.7,11.3,9,11.3c5.1,0,9-4.8,9-11.5c0-5-2.5-11.3-8.8-11.3
		C495.3,1369.2,492.5,1375.1,492.5,1380.7z"/>
	<path class="st2" d="M522.7,1375.1c0-3.5-0.1-6.5-0.2-9.2h4.7l0.2,5.8h0.2c1.3-4,4.6-6.5,8.2-6.5c0.6,0,1,0.1,1.5,0.2v5.1
		c-0.5-0.1-1.1-0.2-1.8-0.2c-3.8,0-6.5,2.9-7.2,6.9c-0.1,0.7-0.2,1.6-0.2,2.5v15.7h-5.3V1375.1z"/>
	<path class="st2" d="M567.4,1387.4c0,3.1,0.1,5.7,0.2,8.1h-4.8l-0.3-4.8h-0.1c-1.4,2.4-4.5,5.5-9.8,5.5c-4.6,0-10.2-2.6-10.2-12.9
		v-17.3h5.4v16.3c0,5.6,1.7,9.4,6.6,9.4c3.6,0,6.1-2.5,7.1-4.9c0.3-0.8,0.5-1.8,0.5-2.7v-18.1h5.4V1387.4z"/>
	<path class="st2" d="M576.3,1373.9c0-3.1-0.1-5.6-0.2-8h4.8l0.3,4.9h0.1c1.5-2.8,4.9-5.6,9.8-5.6c4.1,0,10.4,2.4,10.4,12.6v17.6
		h-5.4v-17c0-4.8-1.8-8.7-6.8-8.7c-3.5,0-6.3,2.5-7.2,5.5c-0.2,0.7-0.4,1.6-0.4,2.5v17.8h-5.4V1373.9z M581.3,1360.8
		c-0.1-4,1.5-6.3,4.1-6.3c1.3,0,2.4,0.5,3.8,1.3c1,0.5,1.8,1,2.6,1c1,0,1.6-0.5,1.7-2.6h2.9c0.1,4.1-1.3,6.2-4.2,6.2
		c-1.3,0-2.4-0.5-3.7-1.2c-1.2-0.7-1.9-1.1-2.6-1.1c-1,0-1.5,1-1.6,2.7H581.3z"/>
	<path class="st2" d="M626.5,1395.4l-0.4-3.7h-0.2c-1.6,2.3-4.8,4.4-9,4.4c-6,0-9-4.2-9-8.5c0-7.1,6.3-11,17.8-11v-0.6
		c0-2.4-0.7-6.8-6.7-6.8c-2.7,0-5.6,0.9-7.7,2.2l-1.2-3.5c2.4-1.6,6-2.6,9.7-2.6c9,0,11.2,6.2,11.2,12.1v11c0,2.6,0.1,5.1,0.5,7.1
		H626.5z M625.7,1380.3c-5.9-0.1-12.5,0.9-12.5,6.6c0,3.5,2.3,5.1,5.1,5.1c3.8,0,6.3-2.4,7.1-4.9c0.2-0.5,0.3-1.2,0.3-1.7V1380.3z"
		/>
	<path class="st2" d="M636.1,1402.9c1.3-3.6,3-10.1,3.7-14.6l6-0.6c-1.4,5.2-4.1,12-5.8,14.8L636.1,1402.9z"/>
	<path class="st2" d="M686.6,1376.1h-16v14.8h17.8v4.5h-23.1v-41.1h22.2v4.5h-16.9v13h16V1376.1z"/>
	<path class="st2" d="M694.4,1389.9c1.6,1,4.4,2.1,7.1,2.1c3.9,0,5.7-2,5.7-4.4c0-2.6-1.5-4-5.5-5.4c-5.3-1.9-7.8-4.8-7.8-8.4
		c0-4.8,3.8-8.7,10.2-8.7c3,0,5.6,0.9,7.3,1.8l-1.3,3.9c-1.2-0.7-3.3-1.7-6-1.7c-3.2,0-4.9,1.8-4.9,4c0,2.4,1.8,3.5,5.6,5
		c5.1,2,7.7,4.5,7.7,8.9c0,5.2-4,8.8-11,8.8c-3.2,0-6.2-0.8-8.3-2L694.4,1389.9z"/>
	<path class="st2" d="M719.3,1375.5c0-3.8-0.1-6.8-0.2-9.6h4.8l0.2,5.1h0.1c2.2-3.6,5.7-5.7,10.5-5.7c7.1,0,12.5,6,12.5,15
		c0,10.6-6.5,15.9-13.4,15.9c-3.9,0-7.3-1.7-9.1-4.6h-0.1v16h-5.3V1375.5z M724.6,1383.4c0,0.8,0.1,1.5,0.2,2.2
		c1,3.7,4.2,6.3,8.1,6.3c5.7,0,9-4.6,9-11.4c0-5.9-3.1-11-8.8-11c-3.7,0-7.1,2.6-8.1,6.6c-0.2,0.7-0.4,1.5-0.4,2.2V1383.4z"/>
	<path class="st2" d="M770.3,1395.4l-0.4-3.7h-0.2c-1.6,2.3-4.8,4.4-9,4.4c-6,0-9-4.2-9-8.5c0-7.1,6.3-11,17.8-11v-0.6
		c0-2.4-0.7-6.8-6.7-6.8c-2.7,0-5.6,0.9-7.7,2.2l-1.2-3.5c2.4-1.6,6-2.6,9.7-2.6c9,0,11.2,6.2,11.2,12.1v11c0,2.6,0.1,5.1,0.5,7.1
		H770.3z M769.5,1380.3c-5.9-0.1-12.5,0.9-12.5,6.6c0,3.5,2.3,5.1,5.1,5.1c3.8,0,6.3-2.4,7.1-4.9c0.2-0.5,0.3-1.2,0.3-1.7V1380.3z"
		/>
	<path class="st2" d="M783.4,1373.9c0-3.1-0.1-5.6-0.2-8h4.8l0.3,4.9h0.1c1.5-2.8,4.9-5.6,9.8-5.6c4.1,0,10.4,2.4,10.4,12.6v17.6
		h-5.4v-17c0-4.8-1.8-8.7-6.8-8.7c-3.5,0-6.3,2.5-7.2,5.5c-0.2,0.7-0.4,1.6-0.4,2.5v17.8h-5.4V1373.9z M788.4,1360.8
		c-0.1-4,1.5-6.3,4.1-6.3c1.3,0,2.4,0.5,3.8,1.3c1,0.5,1.8,1,2.6,1c1,0,1.6-0.5,1.7-2.6h2.9c0.1,4.1-1.3,6.2-4.2,6.2
		c-1.3,0-2.4-0.5-3.7-1.2c-1.2-0.7-1.9-1.1-2.6-1.1c-1,0-1.5,1-1.6,2.7H788.4z"/>
	<path class="st2" d="M833.6,1395.4l-0.4-3.7H833c-1.6,2.3-4.8,4.4-9,4.4c-6,0-9-4.2-9-8.5c0-7.1,6.3-11,17.8-11v-0.6
		c0-2.4-0.7-6.8-6.7-6.8c-2.7,0-5.6,0.9-7.7,2.2l-1.2-3.5c2.4-1.6,6-2.6,9.7-2.6c9,0,11.2,6.2,11.2,12.1v11c0,2.6,0.1,5.1,0.5,7.1
		H833.6z M832.8,1380.3c-5.9-0.1-12.5,0.9-12.5,6.6c0,3.5,2.3,5.1,5.1,5.1c3.8,0,6.3-2.4,7.1-4.9c0.2-0.5,0.3-1.2,0.3-1.7V1380.3z"
		/>
</g>
</svg>
