<?xml version="1.0" encoding="utf-8"?>
<!-- Generator: Adobe Illustrator 25.4.1, SVG Export Plug-In . SVG Version: 6.00 Build 0)  -->
<!DOCTYPE svg PUBLIC "-//W3C//DTD SVG 1.1//EN" "http://www.w3.org/Graphics/SVG/1.1/DTD/svg11.dtd" [
	<!ENTITY ns_extend "http://ns.adobe.com/Extensibility/1.0/">
	<!ENTITY ns_ai "http://ns.adobe.com/AdobeIllustrator/10.0/">
	<!ENTITY ns_graphs "http://ns.adobe.com/Graphs/1.0/">
	<!ENTITY ns_vars "http://ns.adobe.com/Variables/1.0/">
	<!ENTITY ns_imrep "http://ns.adobe.com/ImageReplacement/1.0/">
	<!ENTITY ns_sfw "http://ns.adobe.com/SaveForWeb/1.0/">
	<!ENTITY ns_custom "http://ns.adobe.com/GenericCustomNamespace/1.0/">
	<!ENTITY ns_adobe_xpath "http://ns.adobe.com/XPath/1.0/">
]>
<svg version="1.1" id="Capa_1" xmlns:x="&ns_extend;" xmlns:i="&ns_ai;" xmlns:graph="&ns_graphs;"
	 xmlns="http://www.w3.org/2000/svg" xmlns:xlink="http://www.w3.org/1999/xlink" x="0px" y="0px" viewBox="0 0 1242 2208"
	 style="enable-background:new 0 0 1242 2208;" xml:space="preserve">
<style type="text/css">
	.st0{fill:#775F3B;}
	.st1{fill:#62391B;}
	.st2{fill:#D96F6F;stroke:#D96F6F;stroke-miterlimit:10;}
	.st3{fill:none;}
	.st4{fill:#805F36;}
</style>
<metadata>
	<sfw  xmlns="&ns_sfw;">
		<slices></slices>
		<sliceSourceBounds  bottomLeftOrigin="true" height="1778.6" width="2772.7" x="-131.1" y="191.2"></sliceSourceBounds>
	</sfw>
</metadata>
<g id="fondo">
</g>
<g id="Capa_2_00000171000038569402273490000012704646517353608069_">
</g>
<g id="Capa_4">
</g>
<g id="onda_sola_grande">
	<g id="_x35_">
		<g>
			<path class="st0" d="M-15.3,1796.9c0.6,0.7,1.4,1.1,2.3,1.6c8.8-3.5,17.4-7.4,25.9-11.7c0.2-0.6,0.3-1.1,0.3-1.6l-2.5-2.1
				c1.9,0.4,2.5,1.1,2.5,2.1l1.1,0.9c0.6-0.3,1.2-0.6,1.7-0.9c1.6-3,2.5-5.1,7.5-7.6c0.2,1.5,0.9,2.3,2,2.6
				c69.5-37.5,134.4-91.4,216.3-67.5c8.4-4.4-0.7-3.5,9.5-6.4c-107-26.1-180.3,53.3-266.4,88.2c0.4,0.2,0.8,0.7,1.4,1.4
				L-15.3,1796.9z"/>
			<path class="st0" d="M-130.5,1804.6c-2.8,2,5.1,1.7,9.3,2.2c2.4,0.7,4.8,1.3,7.2,1.8c0-0.2,0.1-0.4,0.1-0.6
				C-119.4,1807.2-124.9,1806.1-130.5,1804.6z"/>
			<path class="st0" d="M-64.2,1811.1c0.1,0.2,0.1,0.4,0.2,0.6c16.4-1.7,32.3-6,47.7-11.8c-0.7-0.3-1.5-0.6-2.3-0.8
				c1.3-0.8,1.6-2.8,2.1-3.9c-6.5,2.6-13,4.9-19.6,6.9c0.2,1.2-1.1,1-2.5,0.7c-5.6,1.6-11.3,3-17,4.1l2.1,2.9l-4.3-2.4
				c-1.2,0.2-2.4,0.4-3.6,0.6c0.6,0.7,1.2,1.4,1.7,2C-60.6,1810.5-62.9,1810.5-64.2,1811.1z"/>
			<path class="st0" d="M-64.2,1811.1c-0.4-0.9-0.9-1.7-1.6-2.5c-6.8,0.9-13.7,1.4-20.8,1.5c-0.2,0.2-0.5,0.4-0.7,0.6l2.9,1.8
				c6.6,0.2,13,0,19.4-0.7C-64.9,1811.4-64.6,1811.2-64.2,1811.1z"/>
			<path class="st0" d="M-120,1856.2c2.3,0.6,4.7,1.1,7,1.6C-108.2,1854.7-111,1854.6-120,1856.2z"/>
			<path class="st0" d="M122.9,1781.4c41.4-19.5,85.6-31.4,137.6-18.8c-5.3-1.5,3.4-3.7-6.6-3.7c-41.7-12.5-79.3-4.1-115.8,12.3
				l0.4,1.1l-2.5,1.5l0.2-1.8c-5.2,2.4-10.3,4.9-15.5,7.5C121.9,1779.9,122.7,1780.3,122.9,1781.4z"/>
			<path class="st0" d="M55.3,1818.5c4.2-2.4,8.4-4.9,12.6-7.3c-0.3-0.5-0.6-0.9-0.9-1.3c-4.3,2.5-8.5,4.9-12.8,7.4
				C54.6,1817.5,55,1817.9,55.3,1818.5z"/>
			<path class="st0" d="M120,1782.7c-0.6-0.3-0.9-1.2-1-2.3c-16.1,8.3-32.1,17.8-48.2,27.2c-0.2,0.8-0.3,1.5-0.5,2.1
				C86.7,1800.3,103.2,1790.9,120,1782.7z"/>
			<path class="st0" d="M-13.3,1851.6c1.2-0.8,3.3-2.4,5.4-3.1c-0.2-0.3-0.3-0.5-0.5-0.8c-3.6,1.3-7.2,2.6-10.8,3.8
				c1.3,0.4,2.5,1.4,3.6,2.2c1.3-0.5,2.7-1,4-1.5C-11.8,1851.9-12.3,1851.7-13.3,1851.6z"/>
			<path class="st0" d="M-113,1857.8c-1.1,0.7-2.6,1.6-4.5,2.6c16.4,4.3,32,5.7,47.1,5c1.4-1.4,2.7-2.9,3.8-4.5
				C-81.4,1861.9-96.9,1861.1-113,1857.8z"/>
			<path class="st0" d="M42.9,1823.6c0,0.4,0.3,0.8,1.2,1.3c1.8-1,3.7-2.1,5.5-3.1c-0.4-0.4-0.8-0.8-1.2-1.2
				C46.5,1821.6,44.7,1822.6,42.9,1823.6z"/>
			<path class="st0" d="M-65.2,1860.8c-0.4,1.3-0.8,2.5-1.5,3.4c0.6,0.3,1.2,0.6,1.7,0.9c3.1-0.3,6.2-0.6,9.3-1
				c0.8-1.3,1.4-2.9,2-4.5C-57.5,1860.1-61.3,1860.5-65.2,1860.8z"/>
			<path class="st0" d="M-3.1,1845.7c-0.9,0.3-1.7,0.7-2.6,1c0.2,0.5,0.5,1.1,0.8,1.6c0.5,0.1,0.9,0.3,1.3,0.6
				c0.7-0.3,1.4-0.6,2-0.9C-1.8,1847.2-2.3,1846.3-3.1,1845.7z"/>
			<path class="st0" d="M-22.1,1852.4c-0.8,0.3-1.6,0.5-2.4,0.8c-0.3,1.2-0.5,2.4-0.7,3.6c0.1,0.1,0.3,0.1,0.4,0.1
				c1.6-0.5,3.1-1,4.7-1.5c0.4-0.3,0.7-0.7,0.9-1.2L-22.1,1852.4z"/>
			<path class="st0" d="M3,1844.1c-1.8,0.7-2.5,1.9-2.6,3.2c1-0.4,2-0.9,3-1.3c0.4-0.5,0.7-1,1-1.6C4,1844.2,3.5,1844.1,3,1844.1z"
				/>
			<path class="st0" d="M114.3,1844.1l0.8,0.3c15.6-8.8,31.1-16.9,47-23.2c0-0.1-0.1-0.2-0.1-0.2c0.1,0.1,0.2,0.1,0.2,0.2
				c29-11.5,59-16.9,91.9-9.7c-0.1-0.9,0.4-2.1,2-3.5c0.3,0.9,0.3,4.1,2.3,4.1c0.9-1.5,0.2-3.3-0.2-4.9
				c-37.6-7.4-71.2-0.1-103.4,13.4c-0.8,1.5-2,2.4-4.3,1.8c-0.2,0.1-0.5,0.2-0.7,0.3c0,0.1,0.1,0.2,0.1,0.3l-0.1-0.3
				c-12.1,5.3-23.9,11.5-35.7,18.1c0.1,0,0.1,0,0.2,0C114.8,1842.7,114.8,1842.7,114.3,1844.1z"/>
			<path class="st0" d="M72.8,1869c0-0.2-0.1-0.4-0.1-0.6c-0.2-1.1-0.4-2.3-0.6-3.5c-15.2,8.7-30.5,17.2-46.2,24.5l2.3,3.3
				C43.5,1885.7,58.3,1877.5,72.8,1869z"/>
			<path class="st0" d="M-5.4,1901.9c-2.1,0.7-4.1,1.3-6.2,1.9c0.8,0.5,1,1.2-0.5,2.7c-4.7-1-7.7,1.1-9.8,3.7
				c7.3-1.7,14.5-3.7,21.6-6.1c-1.5,0.4-3.3,0.3-5.8-0.2C-5.8,1903.3-5.6,1902.6-5.4,1901.9z"/>
			<path class="st0" d="M81.4,1864c-0.3-1.2-0.5-2.4,0.9-3.2c0,0.9,0.2,1.7,0.3,2.5c10.2-6,20.4-12.1,30.5-17.8l-2.4-0.2
				c0.5-1.3,0.8-2.4,1.2-3.2c-12.2,6.8-24.3,14-36.6,21.1c0.8,1.1,1.7,2.2,2.7,2.9C79.1,1865.3,80.3,1864.7,81.4,1864z"/>
			<path class="st0" d="M8.5,1901.1c3.8-1.4,7.5-3,11.3-4.6c-1.3-0.2-2.3-1-2.6-3.1c-3.7,1.6-7.4,3.1-11.1,4.5
				c-0.1,0.2-0.3,0.4-0.4,0.7L8.5,1901.1z"/>
			<path class="st0" d="M23.5,1890.6c-0.6,0.3-1.2,0.5-1.8,0.8C22.4,1891.4,23.1,1891.2,23.5,1890.6z"/>
			<path class="st0" d="M0.9,1903.8c1.5-0.5,3-1,4.5-1.6c0.2-1.1,0.4-2.3,0-3.4C4,1901.1,2.9,1902.9,0.9,1903.8z"/>
			<path class="st0" d="M259.4,1809.3l-0.9,3.3c2.4,0.6,4.9,1.3,7.4,2c3.5-1.8-1.8-2.4,3.8-4.8c-1.9-0.5-3.8-1-5.7-1.4
				c-0.1,0.5-0.2,1-0.4,1.5C262.2,1811.8,261.7,1810.1,259.4,1809.3z"/>
			<path class="st0" d="M7.9,1956.3c-0.5-0.9-0.9-1.8-1.4-2.7c-3.8,1.2-7.7,2.2-11.5,3.2l-2,3.8C-1.9,1959.4,3,1957.9,7.9,1956.3z"
				/>
			<path class="st0" d="M161,1877.6c36.9-16.5,76.7-25.9,123.5-16.4c-1.1-0.4-1.6-1,0.2-2c-44-12.7-82.9-3.4-120.3,13.9
				C163.6,1874.5,162.3,1876,161,1877.6z"/>
			<path class="st0" d="M12.3,1954.8c51-18,96-53.2,146-76c-0.3-0.8-0.6-1.6-0.9-2.5c-41.2,20.1-80.8,48.7-123.9,67.3
				c-0.9,0.9-2,1.3-3.2,1.4c-5.3,2.2-10.7,4.3-16.2,6.2c0,0.1,0,0.3,0,0.4C13,1952.1,12.5,1953.4,12.3,1954.8z"/>
			<path class="st0" d="M-26.6,1964.5c0.5-0.1,1-0.2,1.5-0.2c2.5-1.7,5.8-2.7,8-4.9c-4.6,0.8-9.3,1.4-14.1,1.9
				C-29.8,1962.7-28.2,1963.8-26.6,1964.5z"/>
			<path class="st0" d="M286.5,1861.6c0.7,0.1,1.3,0.3,2,0.4C288.7,1861.8,287.7,1861.8,286.5,1861.6z"/>
			<path class="st0" d="M284.4,1861.2c0.6,0.2,1.4,0.3,2.1,0.4C285.8,1861.4,285.1,1861.3,284.4,1861.2z"/>
			<path class="st0" d="M290.9,1911.7c1.3,0.6,7.1,1.7,14.5,1.2c-8.8-2-17.3-3.3-25.7-4.1C283.4,1909.6,287.1,1910.5,290.9,1911.7z"
				/>
			<path class="st0" d="M-52.7,2014.1c0.6-1.2,1.2-2,2-2.4c-1.6-0.2-3.2-0.4-4.8-0.7C-54.9,2012.7-54.2,2014.2-52.7,2014.1z"/>
			<path class="st0" d="M206,1912.8c-29.6,8.9-58.2,25.1-87,41.9c-0.8,1.9-2.9,3.8-2.6,5.2c28.2-16.3,56.7-32.4,87.5-42.2
				C205,1916.3,206.2,1914.7,206,1912.8z"/>
			<path class="st0" d="M206.1,1912.8l1.2,3.8c22.6-6.8,46.5-10.3,72.4-7.9C254.2,1903.1,229.9,1905.6,206.1,1912.8z"/>
			<path class="st0" d="M-74.6,2007.8c-4.7,1.9,3,0.6-2.1,4.3c1.4,0.3,2.7,0.6,4.1,0.9C-73,2010.7-73.6,2008.7-74.6,2007.8z"/>
			<path class="st0" d="M-15,2011.9c1.6,1.1,7.1-2,8.7,2.2c44.1-7.8,83.1-31.2,122.6-54.1l-2.4-2.3C72.4,1982,30.5,2006.7-15,2011.9
				z"/>
			<path class="st0" d="M-38.8,2013.8c2.2-0.6,4.4-1.8,3.7,2.4c0.2,0.3,0.5,0.4,0.7,0.6c0.7,0,1.3,0,2,0c0.7-0.8,1.1-2.4,1.5-3.9
				c-3.7,0-7.4-0.1-11.1-0.3C-41.5,2014.2-40.2,2014.1-38.8,2013.8z"/>
			<path class="st0" d="M-63.7,2011.8c-1.8-2.1-2.7,0-3.5,2.2c1.6,0.3,3.2,0.6,4.8,0.8C-62.7,2013.6-63.1,2012.6-63.7,2011.8z"/>
		</g>
	</g>
</g>
<g>
	<g>
		<g>
			<path class="st1" d="M631.5,449.3c-3.4,0-6.5-1.9-8.2-4.9l-54.7-105.8c-9.9-21.7-8.4-46.8,3.9-67.1c12.1-19.9,32.2-32,55.1-33.2
				l0,0c2.5-0.1,5.1-0.1,7.7,0c22.9,1.2,43,13.2,55.1,33.2c12.4,20.4,13.9,45.4,4,66.9l-54.8,106C638,447.4,634.9,449.3,631.5,449.3
				L631.5,449.3z M628,245.6c-20.5,1-38.4,11.9-49.2,29.7c-11.1,18.3-12.5,40.8-3.6,60.2L629.8,441c0.5,0.9,1.4,1,1.7,1
				c0.4,0,1.3-0.1,1.8-1.1l54.6-105.7c8.8-19.2,7.4-41.7-3.7-60c-10.8-17.8-28.8-28.6-49.2-29.7C632.7,245.4,630.3,245.4,628,245.6
				L628,245.6z"/>
		</g>
		<path class="st2" d="M650.9,287c-7-1.6-14.6,1.5-19.4,7.9c-4.8-6.4-12.4-9.6-19.4-7.9c-7.7,1.8-12.8,8.5-13,17.1
			c-0.4,24.2,31.7,44,32,44.1c0.1,0,0.2,0.1,0.4,0.1c0.1,0,0.2,0,0.4-0.1c0.3-0.1,32.4-20,32-44.1
			C663.7,295.5,658.6,288.8,650.9,287z"/>
	</g>
</g>
<g>
	<g>
		<g>
			<path class="st1" d="M331,1300.4c3.8-21.6,26.6-32.1,45.2-34.3c1.7-0.3,3.5-0.4,5.5-0.4c10.6-12.9,24.7-17.2,31.1-18.2
				c16.4-2.5,25.1,6.9,16.1,13.3c-6.4,4.5-26.5,5-41.7,5.9c-8.4,10.5-11.9,21.4-10.5,28.6c2,9.7,8.4,12.3,24.5,5.9
				c12.3-4.9,24.1-22.4,28.2-29.4c0.6-1.3,1-2,1-2c1.8-1.1,3.4,0.4,2.8,6.3c0,0-9.7,26.2-19.9,47.8c5.3,0.8,10.6,1.8,19.1,2.5
				c16.8,1.4,25.5-1.3,35.4-5c-9.8,4.5-20.3,9.2-53.1,3.6c-0.6-0.1-1.3-0.3-2-0.4c-4.3,9.2-9,17.5-12.9,22.6
				c-9.1,11.3-20.3,14.1-28.7,13.4c-14.4-1.1-14.8-14-10.6-21c6.2-10.6,22.3-16.5,37-16.9c4.1-0.1,7.6,0,10.6,0.4
				c1.5-3.5,2.8-7.1,4.3-10.9c5.2-13.4,9.8-24,12.9-31c-5.9,9.1-15.5,18.9-27.3,22.8c-27.5,9.1-30-15.5-21-31.2
				c1.1-2,2.4-3.8,3.8-5.6C354.3,1269.1,337.3,1281,331,1300.4z M369.8,1332c-14.1,9.1-13.2,25.9,0.6,27.3
				c17.8,1.7,27.7-13.6,37-35.3C390.4,1322.5,378.8,1326.4,369.8,1332z M392.5,1260.7c-1.5,1.4-2.8,2.9-4.2,4.5
				c13-0.8,28.9-1.4,34.9-3.4c13.9-4.3,6.3-12.9-2-13.2C409.6,1248.1,399.8,1253.6,392.5,1260.7z"/>
			<path class="st1" d="M443.4,1286.6c4.5-0.1,8.3,2.7,8.3,9.9c0,2.1-0.4,5.2-1.3,8c1.4-0.6,2.9-1.5,4.5-2.8c6-4.9,7.6-9.9,10.6-9.5
				c-3.4,2.5-6.2,8.5-12,12c-1.1,0.7-2.4,1.1-3.6,1.7c-2.2,6.7-6.6,13.7-11.6,13.4c-7.1-0.3-7.7-9.7-4.3-16.2
				c0.4-0.8,0.8-1.7,1.1-2.4C431,1292.9,437.8,1286.8,443.4,1286.6z M438.6,1304.6c-1.1,1.8-1.8,3.6-2.4,5.5
				c-1.3,5,1.1,10.5,5.6,6.6c2.1-2,4.5-5.9,6.3-10.5C444.9,1307,441.4,1306.5,438.6,1304.6z M441.8,1292.4c2.8-0.4,3.1,2.2,2.8,3.8
				c0,0.1-2.9,3.2-5.3,7.4c2.4,1.8,5.7,2.5,9.4,1.7c2.1-6,2.8-12.9-0.8-15.7c-4.8-4.1-10.6,0.6-11.5,4.1c-0.4,2-0.4,3.8,0,5.5
				C438.9,1294.8,441,1292.4,441.8,1292.4z"/>
			<path class="st1" d="M465.6,1286.6c4.5-0.1,8.3,2.7,8.3,9.9c0,2.1-0.4,5.2-1.3,8c1.4-0.6,2.9-1.5,4.5-2.8c6-4.9,7.6-9.9,10.6-9.5
				c-3.4,2.5-6.2,8.5-12,12c-1.1,0.7-2.4,1.1-3.6,1.7c-2.2,6.7-6.6,13.7-11.6,13.4c-7.1-0.3-7.7-9.7-4.3-16.2
				c0.4-0.8,0.8-1.7,1.1-2.4C453.3,1292.9,460,1286.8,465.6,1286.6z M460.9,1304.6c-1.1,1.8-1.8,3.6-2.4,5.5
				c-1.3,5,1.1,10.5,5.6,6.6c2.1-2,4.5-5.9,6.3-10.5C467,1307,463.5,1306.5,460.9,1304.6z M464.1,1292.4c2.8-0.4,3.1,2.2,2.8,3.8
				c0,0.1-2.9,3.2-5.3,7.4c2.4,1.8,5.7,2.5,9.4,1.7c2.1-6,2.8-12.9-0.8-15.7c-4.8-4.1-10.6,0.6-11.5,4.1c-0.4,2-0.4,3.8,0,5.5
				C461.2,1294.8,463.3,1292.4,464.1,1292.4z"/>
			<path class="st1" d="M489.3,1310.6c3.9-1.1,7.1-1,9.5,0.3c9.8-6.2,15.4-10.5,19.9-18.6c-1,6.6-8.8,13-18.6,19.3
				c4.3,2.9,5.3,9.5,4.3,14.7c-2,9.7-7.7,17.8-18.2,24.5c-8,5-18.6,6.2-22.8,3.4c-10.6-7.4,4.5-23.8,16-31.1
				c7-4.5,12.9-8.3,17.7-11.2c-1.8-0.7-3.9-1-6.9-0.4c-4.8,1.1-8.1,2.5-8.1,2.5S485,1311.7,489.3,1310.6z M480.2,1324.2
				c-24.5,16.2-24.1,36.1-4.1,27c22.7-10.6,25.8-26.5,24.8-33.3c-0.4-1.8-1.1-3.8-2.8-5C492.5,1316.5,486.2,1320.1,480.2,1324.2z
				 M499.1,1290.8c0.4,0.4,1.1,0.8,1.4,1.7c1.8,5.2-4.3,13.2-11.6,17.1c-6.6,3.6-11.1,2.1-12-3.5c-1.7-9.1,9.1-16.2,13.9-17.5
				c2.1-0.6,3.8-0.7,5.2-0.7C499.1,1288.3,500,1290,499.1,1290.8z M485.1,1297.4c-5.2,5.6-6.4,12.5-2.2,12.2c4.3-0.4,9-3.5,13-8.5
				c3.2-4.1,3.1-8.3,2.1-9.9C496.2,1291.1,490.4,1292.2,485.1,1297.4z"/>
			<path class="st1" d="M512.7,1320.8c-0.4,2.9,0.1,5.2,2.8,1.5c8-11.2,17.7-26.5,25.9-30c-5.6,5.2-12.9,13.4-18.6,22
				c-8,11.8-9.1,12.5-11.3,11.3c-4.2-2.1-2.1-14.3,0.4-22.6c3.1-9.9,11.2-29.7,20.2-42.9c4.3-6.3,8.3-11.3,12.2-13.9
				c3.1-2.1,6.9-2.9,9.1,0.1c4.5,6.7-20.7,35.6-28.3,42.4c-1.4,1.3-2.4,2.2-3.2,2.8C515,1306.8,513.3,1315.4,512.7,1320.8z
				 M525.9,1282c-1.1,2.5-2.4,5-3.4,7.3c3.9-4.1,11.3-11.9,15.5-17.4c9.9-12.6,12.9-18.9,13.6-21.7c1.8-7.1-5.5,0.4-7.6,2.5
				C540.9,1256.5,534.3,1264.8,525.9,1282z"/>
			<path class="st1" d="M536.4,1302.6c-1.7,8,2.7,10.9,7.1,9.1c7.6-2.9,14.7-19.5,20-19.3c-5.2,4.8-5.6,6.3-9.2,10.9
				c-4.6,5.9-9.7,11.3-15.4,10.6c-7.7-0.8-8.5-10.5-6.6-14.8c2-4.6,6-9.9,12.6-10.5c5.2-0.4,7.4,4.6,2.2,9.1
				c-3.1,2.5-7.6,3.8-10.6,4.3C536.5,1301.9,536.4,1302.3,536.4,1302.6z M540.7,1299.5c8.3-2.8,9.8-9.1,5.3-8c0,0-6.7,0.8-9.2,9.1
				C537.9,1300.4,539.3,1300.1,540.7,1299.5z"/>
			<path class="st1" d="M603.1,1296.7c0.1,2.1-2.4,7-2.8,8c0.4,0,1.1-1.4,3.4-4.2c2.8-3.5,5.9-5.9,8.1-5.6c3.2,1.1,3.5,3.8,2.1,6.9
				c-1.3,3.1-2.8,9.1,0.4,5.2c2.4-2.9,12.9-16.7,17.1-18.6c3.5-1.7,7.6,1,5.2,7.6c-0.7,2.5-3.1,6.7-7,12.9
				c-5.9,8.8-5.9,17.7,0.4,12.5c9.9-8,14-29.3,23.4-28.9c-7.7,3.5-10.6,13.4-14,19.1c-6.3,10.9-11.6,14.4-15.4,11.8
				c-3.8-2.7-4.8-7.3-0.3-14.7c6.3-10.2,11.5-22.6,6.7-18.6c-6.6,5.6-14.1,16.5-16.2,18.6c-1.8,1.8-3.6,1.8-5,0.4
				c-1.1-1.1-1.8-3.8,0.7-9.9c2.2-5.5-0.7-2.8-3.1-0.7c-4.3,3.9-10.1,15.3-11.5,17.4c-2.2,3.5-5.3-1-4.1-4.5
				c0.3-0.6,7.6-16.7,6.6-18.5C599.3,1291.8,602.9,1291.7,603.1,1296.7z"/>
			<path class="st1" d="M665.4,1316.5c5.9-8.5,13-23.3,17.9-24.4c-5.2,5.9-6.4,8.5-9.4,13.2c-5.6,9.1-8.7,15.3-12,14.7
				c-3.6-0.6-7-5.3-3.2-15.7c0.1-0.4,0.4-0.8,0.4-1.1c-4.2,5.2-8.3,9.9-12.2,5.6c-3.9-4.5-0.1-12.6,3.5-16c2.7-2.5,7.7-4.5,13-3.2
				c5.9,1.5,1.4,1.5,1.4,1.5s-7.6-1.7-13,7c-3.9,6.4-1.8,12.3,1.4,9.2c1.8-1.7,5.5-6.4,8.5-10.2c1.5-2.5,3.1-5.3,4.6-5.3
				c1.5-0.1,5.2,0.4,2,4.6C659.2,1308.5,659.1,1325.6,665.4,1316.5z"/>
			<path class="st1" d="M641.2,1356.7c-1-13.4,23.8-35.6,27.9-39.2c1.5-1.4,2.8-2.5,3.8-3.1c1.8-5.9,2.9-10.2,3.5-11.5
				c3.2-9.5,5.2-10.8,6.6-10.4c1.8,0.8,1.7,2.8,0.6,5.9c3.2-3.9,7.6-8,13.3-8c7-0.3,9.1,6.6,6.7,14.6c5.3-1.8,10.6-4.9,15.4-12.3
				c-2.5,8.1-9,11.2-15.8,13.4c-0.8,2.4-2.1,5-3.8,7.4c-7.6,10.6-17.1,9.2-18.2,5.9c-1-2.9,1-5.6,4.1-7.7c4.3-2.8,9-3.8,13.4-5.2
				c2.4-6.3,2.9-13.9-1.5-14.3c-5.9-0.6-11.1,4.6-14.7,9.5c-1.7,4.2-4.1,9.8-5.9,16.2c-3.5,12-8.5,26.5-14.7,36
				C653.5,1366.4,641.9,1366.1,641.2,1356.7z M666.1,1322.4c-8.5,8-14.3,14.6-19.3,23.1c-5.5,9.2-4.5,16.9,0.4,16.4
				c10.6-1,20-28.4,25.2-45.7C671,1317.5,669,1319.4,666.1,1322.4z M686,1312.1c-3.6,2.4-4.5,5.3-3.6,6.7c2.1,3.5,8.7-0.7,13-7
				c1-1.1,1.8-2.7,2.4-4.3C693.8,1308.9,689.6,1310,686,1312.1z"/>
			<path class="st1" d="M721,1293.2c-0.4,1.4-0.4,3.5,1,5.9c1.8,3.1,3.8,5.9,4.5,8.3c10.2-5,12.7-8,17.8-14.7
				c-2.2,6.9-9.4,12-17.7,15.8c1.5,4.8,1.3,8.7-1.8,13.4c-5.2,8.3-16.2,10.9-19.9,6.6c-4.9-6,2.8-12.9,14.1-17.8
				c1.7-0.7,2.9-1.4,4.3-2c-0.4-2-1.1-3.8-2.4-5.9c-4.9-7.7-4.1-8.5-3.9-10.4c0.3-3.2,4.1-6.6,4.1-6.6c2.2-1.7,2.8,1.7,2.4,3.5
				C722.6,1290.1,721.4,1291.7,721,1293.2z M722.4,1309.9c-9.5,4.1-17.8,9.5-17.1,14.7c0.4,3.5,3.5,4.6,7.4,2.5
				c3.8-2.1,12.2-9,11.3-17.8C723.4,1309.8,722.8,1309.8,722.4,1309.9z"/>
			<path class="st1" d="M774.7,1320.8c-0.4,2.9,0.1,5.2,2.8,1.5c8-11.2,17.7-26.5,25.9-30c-5.6,5.2-12.9,13.4-18.6,22
				c-8,11.8-9.1,12.5-11.3,11.3c-4.2-2.1-2.1-14.3,0.4-22.6c3.1-9.9,11.2-29.7,20.2-42.9c4.3-6.3,8.3-11.3,12.2-13.9
				c3.1-2.1,6.9-2.9,9.1,0.1c4.5,6.7-20.7,35.6-28.3,42.4c-1.4,1.3-2.4,2.2-3.2,2.8C777.2,1306.8,775.4,1315.4,774.7,1320.8z
				 M788.1,1282c-1.1,2.5-2.4,5-3.4,7.3c3.9-4.1,11.3-11.9,15.5-17.4c9.9-12.6,12.9-18.9,13.6-21.7c1.8-7.1-5.5,0.4-7.6,2.5
				C803,1256.5,796.5,1264.8,788.1,1282z"/>
			<path class="st1" d="M810.2,1304.3c-4.6,6.2-8.4,10.1-12.3,9c-6.3-2-1-17.8,3.5-20.9c2-1,3.1,0.1,2.8,1.7
				c-0.4,2.5-3.1,6.3-4.3,10.8c-0.8,3.4-1.8,7.3,0.7,6.9c3.1-0.4,9.1-9.2,13-14.3c3.4-4.2,4.3-5.3,6.6-5.3
				C817,1293.9,814.4,1298.7,810.2,1304.3z M805.2,1288.2c-1.1-0.4-1.3-1.1-0.4-2.8c1-2,0.4-2.4,2-3.2c1.1-0.6,4.8-0.3,3.5,2.4
				C809.1,1287.1,806.6,1288.5,805.2,1288.2z"/>
			<path class="st1" d="M823.5,1295.6c0.1,3.4-1,5-2.8,9c4.3-6,14.1-16,21-17.8c3.8-1,5.6,2.5,5.2,5.2c-0.4,3.9-11.9,19.5-13.3,25.2
				c-2,8.5,3.2,5.7,4.9,4.5c4.9-3.6,14.1-20.2,18.2-25.1c5.2-5.9,7-3.9,7-3.9c-8.1,2-17.8,28-26.9,31.5c-2.7,1.1-6.7,0.4-8-3.8
				c-2.4-8.5,13.2-28.4,13.7-31.4c0.4-3.4-9.4,2.7-16.2,10.6c-4.6,5.3-7.1,9.5-9.2,12.7c-0.4,0.7-2.8,0.7-3.8-1
				c-0.4-0.7-1.7-2.4,2.1-10.1c4.2-8.5,2.4-8.3,2.4-8.3C818.9,1291.5,823.5,1292.4,823.5,1295.6z"/>
			<path class="st1" d="M901,1249.1c-1,12.2-27.3,37.1-36,44c-2.1,3.8-2.4,5.9-3.9,10.1c1.5-2.8,10.9-14.3,18.5-12.9
				c7,1.4,4.3,9.2-1.1,12.3c-3.8,2.1-10.8,4.6-11.1,5.5c7.7,3.4,1.8,12.6,5.2,16.2c5.9,3.8,15.4-25.6,27.3-32.1
				c-1.3,1.1-2.4,3.1-4.2,5.2c-8.5,9.5-12.9,21.4-17.8,26.5c-2.4,2.4-5.2,2.1-6.4,1.3c-8-4.5-0.6-15.1-5.9-16.2
				c-1.1-0.3-2.1-2.1-0.8-3.5c2-2.1,8.8-4.1,13.4-7.6c7.7-5.5,1.7-9.2-5.9-3.9c-9.7,6.7-11.3,12.9-14.6,22.6c-4.3,0-4.2-3.6-3.5-7.6
				c0.3-1,9.9-30.5,19.3-44.5c9.1-14.7,17.2-18.9,19.1-19.6C897.5,1243.2,901.3,1245.6,901,1249.1z M894.3,1248.5
				c-12.3,8-23.4,29.1-28.7,42.2c13.2-10.9,32.5-32.9,33.6-40.2C899.9,1247.3,897.4,1246.6,894.3,1248.5z"/>
		</g>
	</g>
</g>
<g>
	<a xlink:href="https://goo.gl/maps/49awMNdHVkVDHEYNA"  pointer-events="all" target="_blank">
		<rect x="527.1" y="1380.1" class="st3" width="203" height="252.1"/>
		<path class="st1" d="M713.9,1422.1c-12.7-28.9-51.3-36.1-73.7-14c-1,0.8-1.8,1.3-3.1,1.3c-22.4,0-44.8,0-67.2,0
			c-12.2,0-21.6,9.4-21.6,21.6c0,37.5,0,74.8,0,112.3c0,1.4,0.1,3.1,0.4,4.5c2.4,10.5,10.6,17.1,21.4,17.1c18.6,0,37.1,0,55.8,0
			s37.1,0,55.8,0c2.4,0,5-0.4,7.3-1.1c9.1-3.1,14.7-10.9,14.7-20.6c0-21.6,0-43.1,0-64.6c0-1,0.4-2,0.8-2.8
			c2.2-3.5,4.5-6.9,6.6-10.6C719,1451.1,720.5,1436.8,713.9,1422.1z M643.4,1477c10.5,14.3,19.5,29.7,23.7,47.6
			c-12-12-24-24-35.7-35.6C635.3,1485,639.3,1481.1,643.4,1477z M559.6,1549.2c-0.4,0.4-0.7,0.8-1.4,1.3c-0.1-0.8-0.1-1.1-0.1-1.7
			c0-40.5,0-81,0-121.7c0-5,3.2-8.3,8.1-8.3c22,0,44.3,0,66.3,0c0.4,0,0.7,0,0.8,0c-1,3.9-2.2,7.7-2.8,11.6c-2.1,12,0.6,23.5,6.3,34
			c0.6,1,0.8,2.1,1.7,2.8c1.3,1.5,0.7,2.5-0.6,3.9C611.6,1497.2,585.7,1523.2,559.6,1549.2z M565.2,1556.3
			c20-20,40.2-40.2,60.4-60.2c19.8,19.8,39.9,39.9,60.2,60.2C645.4,1556.3,605,1556.3,565.2,1556.3z M694.5,1545.5
			c0,1.7-0.6,3.4-1,4.9c-8.3-8.3-16.2-16.2-24.2-24.2c0.8-0.1,1.7-0.1,2.7-0.3c6.2-1.1,9.2-5.2,10.5-10.9
			c2.2-9.8,5.7-19.2,10.4-28.2c0.3-0.7,0.7-1.4,1.3-2.2c0.1,0.8,0.3,1.3,0.3,1.7C694.7,1505.9,694.7,1525.6,694.5,1545.5z
			 M702.2,1455.2c-3.1,5.6-6.6,10.8-10.1,16.1c-7.7,11.2-14.3,23-19.3,35.6c-0.1,0.4-0.4,0.7-0.6,1.3c-1.7-3.8-3.2-7.3-4.8-10.8
			c-5.2-11.3-12-21.6-19.1-31.8c-3.8-5.5-7.1-11.2-9.1-17.7c-5.7-19.1,7-39.9,26.8-43.3c18.2-3.2,34.9,7.4,39.6,25.4
			C707.8,1438.6,706.6,1447.2,702.2,1455.2z"/>
		<path class="st1" d="M605.7,1436.5c-1.7,1.7-3.2,3.2-5,4.9c-7.4-4.9-13.2-5.2-18.5-1c-4.9,3.8-6.7,10.1-4.6,16
			c2,5.6,7.6,9.4,13.4,9.2c4.9-0.1,10.5-3.2,11.5-7c-3.9,0-7.7,0-11.6,0c0-2.4,0-4.6,0-7c7,0,13.9,0,20.9,0
			c1.8,5.9-4.8,16.1-12.5,19.3c-9.9,4.3-21.7,0.4-27-9.1s-2.5-21.4,6.4-27.7C587.9,1428,599.7,1430.2,605.7,1436.5z"/>
		<path class="st1" d="M661.6,1440.9c0-5.9,4.8-10.6,10.6-10.5c5.9,0,10.5,4.8,10.5,10.6s-4.8,10.6-10.6,10.6
			C666.2,1451.7,661.5,1446.9,661.6,1440.9z"/>
	</a>
	<g>
		<path class="st4" d="M593.1,1618v0.8c-2.2-1.1-4.1-2.4-5.5-3.9c-2.1-2.1-3.8-4.6-4.9-7.6c-1.1-3-1.7-5.9-1.7-9
			c0-4.5,1.1-8.7,3.4-12.5c2.2-3.8,5.2-6.4,8.7-8v1c-1.8,1-3.2,2.4-4.3,4.1s-2.1,3.9-2.5,6.6c-0.6,2.7-0.8,5.3-0.8,8.3
			c0,3.2,0.3,6,0.7,8.5c0.4,2.1,0.8,3.6,1.4,4.9c0.4,1.3,1.3,2.4,2.2,3.5C590.4,1616,591.6,1617,593.1,1618z"/>
		<path class="st4" d="M613.1,1601.7c-0.4,2.7-1.5,4.8-3.2,6c-1.5,1.4-3.2,2.2-5.2,2.2c-2.4,0-4.2-1-6-2.9c-1.7-2-2.5-4.5-2.5-7.8
			c0-3.2,1-5.7,2.8-7.7s4.2-2.9,6.9-2.9c2,0,3.6,0.4,4.9,1.5c1.3,1.1,2,2.2,2,3.2c0,0.6-0.1,1-0.4,1.4c-0.4,0.4-0.8,0.4-1.4,0.4
			c-0.8,0-1.4-0.3-2-0.8c-0.3-0.4-0.4-0.8-0.4-1.7c-0.1-0.8-0.4-1.5-0.8-2c-0.4-0.5-1.3-0.6-2.1-0.6c-1.4,0-2.7,0.4-3.5,1.5
			c-1.3,1.4-1.8,3.2-1.8,5.7c0,2.4,0.6,4.5,1.7,6.3c1.3,1.8,2.8,2.8,4.8,2.8c1.4,0,2.7-0.4,3.9-1.4c0.8-0.7,1.5-2,2.4-3.6
			L613.1,1601.7z"/>
		<path class="st4" d="M623.5,1578.1v26.6c0,1.3,0.1,2.1,0.3,2.5c0.1,0.4,0.4,0.7,0.8,1s1.1,0.4,2.1,0.4v0.7h-9.8v-0.7
			c1,0,1.5-0.1,2-0.3c0.4-0.3,0.6-0.4,0.7-1c0.1-0.6,0.3-1.4,0.3-2.5v-18.2c0-2.4,0-3.6-0.1-4.1c-0.1-0.4-0.3-0.8-0.4-1.1
			c-0.3-0.3-0.4-0.3-0.8-0.3c-0.4,0-0.8,0.1-1.4,0.4l-0.4-0.7l6-2.4h1.1L623.5,1578.1L623.5,1578.1z"/>
		<path class="st4" d="M636.5,1588.7v16.2c0,1.3,0.1,2.1,0.3,2.5c0.1,0.4,0.4,0.7,0.8,1c0.4,0.3,1,0.4,2,0.4v0.7h-9.8v-0.7
			c1,0,1.5-0.1,2-0.3c0.4-0.3,0.6-0.4,0.7-1c0.3-0.4,0.3-1.4,0.3-2.5v-7.8c0-2.2-0.1-3.5-0.3-4.2c-0.1-0.4-0.3-0.8-0.4-1
			c-0.3-0.1-0.4-0.3-0.8-0.3c-0.4,0-0.8,0.1-1.4,0.4l-0.4-0.7l6-2.4h1.1L636.5,1588.7L636.5,1588.7z M634.6,1578.1
			c0.6,0,1.1,0.3,1.5,0.6c0.4,0.4,0.6,1,0.6,1.5c0,0.6-0.3,1.1-0.6,1.5c-0.4,0.4-1,0.6-1.5,0.6c-0.6,0-1.1-0.3-1.5-0.6
			c-0.4-0.4-0.6-1-0.6-1.5c0-0.6,0.3-1.1,0.6-1.5C633.4,1578.3,634.1,1578.1,634.6,1578.1z"/>
		<path class="st4" d="M659.6,1601.7c-0.4,2.7-1.5,4.8-3.2,6c-1.5,1.4-3.2,2.2-5.2,2.2c-2.4,0-4.2-1-6-2.9c-1.7-2-2.5-4.5-2.5-7.8
			c0-3.2,1-5.7,2.8-7.7s4.2-2.9,6.9-2.9c2,0,3.6,0.4,4.9,1.5c1.3,1.1,2,2.2,2,3.2c0,0.6-0.1,1-0.4,1.4c-0.4,0.4-0.8,0.4-1.4,0.4
			c-0.8,0-1.4-0.3-2-0.8c-0.3-0.4-0.4-0.8-0.4-1.7c-0.1-0.8-0.4-1.5-0.8-2c-0.4-0.5-1.3-0.6-2.1-0.6c-1.4,0-2.7,0.4-3.5,1.5
			c-1.3,1.4-1.8,3.2-1.8,5.7c0,2.4,0.6,4.5,1.7,6.3c1.3,1.8,2.8,2.8,4.8,2.8c1.4,0,2.7-0.4,3.9-1.4c0.8-0.7,1.5-2,2.4-3.6
			L659.6,1601.7z"/>
		<path class="st4" d="M662.6,1579v-1c2.2,1.1,4.1,2.4,5.6,3.9c2.1,2.1,3.6,4.6,4.9,7.6c1.1,2.9,1.7,5.9,1.7,9
			c0,4.5-1.1,8.7-3.2,12.5c-2.2,3.8-5.2,6.4-8.7,8v-0.8c1.8-1,3.2-2.4,4.3-4.1c1.3-1.7,2.1-3.9,2.5-6.6c0.6-2.7,0.8-5.5,0.8-8.3
			c0-3.2-0.3-6-0.7-8.5c-0.4-2.1-0.8-3.6-1.4-4.9c-0.4-1.3-1.3-2.4-2.2-3.5C665.3,1581.1,664.2,1580,662.6,1579z"/>
	</g>
</g>
<g>
	<g>
		<path class="st1" d="M592.3,555c0.3,0.2,0.6,0.4,0.8,0.5c-0.7,0.7-1.2,1.1-1.4,1.2c-3.4,0.9-7.2,1.4-11.6,1.6l-6.5,0.1l-6.5-0.1
			l-13.9-0.6c-7-0.5-13.4-0.7-19.2-0.7c-3,0-6.2,0.2-9.5,0.7c-11.4,1.5-19.6,7.2-24.7,16.9c-3.6,6.6-6.2,12.6-7.9,18.2l-8.2,26.3
			c-1.8,6.6-4.1,15.4-6.8,26.6l-8.8,34.1l-3.3,12.6l-2.6,9.8c-0.1,0.4-0.3,1.4-0.6,3c0.4,0.4,0.8,0.6,1.2,0.6c0.4,0,0.7,0,0.9-0.1
			c0.2-0.1,0.5-0.2,0.6-0.3l10.5-2.2c1.9-0.4,4.3-0.9,7.2-1.5c2.9-0.6,6.3-1.3,10.1-2c3.5-0.8,7-1.2,10.5-1.3
			c1.7-0.1,3.2,0.3,4.4,1.2c1.2,0.9,2,2.3,2.5,4.1v0.4c0,0.4-0.1,0.7-0.4,1c-0.2,0.2-0.5,0.3-0.8,0.2c-0.3,0-0.6-0.1-0.6-0.1l-1-0.7
			c-0.7-0.8-1.8-1.1-3.3-0.9c-2.6,0.4-4.4,0.6-5.5,0.7c-0.9,0.1-2,0.2-3.4,0.4s-3,0.5-4.8,0.9c-6,1.2-10.5,2.1-13.4,2.7l-13.6,2.7
			l-1.6,0.4c-1.2,0.3-2,1.1-2.5,2.5l-4.3,14.7l-1.3,4.6c-1.7,6.1-2.7,9.6-3,10.7c-0.2,0.6-0.8,2.8-1.9,6.7s-1.8,7.7-2.3,11.5
			c-0.1,0.5-0.2,1-0.3,1.7c-0.1,0.6-0.1,1.4-0.1,2.2c0,1.3,0.2,2.3,0.6,3.2c0.3,0.1,0.7,0.1,1.2,0.1s1,0,1.7-0.1
			c0.6-0.1,1.1-0.2,1.4-0.3l5.8-1.2c13.7-2.5,20.9-3.8,21.8-3.9c8.2-1.4,17.5-2.3,27.9-2.6l7.8-0.1c6.7-0.2,11.7-0.3,14.9-0.3
			c3.7,0,7.3,0.1,11,0.4c1.1,0.1,1.9,0.3,2.5,0.6s1.1,1,1.4,2c-0.8,0.6-1.3,0.9-1.6,1c-0.7,0.1-1.7,0.1-3.2,0.1
			c-1.7-0.1-4.4-0.1-7.9-0.1c-7,0-15.5,0.3-25.4,1c-16.6,1.1-33,3.4-49.4,6.9c-1.3,0.3-3.6,0.6-6.8,1c-2.9,0.4-5.6-0.6-8.2-2.9
			c-1.4-1.3-2.2-2.8-2.2-4.6V764c0-1.2,0-2,0.1-2.6c0.5-3.8,1.2-7.4,2.1-11.1c0.9-3.6,2.1-8.1,3.7-13.5c1.3-4.4,3.2-11.1,5.9-19.9
			c0.1-0.3,0.1-0.8,0.1-1.4c-0.4-0.7-1.1-0.8-2.2-0.4l-9,2.7l-1.2,0.3c-0.5,0-0.9-0.2-1.2-0.6c-0.3-0.4-0.6-1.1-1-2.2
			c1.4-1.1,3.1-2,4.8-2.7c1.8-0.8,3.6-1.4,5.4-2c2-0.6,4-1.3,6.1-2.2c0.8-1.2,1.3-2.6,1.7-4.4c0.4-1.8,0.7-3.1,1-4
			c3.7-12.4,7.8-28.1,12.6-47.1c1.5-6.5,4.8-18.5,9.7-35.8c4.9-17.3,8.8-29.3,11.6-36.2c1.8-4.7,3.9-9,6.4-12.7
			c5.4-8.5,13.2-13.6,23.4-15.3c2.9-0.6,6.5-0.9,10.8-0.9c3.1,0,5.4,0,6.9,0.1l34.1,2.2c3.1,0.3,6.2,0.4,9.2,0.4
			c2.7,0,5.4-0.1,8.2-0.4c0.9,0,2.1,0.1,3.6,0.3C591.7,554.7,592,554.8,592.3,555z"/>
		<path class="st1" d="M624.4,692.8c-0.9,0.2-1.3,0.2-1.4,0.1c-1.2-0.6-2.3-0.9-3.5-0.9c-1.1,0-2.1,0.1-3,0.4c-6,1.5-10.3,3-13,4.3
			s-4.5,2.7-5.3,4.2s-1.5,3.7-2.1,6.6c-0.7,3.2-1.4,6-2.2,8.6s-2.3,5.6-4.4,9c-7.1,11.6-14.7,21.4-22.8,29.5
			c-3.8,3.8-7.3,6.6-10.5,8.5c-1.3,0.8-3.5,1.7-6.4,2.9c-0.7,0.3-1.3,0.4-2,0.4s-1.6-0.2-2.7-0.6c-1.9-0.7-3.3-1.4-4-2.3
			c-0.8-0.9-1.2-2.1-1.2-3.8c0-3.5,0.9-7.2,2.7-11.1c3.6-7.5,8.5-14.6,14.7-21.4c7.6-8.3,17.7-16,30.2-23.1l3.3-1.9
			c0-1.3,0-2.3-0.1-2.9c-0.3-2-1.3-3.3-3.2-3.9c-3.4-1.2-6.6-1.8-9.5-1.9l-6.9-0.3c-2.9-0.2-5.3-1.3-7.1-3.3c-0.8-1-1.2-1.8-1.2-2.5
			c0-0.8,0.3-1.5,1-2.3c1.3-1.7,2.6-3.1,3.9-4c6.5-5.2,12.5-9.1,17.9-11.8c0.3-0.1,1.1-0.5,2.3-1.2c1.3-0.7,2.6-1,3.9-1
			c1.6,0,2.7,0.6,3.2,1.9c-7.9,4.9-13.6,8.7-17.1,11.4s-6.2,5.3-8.2,7.9c0.2,0.6,0.8,0.9,1.7,0.9c1.1,0,4,0.2,8.8,0.7
			c3.9,0.4,6.6,0.8,8.4,1.4c1.7,0.5,3.7,1.9,5.8,4l1,0.7l2.6-1c3.3-1.4,7.1-2.9,11.4-4.3c1.6-0.6,4.1-1.2,7.4-1.7
			c1.2-0.2,2.2-0.1,3.2,0.3c1,0.4,2.2,1,3.5,1.9C623.8,691.3,624,691.8,624.4,692.8z M587.9,713c0.6-1.3,1-2.7,1.3-4.3
			c-2.6,1.1-6.7,3.7-12.3,7.8s-9.7,7.6-12.4,10.3c-5.2,5.2-9.5,10.4-12.9,15.6c-2.2,3.5-4.2,8-5.9,13.6c-0.2,0.8-0.3,1.7-0.3,2.7
			c0,1.1,0,1.7,0,2s0.1,0.7,0.4,1.2c0.3,0.5,0.5,0.9,0.7,1.3c0.6-0.4,1.3-0.8,2.1-1.2s1.5-0.7,2-1c1.3-1,3.3-2.5,5.8-4.6
			c3.5-3,7.6-7.5,12.4-13.6c4-5.1,7.5-9.8,10.5-14.2c2.9-4.3,5.5-8.8,7.6-13.4C587,715,587.3,714.3,587.9,713z"/>
		<path class="st1" d="M682,689.4c0,0.1,0,0.3-0.1,0.4c-7,7-12.2,12.4-15.6,16L659,714l-7.4,8.2c-5.5,6-11.2,10-17,12.1
			c-2.7,1.1-5.4,1.6-8.1,1.6c-2.6,0-5-0.5-7.2-1.6c-6.4-2.8-9.5-8.3-9.5-16.6c0-3.2,0.6-6.8,1.7-11c1.6-5.7,4.2-11.4,7.8-17.2
			c2.5-4,5.6-7.8,9.2-11.1c3.2-2.9,6.6-4.7,10.4-5.5c1.2-0.2,2-0.3,2.5-0.3c2.7,0,5.1,1.1,7.1,3.3c1.3,1.3,2,3.2,2,5.6l-0.1,4.2
			l-1.2,0.7c-0.2-0.7-0.4-1.3-0.5-2s-0.3-1.3-0.5-2c-0.9-2.2-1.6-3.9-2.3-5.2c-0.8-1.3-1.9-1.8-3.5-1.3c-1.3,0.4-2.3,0.9-3.2,1.4
			c-2.9,1.9-5,3.5-6.2,4.8c-4.6,4.6-8.3,10-11.1,16.2c-2.7,5.9-4.5,11.8-5.5,17.6c-0.1,0.6-0.1,1.4-0.1,2.5c0,1.9,0.3,4.4,1,7.5
			c0.1,0.6,0.4,1.3,0.9,2c1.7,3.1,4,4.6,6.9,4.6c0.5,0,1.2-0.1,2.2-0.3c4.1-0.9,7.9-2.6,11.4-5.3c4-3.2,7.7-6.5,11-10.1
			c6.4-6.9,12.9-13.7,19.5-20.4l3.8-3.5c2.6-2.3,3.9-3.5,4-3.6c0.5-0.5,1-0.8,1.6-0.9c0.6-0.1,1.2-0.1,1.7-0.1c0.6,0,1,0,1.2,0
			s0.4,0.2,0.6,0.6C681.9,689.1,681.9,689.2,682,689.4z"/>
		<path class="st1" d="M743.5,689.3c0.6,0,1.2,0.3,1.9,0.9c-2.6,2.5-5,5.2-7.2,8.1c-2.2,2.9-4.7,6.5-7.6,10.7l-3.6,5.2
			c-4.7,6.8-8,11.5-10,14c-1.2,1.5-2.8,3.2-4.9,4.9c-1.2,1.1-2.6,1.6-4.3,1.6c-1.2,0-2.3-0.3-3.3-0.9c-1.1-0.6-1.9-1.5-2.6-2.7
			c-1.1-1.8-1.6-3.9-1.6-6.4c0-5.7,0.4-10.2,1.3-13.6l0.4-3c-0.5,0.6-0.9,1.1-1.2,1.4c-0.3,0.4-0.6,0.8-0.9,1.2
			c-2.6,4.4-6.8,9.7-12.6,15.7c-2.2,2.4-4.6,4.2-7.1,5.3c-1.3,0.6-2.6,0.9-3.9,0.9c-1.7,0-3.5-0.6-5.2-1.7c-1.5-1.2-2.6-2.6-3.2-4.5
			c-0.8-2.6-1.2-5.2-1.2-7.7c0-7,1.9-14.4,5.6-22.2c3.8-7.9,8-13.8,12.7-17.8c2.1-1.8,4.2-3.4,6.4-4.6c1.5-1,3.1-1.4,4.6-1.4
			c1.6,0,3.2,0.4,4.6,1.3c3.4,1.6,5.1,4,5.1,7.2c0,1.3-0.1,2.7-0.3,4.3s-0.3,2.7-0.4,3.4h0.4c0.6,0,1.1-0.4,1.4-1.3
			c0.9-2.2,2-4.6,3.3-7.2l1.3-2.7c0.4-0.9,0.9-2,1.4-3.3c0.6-1.3,1.2-2.5,1.7-3.3c1.3,0.2,2.2,0.4,2.5,0.6c0.3,0.2,1,0.8,2,1.7
			c-0.5,1.4-0.8,2.4-1,2.7c-4.6,9.3-8.5,21.2-11.6,35.5c-0.6,2.7-1.1,6.9-1.4,12.6c-0.1,1.6,0.1,3.7,0.6,6.1c0.1,1,0.6,1.4,1.6,1.4
			c0.4,0,0.8-0.1,1.2-0.4c1.6-1.2,3.1-2.5,4.5-4c1.1-1.1,2.1-2.4,3.2-4.1c1.1-1.7,2-2.9,2.5-3.7l7.1-9.8l6.9-9.8
			c1.2-1.7,3.4-4.3,6.5-7.8c0.7-0.8,1.6-1.5,2.7-2.2C742.5,689.5,743,689.3,743.5,689.3z M700.8,693.4c0.7-4.5,1-8.4,1-11.7
			c0-1.1-0.1-2.1-0.4-3c-0.5-1.6-1.3-2.5-2.6-2.5c-0.2,0-0.7,0.1-1.4,0.3c-2.4,0.9-4.8,2.5-7.2,4.9c-8.1,8.1-13.8,18.3-17.2,30.6
			c-0.8,2.8-1.2,5.4-1.2,7.9c0,1.8,0.2,3.5,0.6,5.1c0.5,2.1,1.3,3.7,2.5,4.8c3-1.2,6-3.4,9.1-6.6c2.7-2.8,5.1-5.7,7.1-8.6
			c2-2.9,4.7-7.1,7.9-12.5c0.7-1.2,1.1-2.4,1.3-3.8L700.8,693.4z"/>
		<path class="st1" d="M799.7,560.2c0.3,0.2,0.5,0.5,0.5,0.8s-0.1,0.7-0.4,1.3l-5.8,10.4c-4.6,8.5-8.6,16.1-12,23
			c-3.5,7-8.2,17.8-14.2,32.2c-8.6,20.8-15,39.1-19.2,54.7c-0.4,1.3-2.4,9.2-6.1,23.7c-0.9,4-1.5,6.6-1.9,7.9
			c-1.4,5.9-2.4,11.4-2.7,16.5c-0.1,1.2-0.1,2.2-0.1,3.1c0,0.9,0.1,1.7,0.1,2.4c1.7,0.3,2.6,0.4,2.7,0.4c1.1,0.5,1.6,1.1,1.6,1.7
			c0,0.4-0.1,0.8-0.4,1.2c-1.3,1.9-2.9,2.7-4.9,2.3c-2.5-0.6-3.9-1.8-4.3-3.8c-0.4-2.1-0.6-3.7-0.6-4.8c0-3.4,0.5-8.4,1.4-15.2
			c0.2-0.7,0.4-1.9,0.6-3.6c1.4-10.5,4.3-22.8,8.5-36.8c5.3-17.2,10.5-32.2,15.7-44.8c4.6-11.2,11.4-25.7,20.2-43.5
			c3.3-6.5,6.8-12.6,10.5-18.3c3.3-5,6-8.6,8.2-10.8l1-0.7C798.9,559.8,799.4,560,799.7,560.2z"/>
		<path class="st1" d="M830,689.3c0.6,0,1.2,0.3,1.9,0.9c-2.6,2.5-5,5.2-7.2,8.1c-2.2,2.9-4.7,6.5-7.6,10.7l-3.6,5.2
			c-4.7,6.8-8,11.5-10,14c-1.2,1.5-2.8,3.2-4.9,4.9c-1.2,1.1-2.6,1.6-4.3,1.6c-1.2,0-2.3-0.3-3.3-0.9c-1.1-0.6-1.9-1.5-2.6-2.7
			c-1.1-1.8-1.6-3.9-1.6-6.4c0-5.7,0.4-10.2,1.3-13.6l0.4-3c-0.5,0.6-0.9,1.1-1.2,1.4c-0.3,0.4-0.6,0.8-0.9,1.2
			c-2.6,4.4-6.8,9.7-12.6,15.7c-2.2,2.4-4.6,4.2-7.1,5.3c-1.3,0.6-2.6,0.9-3.9,0.9c-1.7,0-3.5-0.6-5.2-1.7c-1.5-1.2-2.6-2.6-3.2-4.5
			c-0.8-2.6-1.2-5.2-1.2-7.7c0-7,1.9-14.4,5.6-22.2c3.8-7.9,8-13.8,12.7-17.8c2.1-1.8,4.2-3.4,6.4-4.6c1.5-1,3.1-1.4,4.6-1.4
			c1.6,0,3.2,0.4,4.6,1.3c3.4,1.6,5.1,4,5.1,7.2c0,1.3-0.1,2.7-0.3,4.3s-0.3,2.7-0.4,3.4h0.4c0.6,0,1.1-0.4,1.4-1.3
			c0.9-2.2,2-4.6,3.3-7.2l1.3-2.7c0.4-0.9,0.9-2,1.4-3.3c0.6-1.3,1.2-2.5,1.7-3.3c1.3,0.2,2.2,0.4,2.5,0.6c0.3,0.2,1,0.8,2,1.7
			c-0.5,1.4-0.8,2.4-1,2.7c-4.6,9.3-8.5,21.2-11.6,35.5c-0.6,2.7-1.1,6.9-1.4,12.6c-0.1,1.6,0.1,3.7,0.6,6.1c0.1,1,0.6,1.4,1.6,1.4
			c0.4,0,0.8-0.1,1.2-0.4c1.6-1.2,3.1-2.5,4.5-4c1.1-1.1,2.1-2.4,3.2-4.1c1.1-1.7,2-2.9,2.5-3.7l7.1-9.8l6.9-9.8
			c1.2-1.7,3.4-4.3,6.5-7.8c0.7-0.8,1.6-1.5,2.7-2.2C829,689.5,829.5,689.3,830,689.3z M787.4,693.4c0.7-4.5,1-8.4,1-11.7
			c0-1.1-0.1-2.1-0.4-3c-0.5-1.6-1.3-2.5-2.6-2.5c-0.2,0-0.7,0.1-1.4,0.3c-2.4,0.9-4.8,2.5-7.2,4.9c-8.1,8.1-13.8,18.3-17.2,30.6
			c-0.8,2.8-1.2,5.4-1.2,7.9c0,1.8,0.2,3.5,0.6,5.1c0.5,2.1,1.3,3.7,2.5,4.8c3-1.2,6-3.4,9.1-6.6c2.7-2.8,5.1-5.7,7.1-8.6
			c2-2.9,4.7-7.1,7.9-12.5c0.7-1.2,1.1-2.4,1.3-3.8L787.4,693.4z"/>
	</g>
</g>
<g>
	<path class="st1" d="M150.4,941.2l-0.4,1.5h-22l0.6-1.5c2.2,0,3.6-0.2,4.3-0.5c1.2-0.5,2-1.1,2.5-1.9c0.9-1.2,1.8-3.4,2.7-6.6
		l9.3-32.2c0.8-2.7,1.2-4.7,1.2-6.1c0-0.7-0.2-1.3-0.5-1.7c-0.3-0.5-0.9-0.8-1.5-1.1s-2-0.4-4.1-0.4l0.4-1.5h20.6l-0.4,1.5
		c-1.7,0-2.9,0.1-3.7,0.5c-1.2,0.6-2.1,1.3-2.7,2.3c-0.6,1-1.4,3.1-2.4,6.4l-9.2,32.2c-0.8,3-1.3,4.9-1.3,5.7c0,0.7,0.2,1.2,0.5,1.7
		c0.3,0.5,0.8,0.8,1.6,1C146.6,940.9,148.1,941.1,150.4,941.2z"/>
	<path class="st1" d="M199.3,909.5l-1.1,4.1h-6.6c0.5,1.4,0.7,2.8,0.7,4c0,3.5-1.5,6.6-4.4,9.3c-3,2.7-7,4.2-12.2,4.4
		c-2.8,0.8-4.9,1.9-6.2,3c-0.5,0.4-0.8,0.8-0.8,1.3c0,0.5,0.2,1,0.7,1.4c0.5,0.4,1.7,0.9,3.5,1.3l7.7,1.8c4.2,1,7,2.1,8.3,3.5
		c1.3,1.4,2,3,2,4.8c0,2.1-0.8,4.1-2.4,5.9c-1.6,1.8-3.9,3.2-7,4.2c-3.1,1-6.4,1.5-10.1,1.5c-3.3,0-6.2-0.4-8.9-1.2
		c-2.7-0.8-4.6-1.8-5.7-3.1c-1.2-1.3-1.7-2.7-1.7-4.1c0-1.1,0.4-2.3,1.1-3.5c0.7-1.2,1.7-2.2,2.8-3c0.7-0.5,2.7-1.7,6-3.6
		c-1.2-0.9-1.8-2-1.8-3.1c0-1,0.5-2.1,1.6-3.3s3.3-2.5,6.7-3.9c-2.9-0.6-5.2-1.8-6.9-3.6c-1.7-1.9-2.5-3.9-2.5-6.2
		c0-3.7,1.6-7,4.9-10c3.3-2.9,7.6-4.4,13-4.4c2,0,3.6,0.2,4.8,0.6c1.3,0.4,2.5,1,3.7,1.8H199.3z M166.8,942.7
		c-2.1,1-3.7,2.2-4.8,3.7c-1.1,1.5-1.6,3-1.6,4.5c0,1.7,0.8,3.2,2.3,4.3c2.3,1.6,5.6,2.4,9.9,2.4c3.7,0,6.9-0.6,9.6-1.9
		c2.7-1.3,4-2.9,4-4.9c0-1-0.5-2-1.5-2.9c-1-0.9-2.9-1.7-5.7-2.2C177.5,945.3,173.4,944.4,166.8,942.7z M185.6,915.7
		c0-2.1-0.6-3.8-1.8-5c-1.2-1.2-2.7-1.8-4.6-1.8c-3,0-5.4,1.5-7.3,4.5c-1.9,3-2.9,6.1-2.9,9.3c0,2,0.6,3.7,1.8,5
		c1.2,1.3,2.7,1.9,4.5,1.9c1.4,0,2.8-0.4,4.1-1.1c1.3-0.8,2.4-1.8,3.3-3.1c0.9-1.3,1.6-3,2.1-5.1
		C185.4,918.1,185.6,916.7,185.6,915.7z"/>
	<path class="st1" d="M221.5,886.8l-13.4,46.8c-0.7,2.3-1,3.8-1,4.3c0,0.4,0.1,0.7,0.4,1c0.2,0.3,0.5,0.4,0.9,0.4
		c0.5,0,1.1-0.2,1.6-0.7c1.4-1.1,2.8-2.7,4.3-5l1.2,1.2c-2.5,3.5-4.8,6-6.9,7.4c-1.5,1-3,1.5-4.4,1.5c-1,0-1.8-0.3-2.5-1
		c-0.7-0.7-1-1.5-1-2.3c0-0.9,0.4-2.9,1.2-5.8l10.7-36.9c0.8-3,1.3-4.8,1.3-5.2c0-0.7-0.3-1.2-0.8-1.6c-0.5-0.4-1.3-0.6-2.3-0.6
		c-0.6,0-1.5,0.1-2.7,0.3V889L221.5,886.8z"/>
	<path class="st1" d="M229.5,927.9c-0.2,1.3-0.2,2.4-0.2,3.2c0,2.3,0.8,4.3,2.5,6c1.6,1.6,3.7,2.5,6,2.5c1.9,0,3.7-0.4,5.4-1.2
		c1.7-0.8,4.3-2.5,7.7-5.1l0.8,1.1c-6.2,6.2-12.1,9.2-17.8,9.2c-3.8,0-6.7-1.2-8.6-3.6c-1.9-2.4-2.9-5.1-2.9-8c0-3.9,1.2-7.9,3.6-12
		c2.4-4.1,5.4-7.3,9.1-9.5c3.6-2.3,7.4-3.4,11.3-3.4c2.8,0,4.8,0.6,6.2,1.7c1.3,1.1,2,2.5,2,4c0,2.2-0.9,4.3-2.6,6.2
		c-2.3,2.6-5.6,4.7-10.1,6.3C239,926.4,234.8,927.3,229.5,927.9z M229.8,925.9c3.9-0.5,7-1.2,9.5-2.3c3.2-1.4,5.6-3.1,7.3-5.2
		s2.4-3.9,2.4-5.7c0-1.1-0.4-2-1-2.6c-0.7-0.7-1.7-1-3-1c-2.7,0-5.5,1.4-8.5,4.2C233.4,916.2,231.2,920.4,229.8,925.9z"/>
	<path class="st1" d="M284.9,907.1l-2.4,12.1H281c-0.1-3.5-0.9-6.1-2.2-7.7c-1.4-1.6-3.1-2.4-5.1-2.4c-1.6,0-2.9,0.4-3.8,1.3
		c-1,0.9-1.4,2-1.4,3.2c0,0.8,0.2,1.7,0.6,2.5c0.4,0.8,1.2,1.9,2.5,3.3c3.4,3.7,5.6,6.6,6.6,8.4c1,1.9,1.5,3.7,1.5,5.3
		c0,2.7-1.1,5.2-3.4,7.3c-2.3,2.1-5.1,3.1-8.6,3.1c-1.9,0-4.1-0.4-6.5-1.3c-0.8-0.3-1.5-0.5-2-0.5c-1.2,0-2.1,0.6-2.7,1.8h-1.4
		l2.4-12.7h1.5c0.1,4,0.9,6.8,2.4,8.5c1.5,1.6,3.5,2.5,6.2,2.5c2,0,3.6-0.6,4.7-1.7c1.2-1.1,1.8-2.5,1.8-4.1c0-1-0.2-2-0.6-2.9
		c-0.7-1.6-2.3-3.7-4.6-6.5s-3.8-4.9-4.5-6.2c-0.7-1.4-1-2.8-1-4.2c0-2.5,0.9-4.7,2.8-6.4s4.2-2.6,7.1-2.6c0.8,0,1.6,0.1,2.3,0.2
		c0.4,0.1,1.2,0.4,2.6,0.9c1.4,0.5,2.3,0.8,2.7,0.8c1.1,0,2.1-0.6,2.8-1.9H284.9z"/>
	<path class="st1" d="M305.5,907.1l-7.8,27.6c-0.5,1.9-0.8,3-0.8,3.3c0,0.4,0.1,0.8,0.4,1c0.2,0.3,0.5,0.4,0.9,0.4
		c0.4,0,0.9-0.2,1.4-0.6c1.5-1.2,3-2.8,4.5-5l1.4,0.9c-1.8,2.7-3.9,5-6.3,6.9c-1.8,1.4-3.5,2.1-5.1,2.1c-1.1,0-2-0.3-2.6-1
		s-1-1.4-1-2.4s0.3-2.6,1-4.8l5.1-17.6c0.8-2.9,1.2-4.7,1.2-5.4c0-0.6-0.2-1-0.6-1.4c-0.4-0.4-1-0.6-1.6-0.6c-0.6,0-1.8,0.1-3.6,0.4
		v-1.5L305.5,907.1z M305,891.5c1.1,0,2,0.4,2.8,1.1c0.7,0.8,1.1,1.7,1.1,2.8s-0.4,2-1.1,2.8c-0.8,0.8-1.7,1.2-2.8,1.2
		s-2-0.4-2.8-1.2s-1.2-1.7-1.2-2.8s0.4-2,1.1-2.8C303,891.9,303.9,891.5,305,891.5z"/>
	<path class="st1" d="M347.2,907.1l-7.7,26.7l-0.9,3.6c-0.1,0.3-0.1,0.6-0.1,0.8c0,0.4,0.1,0.8,0.4,1.1c0.2,0.2,0.5,0.3,0.8,0.3
		c0.3,0,0.8-0.2,1.3-0.6c1-0.7,2.4-2.3,4.1-4.7l1.3,0.9c-1.8,2.7-3.6,4.8-5.6,6.2c-1.9,1.4-3.7,2.1-5.3,2.1c-1.1,0-1.9-0.3-2.5-0.8
		c-0.6-0.6-0.9-1.4-0.9-2.4c0-1.3,0.3-3,0.9-5.1l0.8-3c-3.5,4.5-6.6,7.6-9.5,9.4c-2.1,1.3-4.1,1.9-6.1,1.9c-1.9,0-3.6-0.8-5-2.4
		c-1.4-1.6-2.1-3.8-2.1-6.5c0-4.2,1.2-8.6,3.7-13.2s5.7-8.3,9.5-11.1c3-2.2,5.8-3.3,8.5-3.3c1.6,0,3,0.4,4,1.3
		c1.1,0.8,1.9,2.2,2.4,4.2l1.4-4.5L347.2,907.1z M333.2,909.1c-1.7,0-3.4,0.8-5.3,2.4c-2.7,2.2-5.1,5.5-7.2,9.9
		c-2.1,4.4-3.1,8.3-3.1,11.9c0,1.8,0.4,3.2,1.3,4.2c0.9,1,1.9,1.6,3.1,1.6c2.8,0,5.9-2.1,9.3-6.3c4.5-5.6,6.7-11.3,6.7-17.2
		c0-2.2-0.4-3.8-1.3-4.8C335.8,909.7,334.7,909.1,333.2,909.1z"/>
	<path class="st1" d="M370.3,943.9l4.4-19.8h1.4c-0.2,1.9-0.3,3.5-0.3,4.7c0,3.6,1.1,6.5,3.4,8.8s5.3,3.4,9,3.4c3.4,0,6-1,7.8-3.1
		c1.8-2.1,2.7-4.5,2.7-7.3c0-1.8-0.4-3.4-1.2-4.9c-1.2-2.2-4.5-6-9.9-11.5c-2.6-2.6-4.2-4.6-5-5.9c-1.2-2.1-1.8-4.3-1.8-6.7
		c0-3.7,1.4-6.9,4.2-9.5c2.8-2.7,6.3-4,10.7-4c1.5,0,2.9,0.1,4.2,0.4c0.8,0.2,2.3,0.7,4.4,1.6c1.5,0.6,2.3,0.9,2.5,1
		c0.4,0.1,0.8,0.1,1.2,0.1c0.8,0,1.4-0.2,2-0.6s1.2-1.2,1.9-2.5h1.5l-4.1,17.7h-1.4c0.1-1.6,0.2-2.9,0.2-3.8c0-3.2-1-5.8-3.1-7.8
		c-2.1-2-4.9-3-8.3-3c-2.7,0-4.9,0.8-6.6,2.4c-1.7,1.6-2.6,3.5-2.6,5.6c0,1.8,0.5,3.6,1.6,5.2c1.1,1.7,3.6,4.4,7.5,8.1
		c3.9,3.8,6.5,6.7,7.6,8.8c1.1,2.1,1.7,4.4,1.7,6.7c0,2.7-0.7,5.3-2.1,7.9s-3.5,4.5-6.2,5.9s-5.6,2.1-8.8,2.1c-1.6,0-3-0.1-4.4-0.4
		s-3.5-1-6.5-2.1c-1-0.4-1.9-0.6-2.5-0.6c-1.6,0-2.8,1-3.6,3.1H370.3z"/>
	<path class="st1" d="M447.8,907.1l-7.7,26.7l-0.9,3.6c-0.1,0.3-0.1,0.6-0.1,0.8c0,0.4,0.1,0.8,0.4,1.1c0.2,0.2,0.5,0.3,0.8,0.3
		c0.3,0,0.8-0.2,1.3-0.6c1-0.7,2.4-2.3,4.1-4.7l1.3,0.9c-1.8,2.7-3.6,4.8-5.6,6.2c-1.9,1.4-3.7,2.1-5.3,2.1c-1.1,0-1.9-0.3-2.5-0.8
		c-0.6-0.6-0.9-1.4-0.9-2.4c0-1.3,0.3-3,0.9-5.1l0.8-3c-3.5,4.5-6.6,7.6-9.5,9.4c-2.1,1.3-4.1,1.9-6.1,1.9c-1.9,0-3.6-0.8-5-2.4
		c-1.4-1.6-2.1-3.8-2.1-6.5c0-4.2,1.2-8.6,3.7-13.2s5.7-8.3,9.5-11.1c3-2.2,5.8-3.3,8.5-3.3c1.6,0,3,0.4,4,1.3
		c1.1,0.8,1.9,2.2,2.4,4.2l1.4-4.5L447.8,907.1z M433.7,909.1c-1.7,0-3.4,0.8-5.3,2.4c-2.7,2.2-5.1,5.5-7.2,9.9
		c-2.1,4.4-3.1,8.3-3.1,11.9c0,1.8,0.4,3.2,1.3,4.2c0.9,1,1.9,1.6,3.1,1.6c2.8,0,5.9-2.1,9.3-6.3c4.5-5.6,6.7-11.3,6.7-17.2
		c0-2.2-0.4-3.8-1.3-4.8C436.4,909.7,435.2,909.1,433.7,909.1z"/>
	<path class="st1" d="M468,907.1l-5.2,17.9c4.9-7.3,8.6-12.1,11.3-14.5c2.6-2.3,5.1-3.5,7.5-3.5c1.3,0,2.4,0.4,3.2,1.3
		c0.8,0.9,1.3,2,1.3,3.4c0,1.6-0.4,3.7-1.1,6.3l-4.8,16.6c-0.6,1.9-0.8,3.1-0.8,3.5c0,0.4,0.1,0.7,0.3,0.9c0.2,0.2,0.4,0.4,0.7,0.4
		c0.3,0,0.7-0.2,1.1-0.5c1.4-1.1,2.9-2.8,4.6-5l1.2,0.7c-2.4,3.5-4.8,6-6.9,7.5c-1.5,1-2.9,1.5-4.1,1.5c-1,0-1.8-0.3-2.3-0.9
		c-0.6-0.6-0.9-1.4-0.9-2.3c0-1.3,0.4-3.4,1.3-6.5l4.6-15.8c0.6-2,0.8-3.5,0.8-4.6c0-0.5-0.2-0.9-0.5-1.3c-0.3-0.3-0.8-0.5-1.2-0.5
		c-0.7,0-1.6,0.3-2.6,0.9c-1.9,1.2-3.9,3.1-6,5.8c-2.1,2.7-4.3,6.2-6.7,10.4c-1.2,2.2-2.3,4.7-3.1,7.3l-2,6.5h-5.9l7.2-24.6
		c0.8-3,1.3-4.7,1.3-5.3s-0.2-1.1-0.7-1.5c-0.5-0.4-1-0.7-1.7-0.7c-0.3,0-0.9,0.1-1.7,0.2l-1.5,0.2l-0.2-1.4L468,907.1z"/>
	<path class="st1" d="M523.1,889.4h20.9c5.5,0,9.7,1.2,12.4,3.6c2.7,2.4,4.1,5.3,4.1,8.7c0,2.7-0.9,5.3-2.6,7.9
		c-1.7,2.5-4.3,4.6-7.7,6.2c-3.4,1.6-7.1,2.4-11,2.4c-2.5,0-5.6-0.4-9.4-1.3l-4.2,14.6c-1,3.5-1.5,5.7-1.5,6.8c0,0.8,0.3,1.5,1,2.1
		c0.7,0.5,2.4,0.9,5.1,1l-0.4,1.5h-21.1l0.4-1.5c2.8,0,4.7-0.5,5.8-1.4c1.1-1,2.3-3.6,3.5-7.9l8.8-30.4c1-3.6,1.6-6.1,1.6-7.3
		c0-0.9-0.4-1.7-1.1-2.3c-0.7-0.6-2.4-1-4.9-1.1L523.1,889.4z M530.5,914.2c3,0.8,5.4,1.2,7.2,1.2c2.8,0,5.4-0.6,7.8-1.8
		c2.3-1.2,4.2-3,5.5-5.3c1.3-2.4,2-4.8,2-7.3c0-2.6-0.8-4.7-2.4-6.3c-1.6-1.5-4.1-2.3-7.4-2.3c-1.8,0-4,0.2-6.5,0.6L530.5,914.2z"/>
	<path class="st1" d="M578.2,907.1l-7.8,27.6c-0.5,1.9-0.8,3-0.8,3.3c0,0.4,0.1,0.8,0.4,1c0.2,0.3,0.5,0.4,0.9,0.4
		c0.4,0,0.9-0.2,1.4-0.6c1.5-1.2,3-2.8,4.5-5l1.4,0.9c-1.8,2.7-3.9,5-6.3,6.9c-1.8,1.4-3.5,2.1-5.1,2.1c-1.1,0-2-0.3-2.6-1
		s-1-1.4-1-2.4s0.3-2.6,1-4.8l5.1-17.6c0.8-2.9,1.2-4.7,1.2-5.4c0-0.6-0.2-1-0.6-1.4c-0.4-0.4-1-0.6-1.6-0.6c-0.6,0-1.8,0.1-3.6,0.4
		v-1.5L578.2,907.1z M586.6,887.6l-11.5,13.5h-1.4l4.1-13.5H586.6z"/>
	<path class="st1" d="M619.3,919.4c0,3.9-1,7.8-3.1,11.7c-2.1,3.9-5,6.9-8.7,9.2s-7.3,3.4-10.8,3.4c-3.6,0-6.5-1.1-8.8-3.4
		c-2.3-2.3-3.4-5.2-3.4-8.9c0-3.9,1.1-7.7,3.3-11.6c2.2-3.9,5.2-6.9,8.9-9.2c3.7-2.3,7.3-3.4,10.7-3.4c3.5,0,6.3,1.1,8.6,3.4
		C618.2,912.8,619.3,915.8,619.3,919.4z M612.8,916.7c0-2.4-0.6-4.3-1.8-5.6c-1.2-1.3-2.8-2-4.6-2c-3.8,0-7.4,2.8-10.6,8.3
		c-3.2,5.5-4.9,11-4.9,16.5c0,2.5,0.6,4.4,1.9,5.7c1.3,1.4,2.8,2,4.7,2c3.7,0,7.2-2.7,10.4-8.2C611.2,928,612.8,922.4,612.8,916.7z"
		/>
	<path class="st1" d="M684,889.4h18l-0.4,1.5c-2.5,0.4-4.8,1.1-6.6,2.3c-1.9,1.2-4.5,3.5-7.8,7l-13.8,14.2l3.9,14.3
		c0.4,1.4,1.1,3.5,2.1,6.3c0.6,1.8,1.2,3.1,1.9,3.9c0.6,0.8,1.4,1.4,2.4,1.8c1,0.4,2.4,0.6,4.3,0.7l-0.4,1.5h-20.9l0.4-1.5
		c2.1-0.1,3.7-0.5,4.6-1.2c0.7-0.5,1.1-1.2,1.1-2.1c0-0.7-0.3-2.3-1-4.8l-3.8-13.4l-12.5,12.6c-2.4,2.5-3.9,4.2-4.3,4.9
		c-0.3,0.5-0.4,0.9-0.4,1.4c0,0.8,0.4,1.4,1.2,2c0.4,0.2,1.5,0.4,3.4,0.6l-0.4,1.5h-17.7l0.4-1.5c2.2-0.2,4-0.7,5.4-1.5
		c2.1-1.2,4.9-3.7,8.6-7.4l15.5-15.5l-4.2-15.4c-1.3-4.7-2.4-7.6-3.3-8.7c-1-1.1-2.6-1.7-5-1.9l0.4-1.5h19l-0.4,1.5
		c-1.8,0-2.9,0.1-3.6,0.3c-0.6,0.2-1.1,0.6-1.4,1c-0.3,0.5-0.5,1-0.5,1.6c0,0.6,0.3,2.1,0.9,4.4l3.6,13.1l8.3-8.3
		c3.3-3.3,5.6-5.9,6.8-8c0.4-0.7,0.6-1.4,0.6-1.9c0-0.6-0.2-1.1-0.7-1.4c-0.7-0.5-2-0.7-4-0.8L684,889.4z"/>
	<path class="st1" d="M724.6,907.1c0.9,1.5,1.5,3,1.9,4.3s0.7,3.9,1,7.8l1.7,19.3c1.6-1.9,3.9-4.9,6.8-9c1.5-2,3.3-4.7,5.4-8.2
		c1.3-2.1,2.1-3.5,2.3-4.4c0.2-0.4,0.2-0.8,0.2-1.3c0-0.3-0.1-0.5-0.3-0.7c-0.2-0.2-0.7-0.4-1.4-0.7c-0.8-0.3-1.4-0.7-1.9-1.4
		c-0.5-0.7-0.8-1.4-0.8-2.3c0-1.1,0.3-1.9,1-2.6c0.6-0.7,1.4-1,2.4-1c1.1,0,2.1,0.5,2.9,1.4c0.8,1,1.2,2.3,1.2,4
		c0,2.1-0.7,4.4-2.1,7.1c-1.4,2.7-4.1,6.8-8.2,12.3c-4,5.5-8.9,11.5-14.6,18c-4,4.5-6.9,7.3-8.8,8.4s-3.5,1.8-4.9,1.8
		c-0.8,0-1.5-0.3-2.1-0.9c-0.6-0.6-0.9-1.3-0.9-2.1c0-1,0.4-1.9,1.3-2.8c0.8-0.8,1.8-1.3,2.8-1.3c0.5,0,0.9,0.1,1.3,0.3
		c0.2,0.1,0.5,0.5,0.7,1.1c0.2,0.6,0.5,1,0.7,1.3c0.1,0.1,0.3,0.2,0.4,0.2c0.2,0,0.4-0.1,0.8-0.4c1.4-0.9,3.1-2.3,5-4.2
		c2.5-2.6,4.4-4.7,5.6-6.3l-2.2-24.9c-0.4-4.1-0.9-6.6-1.6-7.5c-0.7-0.9-2-1.3-3.7-1.3c-0.6,0-1.5,0.1-2.9,0.2l-0.4-1.5L724.6,907.1
		z"/>
	<path class="st1" d="M768.1,943.9l4.4-19.8h1.4c-0.2,1.9-0.3,3.5-0.3,4.7c0,3.6,1.1,6.5,3.4,8.8s5.3,3.4,9,3.4c3.4,0,6-1,7.8-3.1
		c1.8-2.1,2.7-4.5,2.7-7.3c0-1.8-0.4-3.4-1.2-4.9c-1.2-2.2-4.5-6-9.9-11.5c-2.6-2.6-4.2-4.6-5-5.9c-1.2-2.1-1.8-4.3-1.8-6.7
		c0-3.7,1.4-6.9,4.2-9.5c2.8-2.7,6.3-4,10.7-4c1.5,0,2.9,0.1,4.2,0.4c0.8,0.2,2.3,0.7,4.4,1.6c1.5,0.6,2.3,0.9,2.5,1
		c0.4,0.1,0.8,0.1,1.2,0.1c0.8,0,1.4-0.2,2-0.6s1.2-1.2,1.9-2.5h1.5l-4.1,17.7h-1.4c0.1-1.6,0.2-2.9,0.2-3.8c0-3.2-1-5.8-3.1-7.8
		c-2.1-2-4.9-3-8.3-3c-2.7,0-4.9,0.8-6.6,2.4c-1.7,1.6-2.6,3.5-2.6,5.6c0,1.8,0.5,3.6,1.6,5.2c1.1,1.7,3.6,4.4,7.5,8.1
		c3.9,3.8,6.5,6.7,7.6,8.8c1.1,2.1,1.7,4.4,1.7,6.7c0,2.7-0.7,5.3-2.1,7.9s-3.5,4.5-6.2,5.9s-5.6,2.1-8.8,2.1c-1.6,0-3-0.1-4.4-0.4
		s-3.5-1-6.5-2.1c-1-0.4-1.9-0.6-2.5-0.6c-1.6,0-2.8,1-3.6,3.1H768.1z"/>
	<path class="st1" d="M845.6,907.1l-7.7,26.7l-0.9,3.6c-0.1,0.3-0.1,0.6-0.1,0.8c0,0.4,0.1,0.8,0.4,1.1c0.2,0.2,0.5,0.3,0.8,0.3
		c0.3,0,0.8-0.2,1.3-0.6c1-0.7,2.4-2.3,4.1-4.7l1.3,0.9c-1.8,2.7-3.6,4.8-5.6,6.2c-1.9,1.4-3.7,2.1-5.3,2.1c-1.1,0-1.9-0.3-2.5-0.8
		c-0.6-0.6-0.9-1.4-0.9-2.4c0-1.3,0.3-3,0.9-5.1l0.8-3c-3.5,4.5-6.6,7.6-9.5,9.4c-2.1,1.3-4.1,1.9-6.1,1.9c-1.9,0-3.6-0.8-5-2.4
		c-1.4-1.6-2.1-3.8-2.1-6.5c0-4.2,1.2-8.6,3.7-13.2s5.7-8.3,9.5-11.1c3-2.2,5.8-3.3,8.5-3.3c1.6,0,3,0.4,4,1.3
		c1.1,0.8,1.9,2.2,2.4,4.2l1.4-4.5L845.6,907.1z M831.6,909.1c-1.7,0-3.4,0.8-5.3,2.4c-2.7,2.2-5.1,5.5-7.2,9.9
		c-2.1,4.4-3.1,8.3-3.1,11.9c0,1.8,0.4,3.2,1.3,4.2c0.9,1,1.9,1.6,3.1,1.6c2.8,0,5.9-2.1,9.3-6.3c4.5-5.6,6.7-11.3,6.7-17.2
		c0-2.2-0.4-3.8-1.3-4.8C834.3,909.7,833.1,909.1,831.6,909.1z"/>
	<path class="st1" d="M865.8,907.1l-5.2,17.9c4.9-7.3,8.6-12.1,11.3-14.5c2.6-2.3,5.1-3.5,7.5-3.5c1.3,0,2.4,0.4,3.2,1.3
		c0.8,0.9,1.3,2,1.3,3.4c0,1.6-0.4,3.7-1.1,6.3l-4.8,16.6c-0.6,1.9-0.8,3.1-0.8,3.5c0,0.4,0.1,0.7,0.3,0.9c0.2,0.2,0.4,0.4,0.7,0.4
		c0.3,0,0.7-0.2,1.1-0.5c1.4-1.1,2.9-2.8,4.6-5l1.2,0.7c-2.4,3.5-4.8,6-6.9,7.5c-1.5,1-2.9,1.5-4.1,1.5c-1,0-1.8-0.3-2.3-0.9
		c-0.6-0.6-0.9-1.4-0.9-2.3c0-1.3,0.4-3.4,1.3-6.5l4.6-15.8c0.6-2,0.8-3.5,0.8-4.6c0-0.5-0.2-0.9-0.5-1.3c-0.3-0.3-0.8-0.5-1.2-0.5
		c-0.7,0-1.6,0.3-2.6,0.9c-1.9,1.2-3.9,3.1-6,5.8c-2.1,2.7-4.3,6.2-6.7,10.4c-1.2,2.2-2.3,4.7-3.1,7.3l-2,6.5h-5.9l7.2-24.6
		c0.8-3,1.3-4.7,1.3-5.3s-0.2-1.1-0.7-1.5c-0.5-0.4-1-0.7-1.7-0.7c-0.3,0-0.9,0.1-1.7,0.2l-1.5,0.2l-0.2-1.4L865.8,907.1z"/>
	<path class="st1" d="M941.8,942.7l-8.5-25.9c-2,0-4-0.2-6.1-0.6l-4.6,16.1c-0.6,2.1-0.9,3.9-0.9,5.3c0,1.1,0.4,2,1.1,2.6
		c0.6,0.5,2.2,0.8,4.7,1l-0.3,1.5h-20.7l0.4-1.5c2-0.1,3.3-0.3,4-0.6c1.1-0.5,1.9-1.1,2.3-1.8c0.8-1.2,1.7-3.4,2.6-6.5l9.3-32.2
		c0.6-2.1,0.9-3.8,0.9-5c0-1.2-0.5-2.2-1.5-3.1c-1-0.8-2.4-1.3-4.2-1.2l0.5-1.5h17.4c5.8,0,10,1.1,12.5,3.3c2.6,2.2,3.9,5.1,3.9,8.7
		c0,3.4-1.3,6.6-4,9.4c-2.6,2.8-6.2,4.6-10.8,5.4l5.2,15.6c1.2,3.8,2.5,6.3,3.8,7.5c1.3,1.1,3.3,1.8,6.1,2l-0.4,1.5H941.8z
		 M927.8,914c1.7,0.2,3.2,0.3,4.5,0.3c4.5,0,8.1-1.3,10.7-3.8c2.6-2.5,3.9-5.6,3.9-9.3c0-2.9-0.8-5.2-2.5-6.7
		c-1.6-1.5-4.1-2.3-7.4-2.3c-0.8,0-1.8,0.1-3,0.3L927.8,914z"/>
	<path class="st1" d="M994.8,919.4c0,3.9-1,7.8-3.1,11.7c-2.1,3.9-5,6.9-8.7,9.2s-7.3,3.4-10.8,3.4c-3.6,0-6.5-1.1-8.8-3.4
		c-2.3-2.3-3.4-5.2-3.4-8.9c0-3.9,1.1-7.7,3.3-11.6c2.2-3.9,5.2-6.9,8.9-9.2c3.7-2.3,7.3-3.4,10.7-3.4c3.5,0,6.3,1.1,8.6,3.4
		C993.7,912.8,994.8,915.8,994.8,919.4z M988.3,916.7c0-2.4-0.6-4.3-1.8-5.6c-1.2-1.3-2.8-2-4.6-2c-3.8,0-7.4,2.8-10.6,8.3
		c-3.2,5.5-4.9,11-4.9,16.5c0,2.5,0.6,4.4,1.9,5.7c1.3,1.4,2.8,2,4.7,2c3.7,0,7.2-2.7,10.4-8.2C986.7,928,988.3,922.4,988.3,916.7z"
		/>
	<path class="st1" d="M1036,907.1l-12.9,44.4c-0.6,2.1-0.8,3.4-0.8,4s0.1,1.1,0.4,1.5s0.7,0.8,1.2,1c0.8,0.3,1.9,0.5,3.2,0.5
		l-0.4,1.5h-18.8l0.4-1.5c2.6-0.2,4.2-0.5,4.8-0.7c1-0.4,1.8-1,2.5-1.9c0.6-0.9,1.3-2.8,2.1-5.6l5.4-19.4c-3.5,5-6.7,8.6-9.7,10.6
		c-2.1,1.4-4.1,2.1-5.9,2.1c-2.6,0-4.6-1.1-6-3.2c-1.3-2.1-2-4.5-2-7c0-3.9,1.2-8.1,3.7-12.4s5.6-7.9,9.6-10.7
		c3.1-2.2,5.9-3.3,8.4-3.3c1.9,0,3.4,0.5,4.6,1.4c1.2,0.9,2.1,2.4,2.7,4.3l1.2-4.4L1036,907.1z M1027,914.8c0-1.7-0.5-3-1.5-4.1
		s-2.3-1.6-3.8-1.6c-3.2,0-6.6,2.8-10.1,8.3c-3.5,5.5-5.3,10.7-5.3,15.6c0,2,0.4,3.4,1.3,4.5s1.9,1.5,3.2,1.5c1.6,0,3.5-0.9,5.5-2.7
		c3.1-2.7,5.6-6.2,7.7-10.4C1026,921.6,1027,917.9,1027,914.8z"/>
	<path class="st1" d="M1075.9,908.1l-6.8,23.4c-1,3.5-1.5,5.7-1.5,6.6c0,0.5,0.1,0.8,0.2,1c0.2,0.2,0.4,0.3,0.7,0.3
		c0.5,0,1-0.2,1.5-0.6c0.5-0.4,1.9-2,4-4.9l1.2,0.9c-2.1,3.3-4.2,5.7-6.4,7.2c-1.4,1-2.8,1.5-4.2,1.5c-1,0-1.8-0.3-2.4-0.9
		c-0.6-0.6-0.9-1.3-0.9-2.2c0-0.9,0.2-2.1,0.5-3.6c0.4-1.9,1.6-6.1,3.6-12.6c-4.5,7.3-8.2,12.4-11.2,15.1c-3,2.8-5.8,4.2-8.3,4.2
		c-1.2,0-2.2-0.4-3.1-1.2c-0.8-0.8-1.3-1.9-1.3-3.2c0-2,0.6-5,1.7-9l3.5-12.2c0.8-2.9,1.2-4.7,1.2-5.4c0-0.3-0.1-0.6-0.3-0.8
		c-0.2-0.2-0.4-0.3-0.7-0.3c-0.6,0-1.1,0.2-1.7,0.6c-0.6,0.4-1.8,1.8-3.8,4.3l-1.2-0.8c2-3.1,4.1-5.3,6.2-6.7
		c1.7-1.1,3.2-1.7,4.6-1.7c1,0,1.8,0.3,2.4,0.9c0.6,0.6,0.9,1.4,0.9,2.4c0,1.4-0.5,4-1.6,7.6l-3.7,12.7c-1,3.5-1.5,5.7-1.5,6.6
		c0,0.5,0.2,0.9,0.5,1.2c0.3,0.3,0.8,0.5,1.3,0.5c0.8,0,2-0.4,3.4-1.3c1.4-0.9,3.3-2.8,5.6-5.8c2.3-3,4.2-5.8,5.7-8.4
		c1.5-2.6,3.1-6.8,4.8-12.5l0.9-3H1075.9z"/>
	<path class="st1" d="M1087.8,927.9c-0.2,1.3-0.2,2.4-0.2,3.2c0,2.3,0.8,4.3,2.5,6c1.6,1.6,3.7,2.5,6,2.5c1.9,0,3.7-0.4,5.4-1.2
		c1.7-0.8,4.3-2.5,7.7-5.1l0.8,1.1c-6.2,6.2-12.1,9.2-17.8,9.2c-3.8,0-6.7-1.2-8.6-3.6c-1.9-2.4-2.9-5.1-2.9-8c0-3.9,1.2-7.9,3.6-12
		c2.4-4.1,5.4-7.3,9.1-9.5c3.6-2.3,7.4-3.4,11.3-3.4c2.8,0,4.8,0.6,6.2,1.7c1.3,1.1,2,2.5,2,4c0,2.2-0.9,4.3-2.6,6.2
		c-2.3,2.6-5.6,4.7-10.1,6.3C1097.3,926.4,1093.2,927.3,1087.8,927.9z M1088.1,925.9c3.9-0.5,7-1.2,9.5-2.3c3.2-1.4,5.6-3.1,7.3-5.2
		s2.4-3.9,2.4-5.7c0-1.1-0.4-2-1-2.6c-0.7-0.7-1.7-1-3-1c-2.7,0-5.5,1.4-8.5,4.2C1091.8,916.2,1089.6,920.4,1088.1,925.9z"/>
</g>
<g>
	<path class="st1" d="M224.9,1055.7v11.8c0,2.6,0.3,4.1,0.9,4.8c0.7,0.9,1.9,1.3,3.4,1.3h1.6v1.1h-17.4v-1.1h1.5
		c1.7,0,3-0.6,3.7-1.7c0.4-0.6,0.6-2.1,0.6-4.4v-26.2c0-2.6-0.3-4.1-0.8-4.8c-0.8-0.9-2-1.3-3.5-1.3h-1.5v-1.1h14.9
		c3.6,0,6.5,0.4,8.6,1.1c2.1,0.8,3.9,2,5.3,3.8c1.4,1.8,2.2,3.9,2.2,6.3c0,3.3-1.1,6-3.3,8.1c-2.2,2.1-5.3,3.1-9.3,3.1
		c-1,0-2.1-0.1-3.2-0.2C227.4,1056.2,226.2,1056,224.9,1055.7z M224.9,1054c1.1,0.2,2,0.3,2.8,0.4c0.8,0.1,1.5,0.1,2.1,0.1
		c2.1,0,3.9-0.8,5.4-2.4c1.5-1.6,2.3-3.7,2.3-6.3c0-1.7-0.4-3.4-1.1-4.9c-0.7-1.5-1.7-2.6-3.1-3.4c-1.3-0.7-2.8-1.1-4.5-1.1
		c-1,0-2.3,0.2-3.9,0.6V1054z"/>
	<path class="st1" d="M263.9,1070.8c-2.8,2.2-4.6,3.4-5.3,3.8c-1.1,0.5-2.2,0.7-3.5,0.7c-1.9,0-3.4-0.6-4.7-1.9
		c-1.2-1.3-1.8-3-1.8-5.1c0-1.3,0.3-2.5,0.9-3.5c0.8-1.4,2.2-2.6,4.3-3.8c2-1.2,5.4-2.7,10.1-4.4v-1.1c0-2.7-0.4-4.6-1.3-5.6
		c-0.9-1-2.1-1.5-3.8-1.5c-1.2,0-2.2,0.3-3,1c-0.8,0.7-1.2,1.5-1.2,2.3l0.1,1.7c0,0.9-0.2,1.6-0.7,2.1c-0.5,0.5-1.1,0.7-1.8,0.7
		s-1.4-0.3-1.8-0.8c-0.5-0.5-0.7-1.2-0.7-2.1c0-1.7,0.9-3.3,2.6-4.7c1.8-1.4,4.2-2.2,7.4-2.2c2.4,0,4.4,0.4,6,1.2
		c1.2,0.6,2,1.6,2.6,2.9c0.3,0.9,0.5,2.6,0.5,5.3v9.3c0,2.6,0,4.2,0.1,4.8c0.1,0.6,0.3,1,0.5,1.2c0.2,0.2,0.5,0.3,0.8,0.3
		c0.3,0,0.6-0.1,0.8-0.2c0.4-0.2,1.2-1,2.5-2.2v1.7c-2.3,3-4.4,4.5-6.4,4.5c-1,0-1.7-0.3-2.3-1
		C264.2,1073.6,263.9,1072.4,263.9,1070.8z M263.9,1068.8v-10.5c-3,1.2-4.9,2.1-5.8,2.6c-1.6,0.9-2.7,1.8-3.4,2.8c-0.7,1-1,2-1,3.1
		c0,1.4,0.4,2.6,1.3,3.6c0.9,1,1.8,1.4,3,1.4C259.4,1071.8,261.4,1070.8,263.9,1068.8z"/>
	<path class="st1" d="M293.3,1046.5v9.3h-1c-0.8-2.9-1.7-4.9-2.9-6c-1.2-1.1-2.7-1.6-4.5-1.6c-1.4,0-2.5,0.4-3.4,1.1
		c-0.9,0.7-1.3,1.6-1.3,2.5c0,1.1,0.3,2.1,1,2.9c0.6,0.8,1.9,1.7,3.8,2.6l4.4,2.2c4.1,2,6.1,4.6,6.1,7.8c0,2.5-0.9,4.5-2.8,6
		c-1.9,1.5-4,2.3-6.3,2.3c-1.7,0-3.6-0.3-5.7-0.9c-0.7-0.2-1.2-0.3-1.6-0.3c-0.4,0-0.8,0.3-1.1,0.8h-1v-9.8h1
		c0.6,2.8,1.6,4.9,3.2,6.3c1.6,1.4,3.3,2.1,5.3,2.1c1.4,0,2.5-0.4,3.3-1.2c0.9-0.8,1.3-1.8,1.3-2.9c0-1.4-0.5-2.5-1.5-3.5
		c-1-0.9-2.9-2.1-5.8-3.6c-2.9-1.4-4.8-2.7-5.7-3.9c-0.9-1.1-1.3-2.6-1.3-4.3c0-2.3,0.8-4.1,2.3-5.7c1.5-1.5,3.5-2.3,6-2.3
		c1.1,0,2.4,0.2,3.9,0.7c1,0.3,1.7,0.4,2,0.4c0.3,0,0.6-0.1,0.8-0.2c0.2-0.1,0.4-0.4,0.7-0.9H293.3z"/>
	<path class="st1" d="M304.1,1057.6c0,4.1,1,7.3,3,9.6c2,2.3,4.4,3.5,7,3.5c1.8,0,3.4-0.5,4.7-1.5c1.3-1,2.4-2.7,3.3-5.1l0.9,0.6
		c-0.4,2.7-1.6,5.2-3.6,7.5c-2,2.3-4.5,3.4-7.6,3.4c-3.3,0-6.1-1.3-8.5-3.9c-2.3-2.6-3.5-6-3.5-10.4c0-4.7,1.2-8.3,3.6-11
		c2.4-2.6,5.4-3.9,9.1-3.9c3.1,0,5.6,1,7.6,3c2,2,3,4.7,3,8.1H304.1z M304.1,1055.9h12.7c-0.1-1.8-0.3-3-0.6-3.7
		c-0.5-1.1-1.2-2-2.2-2.6c-1-0.6-2-1-3.1-1c-1.7,0-3.2,0.6-4.5,1.9C305.1,1051.8,304.3,1053.6,304.1,1055.9z"/>
	<path class="st1" d="M340.1,1046.5c4.2,0,7.5,1.6,10,4.7c2.1,2.7,3.2,5.8,3.2,9.3c0,2.5-0.6,4.9-1.8,7.4c-1.2,2.5-2.8,4.4-4.9,5.7
		c-2.1,1.3-4.4,1.9-6.9,1.9c-4.1,0-7.4-1.6-9.9-4.9c-2-2.8-3.1-5.9-3.1-9.3c0-2.5,0.6-5,1.9-7.5c1.2-2.5,2.9-4.3,4.9-5.5
		C335.7,1047.1,337.9,1046.5,340.1,1046.5z M339.2,1048.4c-1,0-2.1,0.3-3.2,0.9c-1.1,0.6-1.9,1.7-2.6,3.3c-0.7,1.6-1,3.6-1,6.1
		c0,4,0.8,7.4,2.4,10.3c1.6,2.9,3.7,4.3,6.3,4.3c1.9,0,3.5-0.8,4.8-2.4c1.3-1.6,1.9-4.3,1.9-8.2c0-4.9-1-8.7-3.1-11.5
		C343.2,1049.4,341.4,1048.4,339.2,1048.4z"/>
	<path class="st1" d="M412.3,1074.7h-10.8l-13.8-19c-1,0-1.8,0-2.5,0c-0.2,0-0.5,0-0.8,0c-0.3,0-0.6,0-0.9,0v11.8
		c0,2.6,0.3,4.1,0.8,4.8c0.8,0.9,1.9,1.3,3.4,1.3h1.6v1.1h-17.4v-1.1h1.5c1.7,0,2.9-0.6,3.7-1.7c0.4-0.6,0.6-2.1,0.6-4.4v-26.2
		c0-2.6-0.3-4.1-0.8-4.8c-0.8-0.9-2-1.3-3.5-1.3h-1.5v-1.1h14.8c4.3,0,7.5,0.3,9.5,0.9c2,0.6,3.8,1.8,5.2,3.5c1.4,1.7,2.1,3.7,2.1,6
		c0,2.5-0.8,4.7-2.4,6.5c-1.6,1.8-4.1,3.1-7.6,3.9l8.4,11.6c1.9,2.7,3.6,4.5,5,5.3c1.4,0.9,3.2,1.4,5.4,1.7V1074.7z M383.4,1053.9
		c0.4,0,0.7,0,1,0c0.3,0,0.5,0,0.7,0c3.9,0,6.8-0.8,8.8-2.5c2-1.7,3-3.8,3-6.4c0-2.5-0.8-4.6-2.4-6.2c-1.6-1.6-3.7-2.4-6.3-2.4
		c-1.1,0-2.7,0.2-4.7,0.6V1053.9z"/>
	<path class="st1" d="M433,1071.7c-1.3,1.4-2.6,2.4-3.9,3c-1.3,0.6-2.6,0.9-4.1,0.9c-3,0-5.6-1.3-7.9-3.8c-2.2-2.5-3.3-5.7-3.3-9.7
		c0-3.9,1.2-7.5,3.7-10.8c2.5-3.3,5.6-4.9,9.5-4.9c2.4,0,4.4,0.8,6,2.3v-5.1c0-3.1-0.1-5-0.2-5.8c-0.1-0.7-0.4-1.2-0.7-1.5
		c-0.3-0.3-0.7-0.4-1.2-0.4c-0.5,0-1.2,0.2-2,0.5l-0.4-1.1l8.2-3.3h1.3v31.7c0,3.2,0.1,5.2,0.2,5.9c0.1,0.7,0.4,1.2,0.7,1.5
		c0.3,0.3,0.7,0.4,1.2,0.4c0.5,0,1.2-0.2,2.1-0.5l0.3,1.1l-8.1,3.4H433V1071.7z M433,1069.6v-14.1c-0.1-1.4-0.5-2.6-1.1-3.7
		c-0.6-1.1-1.4-2-2.4-2.5c-1-0.6-1.9-0.9-2.9-0.9c-1.8,0-3.3,0.8-4.7,2.4c-1.8,2.1-2.7,5.1-2.7,9.1c0,4,0.9,7.1,2.6,9.3
		c1.8,2.1,3.7,3.2,5.9,3.2C429.6,1072.3,431.3,1071.4,433,1069.6z"/>
	<path class="st1" d="M459.8,1070.8c-2.8,2.2-4.6,3.4-5.3,3.8c-1.1,0.5-2.2,0.7-3.5,0.7c-1.9,0-3.4-0.6-4.7-1.9
		c-1.2-1.3-1.8-3-1.8-5.1c0-1.3,0.3-2.5,0.9-3.5c0.8-1.4,2.2-2.6,4.3-3.8c2-1.2,5.4-2.7,10.1-4.4v-1.1c0-2.7-0.4-4.6-1.3-5.6
		c-0.9-1-2.1-1.5-3.8-1.5c-1.2,0-2.2,0.3-3,1c-0.8,0.7-1.2,1.5-1.2,2.3l0.1,1.7c0,0.9-0.2,1.6-0.7,2.1c-0.5,0.5-1.1,0.7-1.8,0.7
		c-0.7,0-1.4-0.3-1.8-0.8c-0.5-0.5-0.7-1.2-0.7-2.1c0-1.7,0.9-3.3,2.6-4.7c1.8-1.4,4.2-2.2,7.4-2.2c2.4,0,4.4,0.4,6,1.2
		c1.2,0.6,2,1.6,2.6,2.9c0.3,0.9,0.5,2.6,0.5,5.3v9.3c0,2.6,0,4.2,0.1,4.8c0.1,0.6,0.3,1,0.5,1.2c0.2,0.2,0.5,0.3,0.8,0.3
		c0.3,0,0.6-0.1,0.8-0.2c0.4-0.2,1.2-1,2.5-2.2v1.7c-2.3,3-4.4,4.5-6.4,4.5c-1,0-1.7-0.3-2.3-1
		C460.2,1073.6,459.9,1072.4,459.8,1070.8z M459.8,1068.8v-10.5c-3,1.2-4.9,2.1-5.8,2.6c-1.6,0.9-2.7,1.8-3.4,2.8c-0.7,1-1,2-1,3.1
		c0,1.4,0.4,2.6,1.3,3.6c0.9,1,1.8,1.4,3,1.4C455.4,1071.8,457.4,1070.8,459.8,1068.8z"/>
	<path class="st1" d="M477.3,1068.9c0.9,0,1.7,0.3,2.4,1c0.6,0.6,0.9,1.4,0.9,2.3c0,0.9-0.3,1.7-1,2.4c-0.6,0.7-1.4,1-2.3,1
		c-0.9,0-1.7-0.3-2.3-1c-0.6-0.7-1-1.4-1-2.4c0-0.9,0.3-1.7,1-2.4C475.6,1069.3,476.4,1068.9,477.3,1068.9z"/>
	<path class="st1" d="M488.3,1085v-1.3c2-0.7,3.6-1.7,4.7-3.1c1.1-1.4,1.7-2.9,1.7-4.6c0-0.4-0.1-0.7-0.3-1
		c-0.1-0.2-0.3-0.3-0.4-0.3c-0.2,0-0.7,0.2-1.5,0.6c-0.3,0.2-0.7,0.3-1.1,0.3c-1,0-1.8-0.3-2.3-0.9c-0.6-0.6-0.9-1.4-0.9-2.4
		c0-1,0.4-1.8,1.1-2.5c0.7-0.7,1.6-1,2.7-1c1.3,0,2.5,0.6,3.5,1.7c1,1.2,1.5,2.7,1.5,4.6c0,2.1-0.7,4-2.1,5.7
		C493.6,1082.5,491.4,1083.9,488.3,1085z"/>
	<path class="st1" d="M543.1,1033.3v1.1c-2.6,0.2-4.8,0.8-6.5,1.6c-1.7,0.8-3.3,2-4.9,3.6c-1.6,1.6-3,3.4-4,5.4
		c-1.1,2-2,4.4-2.7,7.1c2.9-2,5.8-3,8.7-3c2.8,0,5.2,1.1,7.2,3.3s3.1,5.1,3.1,8.6c0,3.4-1,6.5-3.1,9.3c-2.5,3.4-5.8,5.1-9.8,5.1
		c-2.8,0-5.1-0.9-7.1-2.8c-3.8-3.6-5.7-8.2-5.7-13.9c0-3.6,0.7-7.1,2.2-10.4c1.5-3.3,3.5-6.2,6.3-8.7c2.7-2.5,5.3-4.2,7.8-5.1
		c2.5-0.9,4.8-1.3,6.9-1.3H543.1z M524.5,1054.2c-0.3,2.7-0.5,4.9-0.5,6.5c0,1.9,0.4,4,1.1,6.2c0.7,2.2,1.8,4,3.1,5.3
		c1,0.9,2.3,1.4,3.7,1.4c1.7,0,3.3-0.8,4.7-2.5c1.4-1.6,2-4,2-7c0-3.4-0.7-6.4-2-8.9c-1.4-2.5-3.3-3.7-5.8-3.7
		c-0.7,0-1.6,0.2-2.4,0.5C527.5,1052.5,526.2,1053.2,524.5,1054.2z"/>
	<path class="st1" d="M553.5,1038.1l9.9-4.8h1v34.3c0,2.3,0.1,3.7,0.3,4.2c0.2,0.6,0.6,1,1.2,1.3c0.6,0.3,1.8,0.5,3.6,0.5v1.1h-15.3
		v-1.1c1.9,0,3.1-0.2,3.7-0.5c0.6-0.3,0.9-0.7,1.2-1.2c0.2-0.5,0.3-1.9,0.3-4.4v-22c0-3-0.1-4.8-0.3-5.7c-0.1-0.6-0.4-1.1-0.8-1.4
		c-0.4-0.3-0.8-0.5-1.3-0.5c-0.7,0-1.8,0.3-3.1,0.9L553.5,1038.1z"/>
	<path class="st1" d="M580.3,1085v-1.3c2-0.7,3.6-1.7,4.7-3.1c1.1-1.4,1.7-2.9,1.7-4.6c0-0.4-0.1-0.7-0.3-1
		c-0.1-0.2-0.3-0.3-0.4-0.3c-0.2,0-0.7,0.2-1.5,0.6c-0.3,0.2-0.7,0.3-1.1,0.3c-1,0-1.8-0.3-2.3-0.9c-0.6-0.6-0.9-1.4-0.9-2.4
		c0-1,0.4-1.8,1.1-2.5c0.7-0.7,1.6-1,2.7-1c1.3,0,2.5,0.6,3.5,1.7c1,1.2,1.5,2.7,1.5,4.6c0,2.1-0.7,4-2.1,5.7
		C585.6,1082.5,583.3,1083.9,580.3,1085z"/>
	<path class="st1" d="M614.8,1038.1l9.9-4.8h1v34.3c0,2.3,0.1,3.7,0.3,4.2c0.2,0.6,0.6,1,1.2,1.3c0.6,0.3,1.8,0.5,3.6,0.5v1.1h-15.3
		v-1.1c1.9,0,3.1-0.2,3.7-0.5c0.6-0.3,0.9-0.7,1.2-1.2c0.2-0.5,0.3-1.9,0.3-4.4v-22c0-3-0.1-4.8-0.3-5.7c-0.1-0.6-0.4-1.1-0.8-1.4
		c-0.4-0.3-0.8-0.5-1.3-0.5c-0.7,0-1.8,0.3-3.1,0.9L614.8,1038.1z"/>
	<path class="st1" d="M664.9,1034.1l-2.3,5.1h-12.2l-2.6,5.5c5.3,0.8,9.5,2.7,12.6,5.9c2.7,2.7,4,5.9,4,9.6c0,2.1-0.4,4.1-1.3,5.9
		c-0.9,1.8-2,3.4-3.3,4.7c-1.3,1.3-2.8,2.3-4.4,3.1c-2.3,1.1-4.6,1.6-7.1,1.6c-2.4,0-4.2-0.4-5.3-1.2c-1.1-0.8-1.7-1.7-1.7-2.8
		c0-0.5,0.2-1,0.7-1.5c0.5-0.4,1-0.7,1.7-0.7c0.5,0,1,0.1,1.4,0.2c0.4,0.2,1,0.6,2,1.2c1.5,1,3,1.5,4.6,1.5c2.3,0,4.4-0.9,6.1-2.6
		c1.8-1.8,2.6-3.9,2.6-6.4c0-2.5-0.8-4.8-2.4-6.9c-1.6-2.1-3.8-3.8-6.5-4.9c-2.2-0.9-5.1-1.4-8.9-1.6l7.8-15.8H664.9z"/>
	<path class="st1" d="M671.2,1054.7c0-4.6,0.7-8.6,2.1-12c1.4-3.3,3.2-5.8,5.6-7.5c1.8-1.3,3.6-1.9,5.5-1.9c3.1,0,5.9,1.6,8.4,4.8
		c3.1,3.9,4.7,9.3,4.7,16c0,4.7-0.7,8.7-2,12c-1.4,3.3-3.1,5.7-5.2,7.2c-2.1,1.5-4.1,2.2-6.1,2.2c-3.9,0-7.1-2.3-9.7-6.8
		C672.2,1064.8,671.2,1060.1,671.2,1054.7z M677,1055.4c0,5.6,0.7,10.1,2.1,13.7c1.1,3,2.8,4.5,5.1,4.5c1.1,0,2.2-0.5,3.3-1.5
		c1.2-1,2-2.6,2.6-4.9c0.9-3.4,1.4-8.3,1.4-14.5c0-4.6-0.5-8.5-1.5-11.6c-0.7-2.3-1.7-3.9-2.8-4.9c-0.8-0.7-1.8-1-2.9-1
		c-1.4,0-2.6,0.6-3.6,1.8c-1.4,1.7-2.4,4.3-2.9,7.8C677.3,1048.5,677,1052,677,1055.4z"/>
	<path class="st1" d="M706.8,1038.1l9.9-4.8h1v34.3c0,2.3,0.1,3.7,0.3,4.2c0.2,0.6,0.6,1,1.2,1.3c0.6,0.3,1.8,0.5,3.6,0.5v1.1h-15.3
		v-1.1c1.9,0,3.1-0.2,3.7-0.5c0.6-0.3,0.9-0.7,1.2-1.2c0.2-0.5,0.3-1.9,0.3-4.4v-22c0-3-0.1-4.8-0.3-5.7c-0.1-0.6-0.4-1.1-0.8-1.4
		c-0.4-0.3-0.8-0.5-1.3-0.5c-0.7,0-1.8,0.3-3.1,0.9L706.8,1038.1z"/>
	<path class="st1" d="M737.4,1038.1l9.9-4.8h1v34.3c0,2.3,0.1,3.7,0.3,4.2c0.2,0.6,0.6,1,1.2,1.3c0.6,0.3,1.8,0.5,3.6,0.5v1.1h-15.3
		v-1.1c1.9,0,3.1-0.2,3.7-0.5c0.6-0.3,0.9-0.7,1.2-1.2c0.2-0.5,0.3-1.9,0.3-4.4v-22c0-3-0.1-4.8-0.3-5.7c-0.1-0.6-0.4-1.1-0.8-1.4
		c-0.4-0.3-0.8-0.5-1.3-0.5c-0.7,0-1.8,0.3-3.1,0.9L737.4,1038.1z"/>
	<path class="st1" d="M804.3,1061.2h-15.7l-2.8,6.4c-0.7,1.6-1,2.7-1,3.5c0,0.6,0.3,1.2,0.9,1.6c0.6,0.5,1.9,0.8,3.8,0.9v1.1h-12.8
		v-1.1c1.7-0.3,2.8-0.7,3.3-1.2c1-1,2.1-2.9,3.4-5.8l14.3-33.5h1.1l14.1,33.8c1.1,2.7,2.1,4.5,3.1,5.3c0.9,0.8,2.2,1.3,3.9,1.4v1.1
		h-16v-1.1c1.6-0.1,2.7-0.3,3.3-0.8c0.6-0.5,0.8-1,0.8-1.7c0-0.9-0.4-2.2-1.2-4.1L804.3,1061.2z M803.5,1058.9l-6.9-16.4l-7.1,16.4
		H803.5z"/>
	<path class="st1" d="M872.8,1033.2l0.9,13.8h-0.9c-1.2-4.1-3-7.1-5.3-8.9c-2.3-1.8-5.1-2.7-8.3-2.7c-2.7,0-5.1,0.7-7.3,2.1
		c-2.2,1.4-3.9,3.6-5.1,6.5c-1.3,3-1.9,6.7-1.9,11.2c0,3.7,0.6,6.9,1.8,9.5c1.2,2.7,3,4.8,5.3,6.2c2.4,1.4,5.1,2.2,8.1,2.2
		c2.7,0,5-0.6,7-1.7c2-1.1,4.2-3.4,6.7-6.7l0.9,0.6c-2,3.6-4.4,6.3-7.1,7.9c-2.7,1.7-5.9,2.5-9.7,2.5c-6.7,0-11.9-2.5-15.6-7.5
		c-2.8-3.7-4.1-8.1-4.1-13.1c0-4,0.9-7.8,2.7-11.2c1.8-3.4,4.3-6,7.5-7.9c3.2-1.9,6.7-2.8,10.4-2.8c2.9,0,5.8,0.7,8.7,2.2
		c0.8,0.4,1.5,0.7,1.8,0.7c0.5,0,1-0.2,1.4-0.6c0.5-0.5,0.9-1.3,1.1-2.3H872.8z"/>
	<path class="st1" d="M892.1,1046.5c4.2,0,7.5,1.6,10,4.7c2.1,2.7,3.2,5.8,3.2,9.3c0,2.5-0.6,4.9-1.8,7.4c-1.2,2.5-2.8,4.4-4.9,5.7
		c-2.1,1.3-4.4,1.9-6.9,1.9c-4.1,0-7.4-1.6-9.9-4.9c-2-2.8-3.1-5.9-3.1-9.3c0-2.5,0.6-5,1.9-7.5c1.2-2.5,2.9-4.3,4.9-5.5
		C887.7,1047.1,889.9,1046.5,892.1,1046.5z M891.2,1048.4c-1,0-2.1,0.3-3.2,0.9c-1.1,0.6-1.9,1.7-2.6,3.3c-0.7,1.6-1,3.6-1,6.1
		c0,4,0.8,7.4,2.4,10.3c1.6,2.9,3.7,4.3,6.3,4.3c1.9,0,3.5-0.8,4.8-2.4c1.3-1.6,1.9-4.3,1.9-8.2c0-4.9-1-8.7-3.1-11.5
		C895.2,1049.4,893.4,1048.4,891.2,1048.4z"/>
	<path class="st1" d="M917.4,1046.5v6.2c2.3-4.1,4.7-6.2,7.1-6.2c1.1,0,2,0.3,2.7,1c0.7,0.7,1.1,1.4,1.1,2.3c0,0.8-0.3,1.5-0.8,2
		c-0.5,0.5-1.1,0.8-1.8,0.8c-0.7,0-1.5-0.3-2.4-1c-0.9-0.7-1.5-1-1.9-1c-0.4,0-0.8,0.2-1.2,0.6c-0.9,0.8-1.8,2.2-2.8,4v13.2
		c0,1.5,0.2,2.7,0.6,3.4c0.2,0.5,0.7,1,1.4,1.4c0.7,0.4,1.6,0.5,2.8,0.5v1.1h-14v-1.1c1.4,0,2.4-0.2,3.1-0.7c0.5-0.3,0.8-0.8,1-1.5
		c0.1-0.3,0.1-1.3,0.1-2.9v-10.6c0-3.2-0.1-5.1-0.2-5.7c-0.1-0.6-0.4-1.1-0.7-1.3c-0.3-0.3-0.8-0.4-1.3-0.4c-0.6,0-1.3,0.1-2.1,0.4
		l-0.3-1.1l8.3-3.3H917.4z"/>
	<path class="st1" d="M953.9,1047.3v16.6c0,3.2,0.1,5.1,0.2,5.8c0.1,0.7,0.4,1.2,0.7,1.5c0.3,0.3,0.7,0.4,1.1,0.4
		c0.6,0,1.3-0.2,2.1-0.5l0.4,1.1l-8.2,3.4h-1.3v-5.8c-2.4,2.6-4.2,4.2-5.4,4.8c-1.2,0.7-2.5,1-3.9,1c-1.5,0-2.9-0.4-4-1.3
		c-1.1-0.9-1.9-2-2.4-3.4c-0.4-1.4-0.7-3.4-0.7-5.9v-12.2c0-1.3-0.1-2.2-0.4-2.7c-0.3-0.5-0.7-0.9-1.2-1.2c-0.5-0.3-1.5-0.4-3-0.4
		v-1.1h9.6v18.3c0,2.6,0.4,4.2,1.3,5c0.9,0.8,2,1.2,3.2,1.2c0.9,0,1.8-0.3,2.9-0.8c1.1-0.5,2.4-1.6,3.9-3.1v-15.6
		c0-1.6-0.3-2.6-0.9-3.2c-0.6-0.5-1.7-0.8-3.5-0.9v-1.1H953.9z"/>
	<path class="st1" d="M968.5,1052.3c3.2-3.9,6.3-5.8,9.2-5.8c1.5,0,2.8,0.4,3.9,1.1c1.1,0.7,1.9,2,2.6,3.7c0.4,1.2,0.6,3.1,0.6,5.5
		v11.7c0,1.7,0.1,2.9,0.4,3.5c0.2,0.5,0.6,0.9,1.1,1.2c0.5,0.3,1.4,0.4,2.7,0.4v1.1h-13.6v-1.1h0.6c1.3,0,2.2-0.2,2.7-0.6
		c0.5-0.4,0.9-1,1.1-1.7c0.1-0.3,0.1-1.2,0.1-2.8v-11.2c0-2.5-0.3-4.3-1-5.4c-0.7-1.1-1.8-1.7-3.3-1.7c-2.4,0-4.8,1.3-7.1,3.9v14.4
		c0,1.9,0.1,3,0.3,3.5c0.3,0.6,0.7,1,1.2,1.3c0.5,0.3,1.5,0.4,3,0.4v1.1h-13.5v-1.1h0.6c1.4,0,2.3-0.4,2.8-1.1
		c0.5-0.7,0.7-2.1,0.7-4.1v-10.2c0-3.3-0.1-5.3-0.2-6c-0.1-0.7-0.4-1.2-0.7-1.5c-0.3-0.3-0.7-0.4-1.2-0.4c-0.6,0-1.2,0.1-2,0.4
		l-0.4-1.1l8.3-3.3h1.3V1052.3z M965.3,1041.9h-0.9c0.1-2.7,0.6-4.7,1.7-5.9c1.1-1.2,2.4-1.8,3.9-1.8c0.8,0,1.6,0.1,2.2,0.4
		c0.9,0.3,2.2,1.1,3.8,2.1c1.6,1.1,2.9,1.6,3.7,1.6c0.6,0,1.2-0.3,1.7-0.8c0.5-0.5,0.9-1.7,1.2-3.4h0.9c0,1.9-0.2,3.3-0.7,4.4
		c-0.5,1.1-1.2,1.9-2.1,2.5c-0.9,0.6-1.9,0.9-2.8,0.9c-1.6,0-3.5-0.8-5.9-2.4c-1.2-0.9-2.1-1.4-2.5-1.6c-0.4-0.2-0.9-0.3-1.3-0.3
		c-0.8,0-1.5,0.4-1.9,1.1C965.9,1039.2,965.6,1040.2,965.3,1041.9z"/>
	<path class="st1" d="M1006.7,1070.8c-2.8,2.2-4.6,3.4-5.3,3.8c-1.1,0.5-2.2,0.7-3.5,0.7c-1.9,0-3.4-0.6-4.7-1.9
		c-1.2-1.3-1.8-3-1.8-5.1c0-1.3,0.3-2.5,0.9-3.5c0.8-1.4,2.2-2.6,4.3-3.8c2-1.2,5.4-2.7,10.1-4.4v-1.1c0-2.7-0.4-4.6-1.3-5.6
		c-0.9-1-2.1-1.5-3.8-1.5c-1.2,0-2.2,0.3-3,1c-0.8,0.7-1.2,1.5-1.2,2.3l0.1,1.7c0,0.9-0.2,1.6-0.7,2.1c-0.5,0.5-1.1,0.7-1.8,0.7
		c-0.7,0-1.4-0.3-1.8-0.8c-0.5-0.5-0.7-1.2-0.7-2.1c0-1.7,0.9-3.3,2.6-4.7c1.8-1.4,4.2-2.2,7.4-2.2c2.4,0,4.4,0.4,6,1.2
		c1.2,0.6,2,1.6,2.6,2.9c0.3,0.9,0.5,2.6,0.5,5.3v9.3c0,2.6,0,4.2,0.1,4.8c0.1,0.6,0.3,1,0.5,1.2c0.2,0.2,0.5,0.3,0.8,0.3
		c0.3,0,0.6-0.1,0.8-0.2c0.4-0.2,1.2-1,2.5-2.2v1.7c-2.3,3-4.4,4.5-6.4,4.5c-1,0-1.7-0.3-2.3-1
		C1007,1073.6,1006.7,1072.4,1006.7,1070.8z M1006.7,1068.8v-10.5c-3,1.2-4.9,2.1-5.8,2.6c-1.6,0.9-2.7,1.8-3.4,2.8
		c-0.7,1-1,2-1,3.1c0,1.4,0.4,2.6,1.3,3.6c0.9,1,1.8,1.4,3,1.4C1002.2,1071.8,1004.2,1070.8,1006.7,1068.8z"/>
	<path class="st1" d="M1019.8,1085v-1.3c2-0.7,3.6-1.7,4.7-3.1c1.1-1.4,1.7-2.9,1.7-4.6c0-0.4-0.1-0.7-0.3-1
		c-0.1-0.2-0.3-0.3-0.4-0.3c-0.2,0-0.7,0.2-1.5,0.6c-0.3,0.2-0.7,0.3-1.1,0.3c-1,0-1.8-0.3-2.3-0.9c-0.6-0.6-0.9-1.4-0.9-2.4
		c0-1,0.4-1.8,1.1-2.5c0.7-0.7,1.6-1,2.7-1c1.3,0,2.5,0.6,3.5,1.7c1,1.2,1.5,2.7,1.5,4.6c0,2.1-0.7,4-2.1,5.7
		C1025.1,1082.5,1022.8,1083.9,1019.8,1085z"/>
	<path class="st1" d="M423,1156.2l1,0.2l-3.5,11h-31.4v-1.1h1.5c1.7,0,2.9-0.6,3.7-1.7c0.4-0.6,0.6-2.1,0.6-4.4V1134
		c0-2.6-0.3-4.1-0.9-4.8c-0.8-0.9-1.9-1.3-3.5-1.3h-1.5v-1.1h18.4v1.1c-2.2,0-3.7,0.2-4.5,0.6c-0.9,0.4-1.5,1-1.8,1.6
		c-0.3,0.6-0.5,2.2-0.5,4.6v25.5c0,1.7,0.1,2.8,0.4,3.4c0.2,0.4,0.6,0.7,1.1,0.9c0.5,0.2,2.1,0.3,4.7,0.3h2.9c3.1,0,5.3-0.2,6.6-0.7
		c1.3-0.5,2.4-1.3,3.4-2.4C420.9,1160.6,422,1158.7,423,1156.2z"/>
	<path class="st1" d="M442.8,1163.5c-2.8,2.2-4.6,3.4-5.3,3.8c-1.1,0.5-2.2,0.7-3.5,0.7c-1.9,0-3.4-0.6-4.7-1.9
		c-1.2-1.3-1.8-3-1.8-5.1c0-1.3,0.3-2.5,0.9-3.5c0.8-1.4,2.2-2.6,4.3-3.8c2-1.2,5.4-2.7,10.1-4.4v-1.1c0-2.7-0.4-4.6-1.3-5.6
		c-0.9-1-2.1-1.5-3.8-1.5c-1.2,0-2.2,0.3-3,1c-0.8,0.7-1.2,1.5-1.2,2.3l0.1,1.7c0,0.9-0.2,1.6-0.7,2.1c-0.5,0.5-1.1,0.7-1.8,0.7
		c-0.7,0-1.4-0.3-1.8-0.8c-0.5-0.5-0.7-1.2-0.7-2.1c0-1.7,0.9-3.3,2.6-4.7c1.8-1.4,4.2-2.2,7.4-2.2c2.4,0,4.4,0.4,6,1.2
		c1.2,0.6,2,1.6,2.6,2.9c0.3,0.9,0.5,2.6,0.5,5.3v9.3c0,2.6,0,4.2,0.1,4.8c0.1,0.6,0.3,1,0.5,1.2c0.2,0.2,0.5,0.3,0.8,0.3
		c0.3,0,0.6-0.1,0.8-0.2c0.4-0.2,1.2-1,2.5-2.2v1.7c-2.3,3-4.4,4.5-6.4,4.5c-1,0-1.7-0.3-2.3-1
		C443.1,1166.3,442.8,1165.1,442.8,1163.5z M442.8,1161.5v-10.5c-3,1.2-4.9,2.1-5.8,2.6c-1.6,0.9-2.7,1.8-3.4,2.8c-0.7,1-1,2-1,3.1
		c0,1.4,0.4,2.6,1.3,3.6c0.9,1,1.8,1.4,3,1.4C438.3,1164.5,440.3,1163.5,442.8,1161.5z"/>
	<path class="st1" d="M504.8,1125.9l0.9,13.8h-0.9c-1.2-4.1-3-7.1-5.3-8.9c-2.3-1.8-5.1-2.7-8.3-2.7c-2.7,0-5.1,0.7-7.3,2.1
		c-2.2,1.4-3.9,3.6-5.1,6.5c-1.3,3-1.9,6.7-1.9,11.2c0,3.7,0.6,6.9,1.8,9.5c1.2,2.7,3,4.8,5.3,6.2c2.4,1.4,5.1,2.2,8.1,2.2
		c2.7,0,5-0.6,7-1.7c2-1.1,4.2-3.4,6.7-6.7l0.9,0.6c-2,3.6-4.4,6.3-7.1,7.9c-2.7,1.7-5.9,2.5-9.7,2.5c-6.7,0-11.9-2.5-15.6-7.5
		c-2.8-3.7-4.1-8.1-4.1-13.1c0-4,0.9-7.8,2.7-11.2c1.8-3.4,4.3-6,7.5-7.9c3.2-1.9,6.7-2.8,10.4-2.8c2.9,0,5.8,0.7,8.7,2.2
		c0.8,0.4,1.5,0.7,1.8,0.7c0.5,0,1-0.2,1.4-0.6c0.5-0.5,0.9-1.3,1.1-2.3H504.8z"/>
	<path class="st1" d="M524.1,1139.2c4.2,0,7.5,1.6,10,4.7c2.1,2.7,3.2,5.8,3.2,9.3c0,2.5-0.6,4.9-1.8,7.4c-1.2,2.5-2.8,4.4-4.9,5.7
		c-2.1,1.3-4.4,1.9-6.9,1.9c-4.1,0-7.4-1.6-9.9-4.9c-2-2.8-3.1-5.9-3.1-9.3c0-2.5,0.6-5,1.9-7.5c1.2-2.5,2.9-4.3,4.9-5.5
		C519.7,1139.8,521.9,1139.2,524.1,1139.2z M523.2,1141.1c-1,0-2.1,0.3-3.2,0.9c-1.1,0.6-1.9,1.7-2.6,3.3c-0.7,1.6-1,3.6-1,6.1
		c0,4,0.8,7.4,2.4,10.3c1.6,2.9,3.7,4.3,6.3,4.3c1.9,0,3.5-0.8,4.8-2.4c1.3-1.6,1.9-4.3,1.9-8.2c0-4.9-1-8.7-3.1-11.5
		C527.2,1142.1,525.4,1141.1,523.2,1141.1z"/>
	<path class="st1" d="M549.4,1139.2v6.2c2.3-4.1,4.7-6.2,7.1-6.2c1.1,0,2,0.3,2.7,1c0.7,0.7,1.1,1.4,1.1,2.3c0,0.8-0.3,1.5-0.8,2
		c-0.5,0.5-1.1,0.8-1.8,0.8c-0.7,0-1.5-0.3-2.4-1c-0.9-0.7-1.5-1-1.9-1c-0.4,0-0.8,0.2-1.2,0.6c-0.9,0.8-1.8,2.2-2.8,4v13.2
		c0,1.5,0.2,2.7,0.6,3.4c0.2,0.5,0.7,1,1.4,1.4c0.7,0.4,1.6,0.5,2.8,0.5v1.1h-14v-1.1c1.4,0,2.4-0.2,3.1-0.7c0.5-0.3,0.8-0.8,1-1.5
		c0.1-0.3,0.1-1.3,0.1-2.9v-10.6c0-3.2-0.1-5.1-0.2-5.7c-0.1-0.6-0.4-1.1-0.7-1.3c-0.3-0.3-0.8-0.4-1.3-0.4c-0.6,0-1.3,0.1-2.1,0.4
		l-0.3-1.1l8.3-3.3H549.4z"/>
	<path class="st1" d="M585.9,1140v16.6c0,3.2,0.1,5.1,0.2,5.8c0.1,0.7,0.4,1.2,0.7,1.5c0.3,0.3,0.7,0.4,1.1,0.4
		c0.6,0,1.3-0.2,2.1-0.5l0.4,1.1l-8.2,3.4h-1.3v-5.8c-2.4,2.6-4.2,4.2-5.4,4.8c-1.2,0.7-2.5,1-3.9,1c-1.5,0-2.9-0.4-4-1.3
		c-1.1-0.9-1.9-2-2.4-3.4c-0.4-1.4-0.7-3.4-0.7-5.9v-12.2c0-1.3-0.1-2.2-0.4-2.7c-0.3-0.5-0.7-0.9-1.2-1.2c-0.5-0.3-1.5-0.4-3-0.4
		v-1.1h9.6v18.3c0,2.6,0.4,4.2,1.3,5c0.9,0.8,2,1.2,3.2,1.2c0.9,0,1.8-0.3,2.9-0.8c1.1-0.5,2.4-1.6,3.9-3.1v-15.6
		c0-1.6-0.3-2.6-0.9-3.2c-0.6-0.5-1.7-0.8-3.5-0.9v-1.1H585.9z"/>
	<path class="st1" d="M600.5,1145c3.2-3.9,6.3-5.8,9.2-5.8c1.5,0,2.8,0.4,3.9,1.1c1.1,0.7,1.9,2,2.6,3.7c0.4,1.2,0.6,3.1,0.6,5.5
		v11.7c0,1.7,0.1,2.9,0.4,3.5c0.2,0.5,0.6,0.9,1.1,1.2c0.5,0.3,1.4,0.4,2.7,0.4v1.1h-13.6v-1.1h0.6c1.3,0,2.2-0.2,2.7-0.6
		c0.5-0.4,0.9-1,1.1-1.7c0.1-0.3,0.1-1.2,0.1-2.8V1150c0-2.5-0.3-4.3-1-5.4c-0.7-1.1-1.8-1.7-3.3-1.7c-2.4,0-4.8,1.3-7.1,3.9v14.4
		c0,1.9,0.1,3,0.3,3.5c0.3,0.6,0.7,1,1.2,1.3c0.5,0.3,1.5,0.4,3,0.4v1.1h-13.5v-1.1h0.6c1.4,0,2.3-0.4,2.8-1.1
		c0.5-0.7,0.7-2.1,0.7-4.1v-10.2c0-3.3-0.1-5.3-0.2-6c-0.1-0.7-0.4-1.2-0.7-1.5c-0.3-0.3-0.7-0.4-1.2-0.4c-0.6,0-1.2,0.1-2,0.4
		l-0.4-1.1l8.3-3.3h1.3V1145z M597.3,1134.6h-0.9c0.1-2.7,0.6-4.7,1.7-5.9c1.1-1.2,2.4-1.8,3.9-1.8c0.8,0,1.6,0.1,2.2,0.4
		c0.9,0.3,2.2,1.1,3.8,2.1c1.6,1.1,2.9,1.6,3.7,1.6c0.6,0,1.2-0.3,1.7-0.8c0.5-0.5,0.9-1.7,1.2-3.4h0.9c0,1.9-0.2,3.3-0.7,4.4
		c-0.5,1.1-1.2,1.9-2.1,2.5c-0.9,0.6-1.9,0.9-2.8,0.9c-1.6,0-3.5-0.8-5.9-2.4c-1.2-0.9-2.1-1.4-2.5-1.6c-0.4-0.2-0.9-0.3-1.3-0.3
		c-0.8,0-1.5,0.4-1.9,1.1C597.9,1131.9,597.6,1132.9,597.3,1134.6z"/>
	<path class="st1" d="M638.7,1163.5c-2.8,2.2-4.6,3.4-5.3,3.8c-1.1,0.5-2.2,0.7-3.5,0.7c-1.9,0-3.4-0.6-4.7-1.9
		c-1.2-1.3-1.8-3-1.8-5.1c0-1.3,0.3-2.5,0.9-3.5c0.8-1.4,2.2-2.6,4.3-3.8c2-1.2,5.4-2.7,10.1-4.4v-1.1c0-2.7-0.4-4.6-1.3-5.6
		c-0.9-1-2.1-1.5-3.8-1.5c-1.2,0-2.2,0.3-3,1c-0.8,0.7-1.2,1.5-1.2,2.3l0.1,1.7c0,0.9-0.2,1.6-0.7,2.1c-0.5,0.5-1.1,0.7-1.8,0.7
		c-0.7,0-1.4-0.3-1.8-0.8c-0.5-0.5-0.7-1.2-0.7-2.1c0-1.7,0.9-3.3,2.6-4.7c1.8-1.4,4.2-2.2,7.4-2.2c2.4,0,4.4,0.4,6,1.2
		c1.2,0.6,2,1.6,2.6,2.9c0.3,0.9,0.5,2.6,0.5,5.3v9.3c0,2.6,0,4.2,0.1,4.8c0.1,0.6,0.3,1,0.5,1.2c0.2,0.2,0.5,0.3,0.8,0.3
		c0.3,0,0.6-0.1,0.8-0.2c0.4-0.2,1.2-1,2.5-2.2v1.7c-2.3,3-4.4,4.5-6.4,4.5c-1,0-1.7-0.3-2.3-1
		C639,1166.3,638.7,1165.1,638.7,1163.5z M638.7,1161.5v-10.5c-3,1.2-4.9,2.1-5.8,2.6c-1.6,0.9-2.7,1.8-3.4,2.8c-0.7,1-1,2-1,3.1
		c0,1.4,0.4,2.6,1.3,3.6c0.9,1,1.8,1.4,3,1.4C634.2,1164.5,636.2,1163.5,638.7,1161.5z"/>
	<path class="st1" d="M651.8,1177.7v-1.3c2-0.7,3.6-1.7,4.7-3.1c1.1-1.4,1.7-2.9,1.7-4.6c0-0.4-0.1-0.7-0.3-1
		c-0.1-0.2-0.3-0.3-0.4-0.3c-0.2,0-0.7,0.2-1.5,0.6c-0.3,0.2-0.7,0.3-1.1,0.3c-1,0-1.8-0.3-2.3-0.9c-0.6-0.6-0.9-1.4-0.9-2.4
		c0-1,0.4-1.8,1.1-2.5c0.7-0.7,1.6-1,2.7-1c1.3,0,2.5,0.6,3.5,1.7c1,1.2,1.5,2.7,1.5,4.6c0,2.1-0.7,4-2.1,5.7
		C657.1,1175.2,654.8,1176.6,651.8,1177.7z"/>
	<path class="st1" d="M692,1129v16h8.9c2.3,0,3.9-0.3,4.7-1c1-0.9,1.6-2.5,1.7-4.8h1.1v14.1h-1.1c-0.3-2-0.6-3.2-0.9-3.8
		c-0.3-0.7-0.9-1.3-1.7-1.7c-0.8-0.4-2.1-0.6-3.8-0.6H692v13.4c0,1.8,0.1,2.9,0.2,3.3c0.1,0.4,0.4,0.7,0.8,0.9
		c0.4,0.2,1.2,0.3,2.3,0.3h6.9c2.3,0,3.9-0.2,5-0.5c1-0.3,2-0.9,3-1.9c1.2-1.2,2.5-3.1,3.8-5.6h1.2l-3.5,10.2h-31.3v-1.1h1.4
		c1,0,1.9-0.2,2.8-0.7c0.6-0.3,1-0.8,1.3-1.5c0.2-0.6,0.4-1.9,0.4-3.9v-26.4c0-2.6-0.3-4.1-0.8-4.8c-0.7-0.8-1.9-1.2-3.6-1.2h-1.4
		v-1.1h31.3l0.4,8.9H711c-0.4-2.2-0.9-3.6-1.4-4.4c-0.5-0.8-1.3-1.4-2.3-1.8c-0.8-0.3-2.2-0.4-4.2-0.4H692z"/>
	<path class="st1" d="M736.2,1139.2v9.3h-1c-0.8-2.9-1.7-4.9-2.9-6c-1.2-1.1-2.7-1.6-4.5-1.6c-1.4,0-2.5,0.4-3.4,1.1
		c-0.9,0.7-1.3,1.6-1.3,2.5c0,1.1,0.3,2.1,1,2.9c0.6,0.8,1.9,1.7,3.8,2.6l4.4,2.2c4.1,2,6.1,4.6,6.1,7.8c0,2.5-0.9,4.5-2.8,6
		c-1.9,1.5-4,2.3-6.3,2.3c-1.7,0-3.6-0.3-5.7-0.9c-0.7-0.2-1.2-0.3-1.6-0.3c-0.4,0-0.8,0.3-1.1,0.8h-1v-9.8h1
		c0.6,2.8,1.6,4.9,3.2,6.3c1.6,1.4,3.3,2.1,5.3,2.1c1.4,0,2.5-0.4,3.3-1.2c0.9-0.8,1.3-1.8,1.3-2.9c0-1.4-0.5-2.5-1.5-3.5
		c-1-0.9-2.9-2.1-5.8-3.6c-2.9-1.4-4.8-2.7-5.7-3.9c-0.9-1.1-1.3-2.6-1.3-4.3c0-2.3,0.8-4.1,2.3-5.7c1.5-1.5,3.5-2.3,6-2.3
		c1.1,0,2.4,0.2,3.9,0.7c1,0.3,1.7,0.4,2,0.4c0.3,0,0.6-0.1,0.8-0.2c0.2-0.1,0.4-0.4,0.7-0.9H736.2z"/>
	<path class="st1" d="M740.4,1142.7l8.4-3.4h1.2v6.4c1.4-2.4,2.8-4.1,4.3-5.1c1.4-1,2.9-1.5,4.5-1.5c2.8,0,5,1.1,6.9,3.2
		c2.3,2.6,3.4,6.1,3.4,10.3c0,4.7-1.4,8.6-4.1,11.7c-2.2,2.6-5,3.8-8.4,3.8c-1.5,0-2.7-0.2-3.8-0.6c-0.8-0.3-1.7-0.9-2.7-1.8v8.4
		c0,1.9,0.1,3.1,0.4,3.6c0.2,0.5,0.6,0.9,1.2,1.2c0.6,0.3,1.6,0.4,3.1,0.4v1.1h-14.4v-1.1h0.7c1.1,0,2.1-0.2,2.8-0.6
		c0.4-0.2,0.7-0.6,0.9-1.1c0.2-0.5,0.3-1.7,0.3-3.7v-25.9c0-1.8-0.1-2.9-0.2-3.4c-0.2-0.5-0.4-0.8-0.8-1.1c-0.3-0.2-0.8-0.4-1.4-0.4
		c-0.5,0-1.1,0.1-1.8,0.4L740.4,1142.7z M750,1147.5v10.2c0,2.2,0.1,3.7,0.3,4.4c0.3,1.1,1,2.2,2.1,3c1.1,0.9,2.4,1.3,4.1,1.3
		c2,0,3.6-0.8,4.8-2.3c1.6-2,2.5-4.9,2.5-8.6c0-4.2-0.9-7.4-2.8-9.7c-1.3-1.5-2.8-2.3-4.6-2.3c-0.9,0-1.9,0.2-2.8,0.7
		C752.9,1144.6,751.7,1145.7,750,1147.5z"/>
	<path class="st1" d="M788.6,1163.5c-2.8,2.2-4.6,3.4-5.3,3.8c-1.1,0.5-2.2,0.7-3.5,0.7c-1.9,0-3.4-0.6-4.7-1.9
		c-1.2-1.3-1.8-3-1.8-5.1c0-1.3,0.3-2.5,0.9-3.5c0.8-1.4,2.2-2.6,4.3-3.8c2-1.2,5.4-2.7,10.1-4.4v-1.1c0-2.7-0.4-4.6-1.3-5.6
		c-0.9-1-2.1-1.5-3.8-1.5c-1.2,0-2.2,0.3-3,1c-0.8,0.7-1.2,1.5-1.2,2.3l0.1,1.7c0,0.9-0.2,1.6-0.7,2.1c-0.5,0.5-1.1,0.7-1.8,0.7
		s-1.4-0.3-1.8-0.8c-0.5-0.5-0.7-1.2-0.7-2.1c0-1.7,0.9-3.3,2.6-4.7c1.8-1.4,4.2-2.2,7.4-2.2c2.4,0,4.4,0.4,6,1.2
		c1.2,0.6,2,1.6,2.6,2.9c0.3,0.9,0.5,2.6,0.5,5.3v9.3c0,2.6,0,4.2,0.1,4.8c0.1,0.6,0.3,1,0.5,1.2c0.2,0.2,0.5,0.3,0.8,0.3
		c0.3,0,0.6-0.1,0.8-0.2c0.4-0.2,1.2-1,2.5-2.2v1.7c-2.3,3-4.4,4.5-6.4,4.5c-1,0-1.7-0.3-2.3-1
		C788.9,1166.3,788.6,1165.1,788.6,1163.5z M788.6,1161.5v-10.5c-3,1.2-4.9,2.1-5.8,2.6c-1.6,0.9-2.7,1.8-3.4,2.8c-0.7,1-1,2-1,3.1
		c0,1.4,0.4,2.6,1.3,3.6c0.9,1,1.8,1.4,3,1.4C784.1,1164.5,786.1,1163.5,788.6,1161.5z"/>
	<path class="st1" d="M808.3,1145c3.2-3.9,6.3-5.8,9.2-5.8c1.5,0,2.8,0.4,3.9,1.1c1.1,0.7,1.9,2,2.6,3.7c0.4,1.2,0.6,3.1,0.6,5.5
		v11.7c0,1.7,0.1,2.9,0.4,3.5c0.2,0.5,0.6,0.9,1.1,1.2c0.5,0.3,1.4,0.4,2.7,0.4v1.1h-13.6v-1.1h0.6c1.3,0,2.2-0.2,2.7-0.6
		c0.5-0.4,0.9-1,1.1-1.7c0.1-0.3,0.1-1.2,0.1-2.8V1150c0-2.5-0.3-4.3-1-5.4c-0.7-1.1-1.8-1.7-3.3-1.7c-2.4,0-4.8,1.3-7.1,3.9v14.4
		c0,1.9,0.1,3,0.3,3.5c0.3,0.6,0.7,1,1.2,1.3c0.5,0.3,1.5,0.4,3,0.4v1.1h-13.5v-1.1h0.6c1.4,0,2.3-0.4,2.8-1.1
		c0.5-0.7,0.7-2.1,0.7-4.1v-10.2c0-3.3-0.1-5.3-0.2-6c-0.1-0.7-0.4-1.2-0.7-1.5c-0.3-0.3-0.7-0.4-1.2-0.4c-0.6,0-1.2,0.1-2,0.4
		l-0.4-1.1l8.3-3.3h1.3V1145z M805.1,1134.6h-0.9c0.1-2.7,0.6-4.7,1.7-5.9c1.1-1.2,2.4-1.8,3.9-1.8c0.8,0,1.6,0.1,2.2,0.4
		c0.9,0.3,2.2,1.1,3.8,2.1c1.6,1.1,2.9,1.6,3.7,1.6c0.6,0,1.2-0.3,1.7-0.8c0.5-0.5,0.9-1.7,1.2-3.4h0.9c0,1.9-0.2,3.3-0.7,4.4
		c-0.5,1.1-1.2,1.9-2.1,2.5c-0.9,0.6-1.9,0.9-2.8,0.9c-1.6,0-3.5-0.8-5.9-2.4c-1.2-0.9-2.1-1.4-2.5-1.6c-0.4-0.2-0.9-0.3-1.3-0.3
		c-0.8,0-1.5,0.4-1.9,1.1C805.7,1131.9,805.5,1132.9,805.1,1134.6z"/>
	<path class="st1" d="M846.5,1163.5c-2.8,2.2-4.6,3.4-5.3,3.8c-1.1,0.5-2.2,0.7-3.5,0.7c-1.9,0-3.4-0.6-4.7-1.9
		c-1.2-1.3-1.8-3-1.8-5.1c0-1.3,0.3-2.5,0.9-3.5c0.8-1.4,2.2-2.6,4.3-3.8c2-1.2,5.4-2.7,10.1-4.4v-1.1c0-2.7-0.4-4.6-1.3-5.6
		c-0.9-1-2.1-1.5-3.8-1.5c-1.2,0-2.2,0.3-3,1c-0.8,0.7-1.2,1.5-1.2,2.3l0.1,1.7c0,0.9-0.2,1.6-0.7,2.1c-0.5,0.5-1.1,0.7-1.8,0.7
		c-0.7,0-1.4-0.3-1.8-0.8c-0.5-0.5-0.7-1.2-0.7-2.1c0-1.7,0.9-3.3,2.6-4.7c1.8-1.4,4.2-2.2,7.4-2.2c2.4,0,4.4,0.4,6,1.2
		c1.2,0.6,2,1.6,2.6,2.9c0.3,0.9,0.5,2.6,0.5,5.3v9.3c0,2.6,0,4.2,0.1,4.8c0.1,0.6,0.3,1,0.5,1.2c0.2,0.2,0.5,0.3,0.8,0.3
		c0.3,0,0.6-0.1,0.8-0.2c0.4-0.2,1.2-1,2.5-2.2v1.7c-2.3,3-4.4,4.5-6.4,4.5c-1,0-1.7-0.3-2.3-1
		C846.8,1166.3,846.5,1165.1,846.5,1163.5z M846.5,1161.5v-10.5c-3,1.2-4.9,2.1-5.8,2.6c-1.6,0.9-2.7,1.8-3.4,2.8c-0.7,1-1,2-1,3.1
		c0,1.4,0.4,2.6,1.3,3.6c0.9,1,1.8,1.4,3,1.4C842,1164.5,844,1163.5,846.5,1161.5z"/>
</g>
<text transform="matrix(1 0 0 1 1658.1444 942.6945)" class="st1" style="font-family:'Vijaya'; font-size:100px;">Iglesia San Po X y San Roque</text>
<text transform="matrix(1 0 0 1 1750.7469 1086.1235)"><tspan x="0" y="0" class="st1" style="font-family:'Aparajita'; font-size:74px;">Paseo Rda., 61, 15011 A Corua,</tspan><tspan x="170.4" y="90" class="st1" style="font-family:'Aparajita'; font-size:74px;">La Corua, Espaa</tspan></text>
</svg>
